<?xml version="1.0" encoding="utf-8"?>
<!-- Created by UniConvertor 2.0rc5 (https://sk1project.net/) -->
<svg xmlns="http://www.w3.org/2000/svg" height="99.0px" width="258.0px" version="1.1" xmlns:xlink="http://www.w3.org/1999/xlink" id="c11c1408-0cc4-11ed-a83b-a8a1598cb569">

<g>
	<path style="fill:#ffffff;" d="M 0.0,0.0 L 0.0,57.0 1.0,57.0 C 1.4703,46.2124 9.2101,25.9067 23.0,27.4336 28.0845,27.9966 31.9819,32.2556 36.0,35.0 37.4257,23.9597 40.52,13.1801 41.0,2.0 48.6074,10.4818 46.406,17.7436 43.8696,28.0 39.4527,45.8603 30.5226,60.5691 21.0,76.0 33.8511,66.9465 35.2961,57.2064 40.0,44.0 L 42.0,48.0 C 47.2686,40.1586 49.4481,29.9926 52.0,21.0 62.8146,41.5238 37.0692,71.1805 20.0,81.0 L 20.0,82.0 C 33.3684,78.1415 35.2765,69.2235 44.0,61.0 L 44.0,65.0 C 50.1752,60.2632 54.046,53.0933 57.0,46.0 L 58.0,46.0 C 58.0,62.5978 48.8258,72.7769 34.0,80.1898 30.5616,81.909 17.9141,88.4762 15.7971,82.8372 14.2707,78.7716 18.6072,74.1628 20.5748,71.0 24.7522,64.2852 34.7933,49.3267 33.071,41.0147 31.6313,34.0668 21.346,32.538 16.0039,35.3179 -0.7212,44.0211 -1.2187,87.7315 20.0,91.5656 28.836,93.1622 34.5033,83.1634 41.0,79.0 37.9107,86.4182 32.6689,95.745 24.0,97.4267 9.8091,100.18 1.2342,78.994 1.0,68.0 L 0.0,68.0 0.0,99.0 258.0,99.0 258.0,74.0 C 253.242,75.1327 244.598,76.6071 240.148,73.9722 236.404,71.7556 235.455,63.6053 239.318,61.0278 242.675,58.7876 249.13,60.0 253.0,60.0 L 253.0,56.0 C 247.124,56.0 239.079,57.8475 237.0,51.0 243.971,51.0 251.182,50.3769 258.0,52.0 L 258.0,0.0 0.0,0.0 Z" />
	<path style="fill:#f5aea4;" d="M 41.0,2.0 L 42.0,3.0 41.0,2.0 Z" />
	<path style="fill:#ef7161;" d="M 41.0,3.0 L 41.0,6.0 42.0,6.0 43.0,3.0 41.0,3.0 Z" />
	<path style="fill:#e94736;" d="M 42.0,4.0 C 37.9434,20.9918 36.0509,37.5716 29.3958,54.0 25.2094,64.3345 16.1029,73.6337 16.0,85.0 35.8152,84.1361 56.9977,69.5751 57.0,49.0 L 56.0,49.0 C 47.8283,63.6779 34.6426,78.2056 18.0,83.0 L 18.0,82.0 C 37.8038,73.3441 59.168,43.9491 53.0,22.0 L 52.0,22.0 C 45.5137,45.0273 34.9469,63.0531 18.0,80.0 29.2278,63.0092 38.9069,47.0676 43.8696,27.0 45.7185,19.5237 48.5158,9.75 42.0,4.0 Z" />
	<path style="fill:#f28c7e;" d="M 43.0,4.0 L 44.0,5.0 43.0,4.0 Z" />
	<path style="fill:#f9d3cd;" d="M 44.0,5.0 L 45.0,6.0 44.0,5.0 M 40.0,7.0 L 40.0,10.0 41.0,10.0 C 40.7488,8.5484 40.6848,8.2484 40.0,7.0 Z" />
	<path style="fill:#f5aea4;" d="M 45.0,7.0 L 46.0,8.0 45.0,7.0 M 46.3333,9.6667 C 46.2778,9.7222 46.2222,10.7778 46.6667,10.3333 46.7223,10.2777 46.7777,9.2223 46.3333,9.6667 Z" />
	<path style="fill:#f28c7e;" d="M 40.3333,10.6667 C 40.2778,10.7222 40.2222,11.7778 40.6667,11.3333 40.7222,11.2778 40.7778,10.2222 40.3333,10.6667 M 46.0,11.0 L 46.0,15.0 47.0,15.0 C 46.8259,13.3148 46.683,12.5061 46.0,11.0 Z" />
	<path style="fill:#ef7161;" d="M 40.3333,12.6667 C 40.2778,12.7222 40.2222,13.7778 40.6667,13.3333 40.7222,13.2778 40.7778,12.2222 40.3333,12.6667 Z" />
	<path style="fill:#f5aea4;" d="M 39.3333,15.6667 C 39.2778,15.7222 39.2222,16.7778 39.6667,16.3333 39.7223,16.2777 39.7778,15.2222 39.3333,15.6667 Z" />
	<path style="fill:#f9d3cd;" d="M 46.3333,15.6667 C 46.2778,15.7222 46.2222,16.7778 46.6667,16.3333 46.7223,16.2777 46.7778,15.2222 46.3333,15.6667 Z" />
	<path style="fill:#f28c7e;" d="M 39.3333,17.6667 C 39.2778,17.7222 39.2222,18.7778 39.6667,18.3333 39.7222,18.2778 39.7778,17.2222 39.3333,17.6667 Z" />
	<path style="fill:#f5aea4;" d="M 45.3333,19.6667 C 45.2778,19.7222 45.2222,20.7778 45.6667,20.3333 45.7222,20.2778 45.7778,19.2222 45.3333,19.6667 M 38.3333,21.6667 C 38.2778,21.7222 38.2222,22.7778 38.6667,22.3333 38.7222,22.2778 38.7778,21.2222 38.3333,21.6667 Z" />
	<path style="fill:#f28c7e;" d="M 52.0,21.0 L 53.0,22.0 52.0,21.0 Z" />
	<path style="fill:#f5aea4;" d="M 51.3333,22.6667 C 51.2778,22.7222 51.2222,23.7778 51.6667,23.3333 51.7222,23.2778 51.7778,22.2222 51.3333,22.6667 Z" />
	<path style="fill:#ef7161;" d="M 38.3333,23.6667 C 38.2778,23.7222 38.2222,24.7778 38.6667,24.3333 38.7223,24.2777 38.7778,23.2222 38.3333,23.6667 Z" />
	<path style="fill:#f5aea4;" d="M 53.0,23.0 L 54.0,24.0 53.0,23.0 Z" />
	<path style="fill:#f9d3cd;" d="M 44.3333,24.6667 C 44.2778,24.7222 44.2222,25.7778 44.6667,25.3333 44.7222,25.2778 44.7778,24.2222 44.3333,24.6667 Z" />
	<path style="fill:#f5aea4;" d="M 37.3333,26.6667 C 37.2778,26.7222 37.2222,27.7778 37.6667,27.3333 37.7222,27.2778 37.7778,26.2222 37.3333,26.6667 Z" />
	<path style="fill:#f28c7e;" d="M 50.3333,26.6667 C 50.2778,26.7222 50.2222,27.7778 50.6667,27.3333 50.7222,27.2778 50.7778,26.2222 50.3333,26.6667 Z" />
	<path style="fill:#f5aea4;" d="M 54.0,26.0 L 55.0,27.0 54.0,26.0 Z" />
	<path style="fill:#c4c4c8;" d="M 19.6667,27.3333 C 19.2222,27.7778 20.2778,27.7222 20.3333,27.6667 20.7778,27.2222 19.7222,27.2778 19.6667,27.3333 Z" />
	<path style="fill:#9a9a9f;" d="M 21.6667,27.3333 C 21.2222,27.7778 22.2778,27.7222 22.3333,27.6667 22.7778,27.2222 21.7222,27.2778 21.6667,27.3333 Z" />
	<path style="fill:#f9d3cd;" d="M 23.6667,27.3333 C 23.2222,27.7778 24.2778,27.7222 24.3333,27.6667 24.7778,27.2222 23.7222,27.2778 23.6667,27.3333 Z" />
	<path style="fill:#f28c7e;" d="M 54.0,27.0 L 55.0,28.0 54.0,27.0 Z" />
	<path style="fill:#c4c4c8;" d="M 16.0,28.0 L 17.0,29.0 16.0,28.0 Z" />
	<path style="fill:#6f6f76;" d="M 17.0,28.0 L 18.0,29.0 17.0,28.0 Z" />
	<path style="fill:#272730;" d="M 18.0,28.0 L 19.0,29.0 18.0,28.0 Z" />
	<path style="fill:#020202;" d="M 40.0,80.0 C 34.392,83.3099 30.644,90.6137 24.0,91.8835 17.1017,93.2018 11.7098,87.3532 8.4792,82.0 1.4535,70.3585 1.8097,53.4228 9.1327,42.0008 15.3725,32.2684 25.8206,30.3378 33.0,40.0 37.6505,32.7006 26.1537,27.3941 20.0,28.3441 10.3199,29.8386 4.4789,40.2763 2.5139,49.0 -0.4646,62.2234 0.3502,78.7648 8.7886,89.9599 19.6033,104.308 35.9745,93.947 40.0,80.0 Z" />
	<path style="fill:#272730;" d="M 25.0,28.0 L 26.0,29.0 25.0,28.0 Z" />
	<path style="fill:#85797d;" d="M 26.0,28.0 L 27.0,29.0 26.0,28.0 Z" />
	<path style="fill:#c4c4c8;" d="M 27.0,28.0 L 28.0,29.0 27.0,28.0 Z" />
	<path style="fill:#ef7161;" d="M 37.3333,28.6667 C 37.2778,28.7222 37.2222,29.7778 37.6667,29.3333 37.7222,29.2778 37.7778,28.2222 37.3333,28.6667 Z" />
	<path style="fill:#f9d3cd;" d="M 43.3333,28.6667 C 43.2778,28.7222 43.2222,29.7778 43.6667,29.3333 43.7222,29.2778 43.7778,28.2222 43.3333,28.6667 Z" />
	<path style="fill:#c4c4c8;" d="M 14.0,29.0 L 15.0,30.0 14.0,29.0 Z" />
	<path style="fill:#4d4d55;" d="M 15.0,29.0 L 16.0,30.0 15.0,29.0 M 28.0,29.0 L 29.0,30.0 28.0,29.0 Z" />
	<path style="fill:#f9d3cd;" d="M 49.0,29.0 L 50.0,30.0 49.0,29.0 M 55.0,29.0 L 55.0,35.0 56.0,35.0 C 55.9528,32.7472 55.8742,31.0521 55.0,29.0 Z" />
	<path style="fill:#85797d;" d="M 13.0,30.0 L 14.0,31.0 13.0,30.0 M 30.0,30.0 L 31.0,31.0 30.0,30.0 Z" />
	<path style="fill:#ef7161;" d="M 49.3333,30.6667 C 49.2778,30.7222 49.2222,31.7778 49.6667,31.3333 49.7222,31.2778 49.7778,30.2222 49.3333,30.6667 Z" />
	<path style="fill:#4d4d55;" d="M 12.0,31.0 L 13.0,32.0 12.0,31.0 M 31.0,31.0 L 32.0,32.0 31.0,31.0 Z" />
	<path style="fill:#f28c7e;" d="M 36.3333,31.6667 C 36.2778,31.7222 36.2222,32.7778 36.6667,32.3333 36.7222,32.2778 36.7778,31.2222 36.3333,31.6667 Z" />
	<path style="fill:#272730;" d="M 11.0,32.0 L 12.0,33.0 11.0,32.0 Z" />
	<path style="fill:#44363c;" d="M 32.0,32.0 L 33.0,33.0 32.0,32.0 Z" />
	<path style="fill:#f9d3cd;" d="M 42.3333,32.6667 C 42.2778,32.7222 42.2222,33.7778 42.6667,33.3333 42.7222,33.2778 42.7778,32.2222 42.3333,32.6667 Z" />
	<path style="fill:#44363c;" d="M 10.0,33.0 L 11.0,34.0 10.0,33.0 Z" />
	<path style="fill:#4d4d55;" d="M 18.0,33.0 L 19.0,34.0 18.0,33.0 Z" />
	<path style="fill:#9a9a9f;" d="M 19.0,33.0 L 20.0,34.0 19.0,33.0 Z" />
	<path style="fill:#c4c4c8;" d="M 20.0,33.0 L 20.0,34.0 24.0,34.0 C 22.494,33.317 21.6852,33.1741 20.0,33.0 Z" />
	<path style="fill:#85797d;" d="M 24.0,33.0 L 25.0,34.0 24.0,33.0 Z" />
	<path style="fill:#4d4d55;" d="M 25.0,33.0 L 26.0,34.0 25.0,33.0 Z" />
	<path style="fill:#44363c;" d="M 33.0,33.0 L 34.0,34.0 33.0,33.0 Z" />
	<path style="fill:#f28c7e;" d="M 48.0,33.0 L 49.0,34.0 48.0,33.0 Z" />
	<path style="fill:#44363c;" d="M 9.0,34.0 L 10.0,35.0 9.0,34.0 Z" />
	<path style="fill:#6f6f76;" d="M 16.0,34.0 L 17.0,35.0 16.0,34.0 M 27.0,34.0 L 28.0,35.0 27.0,34.0 M 34.0,34.0 L 35.0,35.0 34.0,34.0 Z" />
	<path style="fill:#ef7161;" d="M 41.0,34.0 L 42.0,35.0 41.0,34.0 Z" />
	<path style="fill:#6f6f76;" d="M 8.0,35.0 L 9.0,36.0 8.0,35.0 Z" />
	<path style="fill:#44363c;" d="M 14.0,35.0 L 15.0,36.0 14.0,35.0 Z" />
	<path style="fill:#c4c4c8;" d="M 15.0,35.0 L 16.0,36.0 15.0,35.0 M 28.0,35.0 L 29.0,36.0 28.0,35.0 Z" />
	<path style="fill:#272730;" d="M 29.0,35.0 L 30.0,36.0 29.0,35.0 Z" />
	<path style="fill:#89231d;" d="M 35.3333,35.6667 C 35.2778,35.7222 35.2222,36.7778 35.6667,36.3333 35.7222,36.2778 35.7778,35.2222 35.3333,35.6667 Z" />
	<path style="fill:#f28c7e;" d="M 41.0,35.0 L 42.0,36.0 41.0,35.0 Z" />
	<path style="fill:#f9d3cd;" d="M 47.0,35.0 L 48.0,36.0 47.0,35.0 Z" />
	<path style="fill:#c4c4c8;" d="M 7.0,36.0 L 8.0,37.0 7.0,36.0 Z" />
	<path style="fill:#6f6f76;" d="M 13.0,36.0 L 14.0,37.0 13.0,36.0 Z" />
	<path style="fill:#4d4d55;" d="M 30.0,36.0 L 31.0,37.0 30.0,36.0 Z" />
	<path style="fill:#f28c7e;" d="M 47.0,36.0 L 48.0,37.0 47.0,36.0 M 54.0,36.0 L 55.0,37.0 54.0,36.0 Z" />
	<path style="fill:#6f6f76;" d="M 12.0,37.0 L 13.0,38.0 12.0,37.0 M 31.0,37.0 L 32.0,38.0 31.0,37.0 Z" />
	<path style="fill:#f5aea4;" d="M 54.0,37.0 L 55.0,38.0 54.0,37.0 Z" />
	<path style="fill:#6f6f76;" d="M 6.0,38.0 L 7.0,39.0 6.0,38.0 Z" />
	<path style="fill:#4d4d55;" d="M 11.0,38.0 L 12.0,39.0 11.0,38.0 M 32.0,38.0 L 33.0,39.0 32.0,38.0 Z" />
	<path style="fill:#571313;" d="M 34.3333,38.6667 C 34.2778,38.7222 34.2222,39.7778 34.6667,39.3333 34.7222,39.2778 34.7778,38.2222 34.3333,38.6667 Z" />
	<path style="fill:#f28c7e;" d="M 40.0,38.0 L 41.0,39.0 40.0,38.0 Z" />
	<path style="fill:#f5aea4;" d="M 46.0,38.0 L 47.0,39.0 46.0,38.0 Z" />
	<path style="fill:#272730;" d="M 10.0,39.0 L 11.0,40.0 10.0,39.0 Z" />
	<path style="fill:#f9d3cd;" d="M 40.0,39.0 L 41.0,40.0 40.0,39.0 Z" />
	<path style="fill:#ef7161;" d="M 46.0,39.0 L 47.0,40.0 46.0,39.0 Z" />
	<path style="fill:#f28c7e;" d="M 53.0,39.0 L 54.0,40.0 53.0,39.0 Z" />
	<path style="fill:#6f6f76;" d="M 5.0,40.0 L 6.0,41.0 5.0,40.0 Z" />
	<path style="fill:#9a9a9f;" d="M 9.0,41.0 L 10.0,42.0 9.0,41.0 Z" />
	<path style="fill:#f28c7e;" d="M 39.0,41.0 L 40.0,42.0 39.0,41.0 M 45.0,41.0 L 46.0,42.0 45.0,41.0 M 52.0,41.0 L 53.0,42.0 52.0,41.0 Z" />
	<path style="fill:#6f6f76;" d="M 4.0,42.0 L 5.0,43.0 4.0,42.0 Z" />
	<path style="fill:#272730;" d="M 8.0,42.0 L 9.0,43.0 8.0,42.0 Z" />
	<path style="fill:#f5aea4;" d="M 33.0,42.0 L 34.0,43.0 33.0,42.0 Z" />
	<path style="fill:#c4c4c8;" d="M 8.0,43.0 L 9.0,44.0 8.0,43.0 Z" />
	<path style="fill:#f5aea4;" d="M 44.0,43.0 L 45.0,44.0 44.0,43.0 Z" />
	<path style="fill:#f28c7e;" d="M 51.0,43.0 L 52.0,44.0 51.0,43.0 Z" />
	<path style="fill:#9a9a9f;" d="M 3.0,44.0 L 4.0,45.0 3.0,44.0 Z" />
	<path style="fill:#44363c;" d="M 7.0,44.0 L 8.0,45.0 7.0,44.0 Z" />
	<path style="fill:#f5aea4;" d="M 38.0,44.0 L 39.0,45.0 38.0,44.0 Z" />
	<path style="fill:#c4c4c8;" d="M 40.0,44.0 L 41.0,45.0 40.0,44.0 Z" />
	<path style="fill:#4d4d55;" d="M 3.0,45.0 L 4.0,46.0 3.0,45.0 Z" />
	<path style="fill:#c4c4c8;" d="M 7.0,45.0 L 8.0,46.0 7.0,45.0 Z" />
	<path style="fill:#f5aea4;" d="M 32.0,45.0 L 33.0,46.0 32.0,45.0 Z" />
	<path style="fill:#4d4d55;" d="M 39.0,45.0 L 40.0,46.0 39.0,45.0 Z" />
	<path style="fill:#020202;" d="M 40.0,45.0 C 39.1898,47.729 39.0209,50.1505 39.0,53.0 L 40.0,53.0 C 40.6922,50.0713 41.1457,47.8065 40.0,45.0 Z" />
	<path style="fill:#f5aea4;" d="M 43.0,45.0 L 44.0,46.0 43.0,45.0 Z" />
	<path style="fill:#f28c7e;" d="M 50.0,45.0 L 51.0,46.0 50.0,45.0 M 37.0,46.0 L 38.0,47.0 37.0,46.0 Z" />
	<path style="fill:#f9d3cd;" d="M 57.0,46.0 L 58.0,47.0 57.0,46.0 Z" />
	<path style="fill:#9a9a9f;" d="M 2.0,47.0 L 3.0,48.0 2.0,47.0 M 6.0,47.0 L 7.0,48.0 6.0,47.0 M 10.0,47.0 L 11.0,50.0 12.0,50.0 12.0,47.0 10.0,47.0 Z" />
	<path style="fill:#6f6f76;" d="M 13.6667,47.3333 C 13.2222,47.7778 14.2778,47.7222 14.3333,47.6667 14.7778,47.2222 13.7222,47.2778 13.6667,47.3333 Z" />
	<path style="fill:#85797d;" d="M 18.0,47.0 L 19.0,48.0 18.0,47.0 Z" />
	<path style="fill:#f9d3cd;" d="M 19.0,47.0 L 19.0,50.0 20.0,50.0 C 19.7488,48.5484 19.6848,48.2484 19.0,47.0 Z" />
	<path style="fill:#6f6f76;" d="M 21.6667,47.3333 C 21.2222,47.7778 22.2778,47.7222 22.3333,47.6667 22.7778,47.2222 21.7222,47.2778 21.6667,47.3333 Z" />
	<path style="fill:#c4c4c8;" d="M 38.0,47.0 L 39.0,48.0 38.0,47.0 M 41.0,47.0 L 42.0,48.0 41.0,47.0 Z" />
	<path style="fill:#f28c7e;" d="M 49.0,47.0 L 50.0,48.0 49.0,47.0 Z" />
	<path style="fill:#f5aea4;" d="M 56.0,47.0 L 57.0,48.0 56.0,47.0 Z" />
	<path style="fill:#ef7161;" d="M 57.0,47.0 C 56.6343,50.3257 56.9741,53.643 57.0,57.0 L 58.0,57.0 C 57.9996,53.5856 58.3274,50.1633 57.0,47.0 Z" />
	<path style="fill:#4d4d55;" d="M 2.0,48.0 L 3.0,49.0 2.0,48.0 M 9.0,48.0 L 10.0,49.0 9.0,48.0 Z" />
	<path style="fill:#020202;" d="M 10.0,48.0 C 9.7618,50.0947 9.8159,51.8893 10.0,54.0 L 11.0,54.0 C 10.9528,51.7472 10.8742,50.0521 10.0,48.0 M 13.0,48.0 L 13.0,49.0 13.0,50.0 C 14.8968,49.3677 14.2196,49.2196 15.0,50.0 14.4549,51.6352 14.6352,51.4549 13.0,52.0 L 13.0,53.0 C 13.5813,54.7921 13.4567,55.0633 13.0,57.0 16.0277,54.0323 16.8856,50.5218 13.0,48.0 Z" />
	<path style="fill:#4d4d55;" d="M 15.0,48.0 L 16.0,49.0 15.0,48.0 Z" />
	<path style="fill:#c4c4c8;" d="M 16.0,48.0 L 17.0,49.0 16.0,48.0 Z" />
	<path style="fill:#020202;" d="M 17.0,48.0 L 18.0,54.0 19.0,54.0 C 18.923,51.3549 19.0034,49.734 17.0,48.0 Z" />
	<path style="fill:#9a9a9f;" d="M 20.0,48.0 L 21.0,49.0 20.0,48.0 Z" />
	<path style="fill:#020202;" d="M 21.0,48.0 C 20.3536,50.4578 20.3536,51.5422 21.0,54.0 L 23.0,54.0 C 23.6464,51.5422 23.6464,50.4578 23.0,48.0 L 21.0,48.0 Z" />
	<path style="fill:#44363c;" d="M 23.0,48.0 L 24.0,49.0 23.0,48.0 Z" />
	<path style="fill:#f28c7e;" d="M 31.0,48.0 L 32.0,49.0 31.0,48.0 Z" />
	<path style="fill:#ef7161;" d="M 36.0,48.0 L 37.0,49.0 36.0,48.0 Z" />
	<path style="fill:#272730;" d="M 38.3333,48.6667 C 38.2778,48.7222 38.2222,49.7778 38.6667,49.3333 38.7222,49.2778 38.7778,48.2222 38.3333,48.6667 Z" />
	<path style="fill:#6f6f76;" d="M 41.0,48.0 L 42.0,49.0 41.0,48.0 Z" />
	<path style="fill:#f28c7e;" d="M 42.0,48.0 L 43.0,49.0 42.0,48.0 Z" />
	<path style="fill:#272730;" d="M 5.0,49.0 L 6.0,50.0 5.0,49.0 Z" />
	<path style="fill:#4d4d55;" d="M 12.0,49.0 L 13.0,50.0 12.0,49.0 M 14.0,49.0 L 15.0,50.0 14.0,49.0 Z" />
	<path style="fill:#9a9a9f;" d="M 16.0,49.0 L 16.0,52.0 18.0,51.0 18.0,50.0 16.0,49.0 Z" />
	<path style="fill:#4d4d55;" d="M 21.6667,49.3333 C 21.2222,49.7778 22.2778,49.7222 22.3333,49.6667 22.7778,49.2222 21.7222,49.2778 21.6667,49.3333 Z" />
	<path style="fill:#c4c4c8;" d="M 24.0,49.0 L 25.0,50.0 24.0,49.0 Z" />
	<path style="fill:#f5aea4;" d="M 36.0,49.0 L 37.0,50.0 36.0,49.0 Z" />
	<path style="fill:#571313;" d="M 41.0,49.0 L 42.0,50.0 41.0,49.0 Z" />
	<path style="fill:#f28c7e;" d="M 48.0,49.0 L 49.0,50.0 48.0,49.0 Z" />
	<path style="fill:#f9d3cd;" d="M 55.0,49.0 L 56.0,50.0 55.0,49.0 Z" />
	<path style="fill:#6f6f76;" d="M 5.0,50.0 L 6.0,51.0 5.0,50.0 Z" />
	<path style="fill:#c4c4c8;" d="M 9.0,50.0 L 10.0,51.0 9.0,50.0 Z" />
	<path style="fill:#6f6f76;" d="M 11.3333,50.6667 C 11.2778,50.7222 11.2222,51.7778 11.6667,51.3333 11.7222,51.2778 11.7778,50.2222 11.3333,50.6667 Z" />
	<path style="fill:#272730;" d="M 12.0,50.0 L 12.0,52.0 14.0,52.0 C 13.4549,50.3648 13.6352,50.5451 12.0,50.0 Z" />
	<path style="fill:#85797d;" d="M 13.0,50.0 L 14.0,51.0 13.0,50.0 Z" />
	<path style="fill:#ffffff;" d="M 14.0,50.0 L 15.0,51.0 14.0,50.0 Z" />
	<path style="fill:#6f6f76;" d="M 19.3333,50.6667 C 19.2778,50.7222 19.2222,51.7778 19.6667,51.3333 19.7222,51.2778 19.7778,50.2222 19.3333,50.6667 Z" />
	<path style="fill:#ffffff;" d="M 21.0,50.0 L 21.0,52.0 23.0,52.0 23.0,50.0 21.0,50.0 Z" />
	<path style="fill:#85797d;" d="M 24.3333,50.6667 C 24.2778,50.7222 24.2222,51.7778 24.6667,51.3333 24.7222,51.2778 24.7778,50.2222 24.3333,50.6667 Z" />
	<path style="fill:#f9d3cd;" d="M 30.0,50.0 L 31.0,51.0 30.0,50.0 Z" />
	<path style="fill:#6f6f76;" d="M 38.0,50.0 L 39.0,51.0 38.0,50.0 Z" />
	<path style="fill:#ef7161;" d="M 55.0,50.0 L 56.0,51.0 55.0,50.0 Z" />
	<path style="fill:#85797d;" d="M 1.3333,51.6667 C 1.2778,51.7222 1.2222,52.7778 1.6667,52.3333 1.7222,52.2778 1.7778,51.2222 1.3333,51.6667 Z" />
	<path style="fill:#c4c4c8;" d="M 5.0,51.0 L 6.0,52.0 5.0,51.0 Z" />
	<path style="fill:#9a9a9f;" d="M 14.0,51.0 L 15.0,52.0 14.0,51.0 Z" />
	<path style="fill:#f28c7e;" d="M 30.0,51.0 L 31.0,52.0 30.0,51.0 M 35.0,51.0 L 36.0,52.0 35.0,51.0 Z" />
	<path style="fill:#c4c4c8;" d="M 38.0,51.0 L 39.0,52.0 38.0,51.0 Z" />
	<path style="fill:#571313;" d="M 40.0,51.0 L 41.0,52.0 40.0,51.0 Z" />
	<path style="fill:#f5aea4;" d="M 47.0,51.0 L 48.0,52.0 47.0,51.0 M 54.0,51.0 L 55.0,52.0 54.0,51.0 M 72.0,51.0 L 73.0,52.0 72.0,51.0 Z" />
	<path style="fill:#e94736;" d="M 91.0,74.0 L 91.0,70.0 76.0,70.0 76.0,55.0 91.0,55.0 91.0,51.0 C 86.6371,51.0 77.1613,49.2099 73.6034,52.0278 70.6095,54.399 70.6095,70.601 73.6034,72.9722 77.1613,75.7901 86.6371,74.0 91.0,74.0 Z" />
	<path style="fill:#f28c7e;" d="M 91.0,51.0 L 91.0,55.0 92.0,55.0 C 91.8259,53.3148 91.683,52.5061 91.0,51.0 Z" />
	<path style="fill:#f5aea4;" d="M 99.0,51.0 L 99.0,74.0 100.0,74.0 C 100.0,67.0322 101.704,57.4448 99.0,51.0 Z" />
	<path style="fill:#e94736;" d="M 100.0,51.0 L 100.0,74.0 119.0,74.0 119.0,51.0 100.0,51.0 Z" />
	<path style="fill:#ef7161;" d="M 128.0,51.0 L 129.0,52.0 128.0,51.0 Z" />
	<path style="fill:#e94736;" d="M 128.0,74.0 L 147.0,74.0 147.0,51.0 C 142.637,51.0 133.161,49.2099 129.603,52.0278 125.632,55.1731 128.0,69.2824 128.0,74.0 Z" />
	<path style="fill:#f9d3cd;" d="M 154.0,51.0 C 154.0,55.8603 151.532,70.7475 155.603,73.9722 159.308,76.9066 169.443,75.0 174.0,75.0 L 174.0,74.0 155.0,74.0 C 155.0,67.0322 156.704,57.4449 154.0,51.0 Z" />
	<path style="fill:#e94736;" d="M 155.0,51.0 L 155.0,74.0 174.0,74.0 174.0,61.0 159.0,61.0 159.0,55.0 174.0,55.0 174.0,51.0 155.0,51.0 Z" />
	<path style="fill:#f28c7e;" d="M 174.0,51.0 L 174.0,55.0 175.0,55.0 C 174.826,53.3148 174.683,52.506 174.0,51.0 Z" />
	<path style="fill:#e94736;" d="M 182.0,51.0 L 182.0,74.0 C 186.363,74.0 195.839,75.7902 199.397,72.9722 202.39,70.601 202.39,54.399 199.397,52.0278 195.839,49.2099 186.363,51.0 182.0,51.0 Z" />
	<path style="fill:#f28c7e;" d="M 200.0,51.0 L 201.0,52.0 200.0,51.0 Z" />
	<path style="fill:#e94736;" d="M 210.0,51.0 C 210.0,59.4653 208.191,65.9981 207.0,74.0 L 231.0,74.0 C 229.962,66.1541 229.0,59.073 229.0,51.0 L 210.0,51.0 Z" />
	<path style="fill:#f9d3cd;" d="M 229.0,51.0 L 229.0,69.0 230.0,69.0 C 230.0,63.3677 231.191,56.2224 229.0,51.0 Z" />
	<path style="fill:#f28c7e;" d="M 237.0,51.0 L 237.0,55.0 238.0,55.0 C 237.826,53.3148 237.683,52.506 237.0,51.0 Z" />
	<path style="fill:#e94736;" d="M 238.0,51.0 L 238.0,55.0 253.0,55.0 253.0,61.0 238.0,61.0 238.0,74.0 257.0,74.0 C 257.0,69.2824 259.368,55.1731 255.397,52.0278 251.839,49.2098 242.363,51.0 238.0,51.0 Z" />
	<path style="fill:#f28c7e;" d="M 256.0,51.0 L 257.0,52.0 256.0,51.0 Z" />
	<path style="fill:#9a9a9f;" d="M 11.6667,52.3333 C 11.2222,52.7778 12.2778,52.7222 12.3333,52.6667 12.7778,52.2222 11.7222,52.2778 11.6667,52.3333 Z" />
	<path style="fill:#f9d3cd;" d="M 19.3333,52.6667 C 19.2778,52.7222 19.2222,53.7778 19.6667,53.3333 19.7222,53.2778 19.7778,52.2222 19.3333,52.6667 Z" />
	<path style="fill:#6f6f76;" d="M 21.6667,52.3333 C 21.2222,52.7778 22.2778,52.7222 22.3333,52.6667 22.7778,52.2222 21.7222,52.2778 21.6667,52.3333 Z" />
	<path style="fill:#c4c4c8;" d="M 24.0,52.0 L 25.0,53.0 24.0,52.0 Z" />
	<path style="fill:#f5aea4;" d="M 119.0,52.0 L 119.0,61.0 120.0,61.0 C 119.998,57.8741 120.213,54.8897 119.0,52.0 Z" />
	<path style="fill:#f9d3cd;" d="M 127.0,52.0 L 127.0,73.0 128.0,73.0 C 128.0,66.5639 129.5,57.959 127.0,52.0 Z" />
	<path style="fill:#f5aea4;" d="M 147.0,52.0 L 147.0,73.0 148.0,73.0 C 148.0,66.5639 149.5,57.959 147.0,52.0 Z" />
	<path style="fill:#f28c7e;" d="M 181.0,52.0 L 181.0,73.0 182.0,73.0 C 182.0,66.5639 183.5,57.959 181.0,52.0 Z" />
	<path style="fill:#f9d3cd;" d="M 201.0,52.0 L 201.0,73.0 202.0,73.0 C 202.0,66.5639 203.5,57.959 201.0,52.0 Z" />
	<path style="fill:#f5aea4;" d="M 209.0,52.0 L 209.0,69.0 210.0,69.0 C 210.0,63.638 211.087,56.9741 209.0,52.0 Z" />
	<path style="fill:#f9d3cd;" d="M 257.0,52.0 L 257.0,74.0 258.0,74.0 C 258.0,67.2977 259.603,58.2023 257.0,52.0 Z" />
	<path style="fill:#272730;" d="M 1.0,53.0 L 1.0,56.0 2.0,56.0 C 1.7488,54.5484 1.6848,54.2484 1.0,53.0 M 4.0,53.0 L 5.0,54.0 4.0,53.0 Z" />
	<path style="fill:#4d4d55;" d="M 11.0,53.0 L 12.0,54.0 11.0,53.0 Z" />
	<path style="fill:#ffffff;" d="M 12.0,53.0 L 12.0,55.0 14.0,55.0 C 13.4549,53.3648 13.6352,53.5451 12.0,53.0 Z" />
	<path style="fill:#6f6f76;" d="M 13.0,53.0 L 14.0,54.0 13.0,53.0 Z" />
	<path style="fill:#4d4d55;" d="M 14.3333,53.6667 C 14.2778,53.7222 14.2222,54.7778 14.6667,54.3333 14.7222,54.2778 14.7778,53.2222 14.3333,53.6667 Z" />
	<path style="fill:#9a9a9f;" d="M 20.0,53.0 L 21.0,54.0 20.0,53.0 Z" />
	<path style="fill:#272730;" d="M 23.0,53.0 L 24.0,54.0 23.0,53.0 Z" />
	<path style="fill:#f28c7e;" d="M 29.0,53.0 L 30.0,54.0 29.0,53.0 M 34.0,53.0 L 35.0,54.0 34.0,53.0 Z" />
	<path style="fill:#85797d;" d="M 39.0,53.0 L 40.0,54.0 39.0,53.0 Z" />
	<path style="fill:#f9d3cd;" d="M 46.0,53.0 L 47.0,54.0 46.0,53.0 Z" />
	<path style="fill:#f28c7e;" d="M 53.0,53.0 L 54.0,54.0 53.0,53.0 Z" />
	<path style="fill:#f9d3cd;" d="M 71.0,53.0 L 71.0,73.0 72.0,73.0 C 72.0,66.8308 73.398,58.7147 71.0,53.0 Z" />
	<path style="fill:#9a9a9f;" d="M 4.0,54.0 L 4.0,57.0 5.0,57.0 C 4.7488,55.5484 4.6848,55.2484 4.0,54.0 M 10.6667,54.3333 C 10.2222,54.7778 11.2778,54.7222 11.3333,54.6667 11.7778,54.2222 10.7222,54.2778 10.6667,54.3333 Z" />
	<path style="fill:#6f6f76;" d="M 18.0,54.0 L 19.0,55.0 18.0,54.0 Z" />
	<path style="fill:#4d4d55;" d="M 21.6667,54.3333 C 21.2222,54.7778 22.2778,54.7222 22.3333,54.6667 22.7778,54.2222 21.7222,54.2778 21.6667,54.3333 Z" />
	<path style="fill:#ef7161;" d="M 45.0,54.0 L 46.0,55.0 45.0,54.0 Z" />
	<path style="fill:#f9d3cd;" d="M 12.3333,55.6667 C 12.2778,55.7222 12.2222,56.7778 12.6667,56.3333 12.7222,56.2778 12.7778,55.2222 12.3333,55.6667 Z" />
	<path style="fill:#4d4d55;" d="M 13.0,55.0 L 14.0,56.0 13.0,55.0 Z" />
	<path style="fill:#6f6f76;" d="M 15.0,55.0 L 16.0,56.0 15.0,55.0 Z" />
	<path style="fill:#f5aea4;" d="M 28.0,55.0 L 29.0,56.0 28.0,55.0 Z" />
	<path style="fill:#f28c7e;" d="M 33.0,55.0 L 34.0,56.0 33.0,55.0 M 38.0,55.0 L 39.0,56.0 38.0,55.0 Z" />
	<path style="fill:#ef7161;" d="M 76.0,55.0 L 76.0,56.0 91.0,56.0 C 86.5286,54.1237 80.8166,55.0 76.0,55.0 M 115.0,61.0 L 115.0,60.0 104.0,60.0 104.0,56.0 115.0,56.0 C 112.524,54.961 99.016,55.3885 104.623,59.9769 107.007,61.9285 112.12,61.0 115.0,61.0 M 132.0,55.0 L 132.0,56.0 143.0,56.0 143.0,69.0 C 147.506,58.2624 141.491,55.0 132.0,55.0 M 159.0,55.0 L 159.0,56.0 174.0,56.0 C 169.529,54.1237 163.817,55.0 159.0,55.0 M 186.0,55.0 L 186.0,56.0 197.0,56.0 C 193.568,54.5597 189.7,55.0 186.0,55.0 M 214.0,55.0 L 214.0,56.0 225.0,56.0 C 221.568,54.5597 217.7,55.0 214.0,55.0 M 238.0,55.0 L 238.0,56.0 253.0,56.0 C 248.529,54.1237 242.817,55.0 238.0,55.0 Z" />
	<path style="fill:#272730;" d="M 14.0,56.0 L 15.0,57.0 14.0,56.0 Z" />
	<path style="fill:#ef7161;" d="M 28.0,56.0 L 29.0,57.0 28.0,56.0 Z" />
	<path style="fill:#f5aea4;" d="M 44.0,56.0 L 45.0,57.0 44.0,56.0 Z" />
	<path style="fill:#f28c7e;" d="M 51.0,56.0 L 52.0,57.0 51.0,56.0 Z" />
	<path style="fill:#f9d3cd;" d="M 76.0,56.0 L 76.0,69.0 77.0,69.0 C 77.0,64.7366 77.6611,59.9587 76.0,56.0 Z" />
	<path style="fill:#ffffff;" d="M 104.0,56.0 L 104.0,60.0 115.0,60.0 115.0,56.0 104.0,56.0 M 132.0,56.0 L 132.0,69.0 143.0,69.0 143.0,56.0 132.0,56.0 Z" />
	<path style="fill:#f28c7e;" d="M 185.0,56.0 C 185.0,67.0922 185.308,70.0 197.0,70.0 L 197.0,69.0 186.0,69.0 C 186.0,64.7366 186.661,59.9587 185.0,56.0 Z" />
	<path style="fill:#ffffff;" d="M 186.0,56.0 L 186.0,69.0 196.0,69.0 196.0,56.0 186.0,56.0 Z" />
	<path style="fill:#f9d3cd;" d="M 196.0,56.0 L 196.0,69.0 197.0,69.0 C 197.0,64.7366 197.661,59.9587 196.0,56.0 Z" />
	<path style="fill:#ffffff;" d="M 214.0,56.0 L 214.0,69.0 225.0,69.0 225.0,56.0 214.0,56.0 Z" />
	<path style="fill:#9a9a9f;" d="M 0.0,57.0 L 0.0,68.0 1.0,68.0 C 1.0,64.2998 1.4403,60.4324 0.0,57.0 Z" />
	<path style="fill:#c4c4c8;" d="M 13.0,57.0 L 14.0,58.0 13.0,57.0 Z" />
	<path style="fill:#f28c7e;" d="M 32.0,57.0 L 33.0,58.0 32.0,57.0 Z" />
	<path style="fill:#ef7161;" d="M 37.0,57.0 L 38.0,58.0 37.0,57.0 Z" />
	<path style="fill:#f9d3cd;" d="M 57.3333,57.6667 C 57.2778,57.7222 57.2222,58.7778 57.6667,58.3333 57.7222,58.2778 57.7778,57.2222 57.3333,57.6667 Z" />
	<path style="fill:#ef7161;" d="M 213.0,57.0 L 213.0,69.0 214.0,69.0 C 214.0,65.0168 214.552,60.6975 213.0,57.0 M 27.0,58.0 L 28.0,59.0 27.0,58.0 Z" />
	<path style="fill:#f5aea4;" d="M 36.0,58.0 L 37.0,59.0 36.0,58.0 Z" />
	<path style="fill:#272730;" d="M 3.0,59.0 L 3.0,65.0 4.0,65.0 C 3.9528,62.7472 3.8742,61.0521 3.0,59.0 Z" />
	<path style="fill:#f28c7e;" d="M 31.0,59.0 L 32.0,60.0 31.0,59.0 M 42.0,59.0 L 43.0,60.0 42.0,59.0 Z" />
	<path style="fill:#ef7161;" d="M 49.0,59.0 L 50.0,60.0 49.0,59.0 M 56.0,59.0 L 57.0,60.0 56.0,59.0 Z" />
	<path style="fill:#f28c7e;" d="M 26.0,60.0 L 27.0,61.0 26.0,60.0 Z" />
	<path style="fill:#ef7161;" d="M 35.0,60.0 L 36.0,61.0 35.0,60.0 Z" />
	<path style="fill:#f5aea4;" d="M 48.0,60.0 L 49.0,61.0 48.0,60.0 Z" />
	<path style="fill:#f28c7e;" d="M 56.0,60.0 L 57.0,61.0 56.0,60.0 Z" />
	<path style="fill:#ef7161;" d="M 159.0,60.0 L 159.0,61.0 174.0,61.0 C 169.529,59.1237 163.817,60.0 159.0,60.0 M 238.0,60.0 L 238.0,61.0 253.0,61.0 C 248.529,59.1237 242.817,60.0 238.0,60.0 Z" />
	<path style="fill:#f28c7e;" d="M 30.0,61.0 L 31.0,62.0 30.0,61.0 Z" />
	<path style="fill:#f5aea4;" d="M 34.0,61.0 L 35.0,62.0 34.0,61.0 Z" />
	<path style="fill:#c4c4c8;" d="M 42.0,61.0 L 43.0,62.0 42.0,61.0 Z" />
	<path style="fill:#6f6f76;" d="M 43.3333,61.6667 C 43.2778,61.7222 43.2222,62.7778 43.6667,62.3333 43.7222,62.2778 43.7778,61.2222 43.3333,61.6667 Z" />
	<path style="fill:#f28c7e;" d="M 174.0,61.0 L 174.0,73.0 175.0,73.0 C 175.0,69.0168 175.552,64.6975 174.0,61.0 M 237.0,61.0 L 237.0,73.0 238.0,73.0 C 238.0,69.0168 238.552,64.6975 237.0,61.0 M 25.0,62.0 L 26.0,63.0 25.0,62.0 Z" />
	<path style="fill:#f9d3cd;" d="M 40.0,62.0 L 41.0,63.0 40.0,62.0 Z" />
	<path style="fill:#020202;" d="M 42.0,62.0 C 40.9729,64.3983 40.322,66.4158 40.0,69.0 42.302,66.7486 43.1686,65.1027 42.0,62.0 Z" />
	<path style="fill:#f28c7e;" d="M 55.0,62.0 L 56.0,63.0 55.0,62.0 Z" />
	<path style="fill:#f5aea4;" d="M 118.0,62.0 L 119.0,63.0 118.0,62.0 Z" />
	<path style="fill:#f9d3cd;" d="M 29.0,63.0 L 30.0,64.0 29.0,63.0 Z" />
	<path style="fill:#f5aea4;" d="M 39.0,63.0 L 40.0,64.0 39.0,63.0 Z" />
	<path style="fill:#4d4d55;" d="M 41.0,63.0 L 42.0,64.0 41.0,63.0 Z" />
	<path style="fill:#9a9a9f;" d="M 43.0,63.0 L 43.0,66.0 44.0,66.0 C 43.7488,64.5484 43.6848,64.2484 43.0,63.0 Z" />
	<path style="fill:#ef7161;" d="M 24.0,64.0 L 25.0,65.0 24.0,64.0 M 28.0,64.0 L 29.0,65.0 28.0,64.0 Z" />
	<path style="fill:#f28c7e;" d="M 32.0,64.0 L 33.0,65.0 32.0,64.0 Z" />
	<path style="fill:#85797d;" d="M 40.0,64.0 L 41.0,65.0 40.0,64.0 Z" />
	<path style="fill:#f28c7e;" d="M 45.0,64.0 L 46.0,65.0 45.0,64.0 Z" />
	<path style="fill:#f5aea4;" d="M 119.0,64.0 L 119.0,73.0 120.0,73.0 C 119.998,69.8741 120.213,66.8897 119.0,64.0 M 31.0,65.0 L 32.0,66.0 31.0,65.0 Z" />
	<path style="fill:#f9d3cd;" d="M 44.0,65.0 L 45.0,66.0 44.0,65.0 Z" />
	<path style="fill:#ef7161;" d="M 103.0,65.0 L 103.0,69.0 104.0,69.0 C 103.826,67.3148 103.683,66.5061 103.0,65.0 Z" />
	<path style="fill:#ffffff;" d="M 104.0,65.0 L 104.0,69.0 115.0,69.0 115.0,65.0 104.0,65.0 Z" />
	<path style="fill:#ef7161;" d="M 115.0,65.0 L 115.0,68.0 116.0,68.0 C 115.749,66.5484 115.685,66.2483 115.0,65.0 Z" />
	<path style="fill:#ffffff;" d="M 159.0,65.0 L 159.0,69.0 170.0,69.0 170.0,65.0 159.0,65.0 Z" />
	<path style="fill:#f28c7e;" d="M 170.0,65.0 L 170.0,69.0 171.0,69.0 C 170.826,67.3148 170.683,66.506 170.0,65.0 Z" />
	<path style="fill:#ffffff;" d="M 242.0,65.0 L 242.0,69.0 253.0,69.0 253.0,65.0 242.0,65.0 Z" />
	<path style="fill:#ef7161;" d="M 23.0,66.0 L 24.0,67.0 23.0,66.0 Z" />
	<path style="fill:#f5aea4;" d="M 27.0,66.0 L 28.0,67.0 27.0,66.0 Z" />
	<path style="fill:#85797d;" d="M 43.0,66.0 L 44.0,67.0 43.0,66.0 Z" />
	<path style="fill:#f9d3cd;" d="M 52.0,66.0 L 53.0,67.0 52.0,66.0 Z" />
	<path style="fill:#f28c7e;" d="M 241.0,66.0 L 241.0,69.0 242.0,69.0 C 241.749,67.5485 241.685,67.2483 241.0,66.0 Z" />
	<path style="fill:#f9d3cd;" d="M 22.0,67.0 L 23.0,68.0 22.0,67.0 M 36.0,67.0 L 37.0,68.0 36.0,67.0 Z" />
	<path style="fill:#c4c4c8;" d="M 39.0,67.0 L 40.0,68.0 39.0,67.0 Z" />
	<path style="fill:#89231d;" d="M 42.0,67.0 L 43.0,68.0 42.0,67.0 Z" />
	<path style="fill:#f9d3cd;" d="M 51.0,67.0 L 52.0,68.0 51.0,67.0 Z" />
	<path style="fill:#9a9a9f;" d="M 4.0,68.0 L 4.0,71.0 5.0,71.0 C 4.7488,69.5484 4.6848,69.2484 4.0,68.0 Z" />
	<path style="fill:#f5aea4;" d="M 35.0,68.0 L 36.0,69.0 35.0,68.0 Z" />
	<path style="fill:#9a9a9f;" d="M 39.0,68.0 L 40.0,69.0 39.0,68.0 Z" />
	<path style="fill:#89231d;" d="M 41.0,68.0 L 42.0,69.0 41.0,68.0 Z" />
	<path style="fill:#f9d3cd;" d="M 50.0,68.0 L 51.0,69.0 50.0,68.0 Z" />
	<path style="fill:#272730;" d="M 1.0,69.0 L 1.0,72.0 2.0,72.0 C 1.7488,70.5484 1.6848,70.2484 1.0,69.0 Z" />
	<path style="fill:#f28c7e;" d="M 21.0,69.0 L 22.0,70.0 21.0,69.0 M 25.0,69.0 L 26.0,70.0 25.0,69.0 Z" />
	<path style="fill:#ef7161;" d="M 28.0,69.0 L 29.0,70.0 28.0,69.0 Z" />
	<path style="fill:#f5aea4;" d="M 34.0,69.0 L 35.0,70.0 34.0,69.0 Z" />
	<path style="fill:#6f6f76;" d="M 39.0,69.0 L 40.0,70.0 39.0,69.0 Z" />
	<path style="fill:#571313;" d="M 40.0,69.0 L 41.0,70.0 40.0,69.0 Z" />
	<path style="fill:#f9d3cd;" d="M 49.0,69.0 L 50.0,70.0 49.0,69.0 Z" />
	<path style="fill:#f28c7e;" d="M 76.0,69.0 L 76.0,70.0 91.0,70.0 C 86.5286,68.1237 80.8166,69.0 76.0,69.0 M 104.0,69.0 L 104.0,70.0 115.0,70.0 C 111.568,68.5597 107.7,69.0 104.0,69.0 M 132.0,69.0 L 132.0,70.0 143.0,70.0 C 139.568,68.5597 135.7,69.0 132.0,69.0 M 159.0,69.0 L 159.0,70.0 170.0,70.0 C 166.568,68.5597 162.7,69.0 159.0,69.0 M 214.0,69.0 L 214.0,70.0 225.0,70.0 C 221.568,68.5597 217.7,69.0 214.0,69.0 Z" />
	<path style="fill:#ef7161;" d="M 229.0,69.0 L 229.0,70.0 C 230.267,71.5431 230.489,72.0478 231.0,74.0 L 232.0,74.0 232.0,69.0 229.0,69.0 Z" />
	<path style="fill:#f28c7e;" d="M 242.0,69.0 L 242.0,70.0 253.0,70.0 C 249.568,68.5597 245.7,69.0 242.0,69.0 M 27.0,70.0 L 28.0,71.0 27.0,70.0 Z" />
	<path style="fill:#f5aea4;" d="M 33.0,70.0 L 34.0,71.0 33.0,70.0 Z" />
	<path style="fill:#ef7161;" d="M 39.0,70.0 L 40.0,71.0 39.0,70.0 Z" />
	<path style="fill:#f28c7e;" d="M 91.0,70.0 L 91.0,74.0 92.0,74.0 C 91.8259,72.3148 91.683,71.5061 91.0,70.0 Z" />
	<path style="fill:#4d4d55;" d="M 4.0,71.0 L 5.0,72.0 4.0,71.0 Z" />
	<path style="fill:#ef7161;" d="M 20.0,71.0 L 21.0,72.0 20.0,71.0 Z" />
	<path style="fill:#f28c7e;" d="M 26.0,71.0 L 27.0,72.0 26.0,71.0 Z" />
	<path style="fill:#f5aea4;" d="M 32.0,71.0 L 33.0,72.0 32.0,71.0 Z" />
	<path style="fill:#ef7161;" d="M 38.0,71.0 L 39.0,72.0 38.0,71.0 Z" />
	<path style="fill:#9a9a9f;" d="M 1.3333,72.6667 C 1.2778,72.7222 1.2222,73.7778 1.6667,73.3333 1.7222,73.2778 1.7778,72.2222 1.3333,72.6667 Z" />
	<path style="fill:#f5aea4;" d="M 19.0,72.0 L 20.0,73.0 19.0,72.0 M 23.0,72.0 L 24.0,73.0 23.0,72.0 M 25.0,72.0 L 26.0,73.0 25.0,72.0 M 31.0,72.0 L 32.0,73.0 31.0,72.0 Z" />
	<path style="fill:#c4c4c8;" d="M 5.0,73.0 L 6.0,74.0 5.0,73.0 Z" />
	<path style="fill:#f28c7e;" d="M 22.0,73.0 L 23.0,74.0 22.0,73.0 Z" />
	<path style="fill:#f5aea4;" d="M 24.0,73.0 L 25.0,74.0 24.0,73.0 M 30.0,73.0 L 31.0,74.0 30.0,73.0 M 35.0,73.0 L 36.0,74.0 35.0,73.0 Z" />
	<path style="fill:#f28c7e;" d="M 44.0,73.0 L 45.0,74.0 44.0,73.0 M 72.0,73.0 L 73.0,74.0 72.0,73.0 M 200.0,73.0 L 201.0,74.0 200.0,73.0 Z" />
	<path style="fill:#c4c4c8;" d="M 1.0,74.0 L 2.0,75.0 1.0,74.0 Z" />
	<path style="fill:#85797d;" d="M 5.0,74.0 L 6.0,75.0 5.0,74.0 Z" />
	<path style="fill:#f28c7e;" d="M 18.0,74.0 L 19.0,75.0 18.0,74.0 Z" />
	<path style="fill:#f5aea4;" d="M 23.0,74.0 L 24.0,75.0 23.0,74.0 Z" />
	<path style="fill:#f9d3cd;" d="M 29.0,74.0 L 30.0,75.0 29.0,74.0 Z" />
	<path style="fill:#f28c7e;" d="M 34.0,74.0 L 35.0,75.0 34.0,74.0 Z" />
	<path style="fill:#f9d3cd;" d="M 43.0,74.0 L 44.0,75.0 43.0,74.0 M 73.0,74.0 L 73.0,75.0 92.0,75.0 C 86.5308,72.705 78.9013,74.0 73.0,74.0 M 100.0,74.0 L 100.0,75.0 118.0,75.0 C 112.778,72.8086 105.632,74.0 100.0,74.0 M 129.0,74.0 L 129.0,75.0 147.0,75.0 C 141.778,72.8086 134.632,74.0 129.0,74.0 M 182.0,74.0 L 182.0,75.0 200.0,75.0 C 194.778,72.8086 187.632,74.0 182.0,74.0 M 207.0,74.0 L 207.0,75.0 232.0,75.0 C 225.072,72.0929 214.497,74.0 207.0,74.0 M 239.0,74.0 L 239.0,75.0 257.0,75.0 C 251.778,72.8086 244.632,74.0 239.0,74.0 Z" />
	<path style="fill:#4d4d55;" d="M 5.0,75.0 L 6.0,76.0 5.0,75.0 Z" />
	<path style="fill:#f5aea4;" d="M 17.0,75.0 L 18.0,76.0 17.0,75.0 Z" />
	<path style="fill:#f9d3cd;" d="M 22.0,75.0 L 23.0,76.0 22.0,75.0 M 32.0,75.0 L 33.0,76.0 32.0,75.0 Z" />
	<path style="fill:#44363c;" d="M 2.0,76.0 L 3.0,77.0 2.0,76.0 Z" />
	<path style="fill:#f9d3cd;" d="M 18.0,80.0 C 19.7525,78.6697 20.6697,77.7525 22.0,76.0 19.7511,77.1535 19.1536,77.7511 18.0,80.0 Z" />
	<path style="fill:#f28c7e;" d="M 31.0,76.0 L 32.0,77.0 31.0,76.0 Z" />
	<path style="fill:#f5aea4;" d="M 40.0,76.0 L 41.0,77.0 40.0,76.0 Z" />
	<path style="fill:#9a9a9f;" d="M 2.0,77.0 L 3.0,78.0 2.0,77.0 M 6.0,77.0 L 7.0,78.0 6.0,77.0 Z" />
	<path style="fill:#ef7161;" d="M 16.0,77.0 L 17.0,78.0 16.0,77.0 Z" />
	<path style="fill:#f28c7e;" d="M 25.0,77.0 L 26.0,78.0 25.0,77.0 Z" />
	<path style="fill:#f5aea4;" d="M 29.0,77.0 L 30.0,78.0 29.0,77.0 Z" />
	<path style="fill:#f28c7e;" d="M 38.0,77.0 L 39.0,78.0 38.0,77.0 Z" />
	<path style="fill:#44363c;" d="M 6.0,78.0 L 7.0,79.0 6.0,78.0 Z" />
	<path style="fill:#f28c7e;" d="M 15.0,78.0 L 16.0,79.0 15.0,78.0 Z" />
	<path style="fill:#f5aea4;" d="M 24.0,78.0 L 25.0,79.0 24.0,78.0 Z" />
	<path style="fill:#ef7161;" d="M 28.0,78.0 L 29.0,79.0 28.0,78.0 M 36.0,78.0 L 37.0,79.0 36.0,78.0 Z" />
	<path style="fill:#f9d3cd;" d="M 37.0,78.0 L 38.0,79.0 37.0,78.0 Z" />
	<path style="fill:#44363c;" d="M 3.0,79.0 L 4.0,80.0 3.0,79.0 Z" />
	<path style="fill:#ef7161;" d="M 15.0,79.0 L 15.0,82.0 16.0,82.0 C 15.7488,80.5484 15.6848,80.2484 15.0,79.0 Z" />
	<path style="fill:#f28c7e;" d="M 26.0,79.0 L 27.0,80.0 26.0,79.0 Z" />
	<path style="fill:#ef7161;" d="M 34.0,79.0 L 35.0,80.0 34.0,79.0 Z" />
	<path style="fill:#f5aea4;" d="M 35.0,79.0 L 36.0,80.0 35.0,79.0 Z" />
	<path style="fill:#c4c4c8;" d="M 40.0,79.0 L 41.0,80.0 40.0,79.0 Z" />
	<path style="fill:#9a9a9f;" d="M 3.0,80.0 L 4.0,81.0 3.0,80.0 Z" />
	<path style="fill:#4d4d55;" d="M 7.0,80.0 L 8.0,81.0 7.0,80.0 Z" />
	<path style="fill:#f5aea4;" d="M 21.0,80.0 L 22.0,81.0 21.0,80.0 Z" />
	<path style="fill:#f28c7e;" d="M 24.0,80.0 L 25.0,81.0 24.0,80.0 Z" />
	<path style="fill:#ef7161;" d="M 32.0,80.0 L 33.0,81.0 32.0,80.0 Z" />
	<path style="fill:#f5aea4;" d="M 33.0,80.0 L 34.0,81.0 33.0,80.0 Z" />
	<path style="fill:#9a9a9f;" d="M 38.0,80.0 L 39.0,81.0 38.0,80.0 Z" />
	<path style="fill:#6f6f76;" d="M 40.0,80.0 L 41.0,81.0 40.0,80.0 Z" />
	<path style="fill:#f28c7e;" d="M 18.0,82.0 L 18.0,83.0 21.0,83.0 C 19.5587,81.9205 19.8318,82.0313 18.0,82.0 M 22.0,81.0 L 23.0,82.0 22.0,81.0 M 30.0,81.0 L 31.0,82.0 30.0,81.0 Z" />
	<path style="fill:#f9d3cd;" d="M 31.0,81.0 L 32.0,82.0 31.0,81.0 Z" />
	<path style="fill:#9a9a9f;" d="M 36.0,81.0 L 37.0,82.0 36.0,81.0 Z" />
	<path style="fill:#44363c;" d="M 37.0,81.0 L 38.0,82.0 37.0,81.0 Z" />
	<path style="fill:#4d4d55;" d="M 4.0,82.0 L 5.0,83.0 4.0,82.0 M 8.0,82.0 L 9.0,83.0 8.0,82.0 Z" />
	<path style="fill:#f9d3cd;" d="M 15.3333,82.6667 C 15.2778,82.7222 15.2222,83.7778 15.6667,83.3333 15.7222,83.2778 15.7778,82.2222 15.3333,82.6667 M 19.0,82.0 L 20.0,83.0 19.0,82.0 Z" />
	<path style="fill:#f5aea4;" d="M 28.0,82.0 L 29.0,83.0 28.0,82.0 Z" />
	<path style="fill:#4d4d55;" d="M 35.0,82.0 L 36.0,83.0 35.0,82.0 Z" />
	<path style="fill:#6f6f76;" d="M 39.0,82.0 L 40.0,83.0 39.0,82.0 Z" />
	<path style="fill:#c4c4c8;" d="M 4.0,83.0 L 5.0,84.0 4.0,83.0 M 9.0,83.0 L 10.0,84.0 9.0,83.0 Z" />
	<path style="fill:#f28c7e;" d="M 25.0,83.0 L 26.0,84.0 25.0,83.0 Z" />
	<path style="fill:#c4c4c8;" d="M 34.0,83.0 L 35.0,84.0 34.0,83.0 Z" />
	<path style="fill:#4d4d55;" d="M 5.0,84.0 L 6.0,85.0 5.0,84.0 Z" />
	<path style="fill:#f5aea4;" d="M 21.6667,84.3333 C 21.2222,84.7778 22.2778,84.7222 22.3333,84.6667 22.7778,84.2222 21.7222,84.2778 21.6667,84.3333 Z" />
	<path style="fill:#4d4d55;" d="M 38.0,84.0 L 39.0,85.0 38.0,84.0 Z" />
	<path style="fill:#6f6f76;" d="M 10.0,85.0 L 11.0,86.0 10.0,85.0 Z" />
	<path style="fill:#f5aea4;" d="M 16.0,85.0 L 17.0,86.0 16.0,85.0 Z" />
	<path style="fill:#ef7161;" d="M 17.0,85.0 L 18.0,86.0 17.0,85.0 Z" />
	<path style="fill:#f9d3cd;" d="M 18.6667,85.3333 C 18.2222,85.7778 19.2778,85.7222 19.3333,85.6667 19.7778,85.2222 18.7222,85.2778 18.6667,85.3333 Z" />
	<path style="fill:#4d4d55;" d="M 33.0,85.0 L 34.0,86.0 33.0,85.0 M 6.0,86.0 L 7.0,87.0 6.0,86.0 Z" />
	<path style="fill:#9a9a9f;" d="M 11.0,86.0 L 12.0,87.0 11.0,86.0 M 32.0,86.0 L 33.0,87.0 32.0,86.0 Z" />
	<path style="fill:#4d4d55;" d="M 37.0,86.0 L 38.0,87.0 37.0,86.0 Z" />
	<path style="fill:#f9d3cd;" d="M 79.6667,86.3333 C 79.2222,86.7778 80.2778,86.7222 80.3333,86.6667 80.7778,86.2222 79.7222,86.2778 79.6667,86.3333 Z" />
	<path style="fill:#4d4d55;" d="M 165.0,86.0 L 166.0,87.0 165.0,86.0 Z" />
	<path style="fill:#9a9a9f;" d="M 166.0,86.0 L 167.0,87.0 166.0,86.0 Z" />
	<path style="fill:#f9d3cd;" d="M 201.667,86.3333 C 201.222,86.7777 202.278,86.7222 202.333,86.6667 202.778,86.2222 201.722,86.2778 201.667,86.3333 M 218.0,86.0 C 218.545,87.6351 218.365,87.4549 220.0,88.0 L 220.0,86.0 218.0,86.0 Z" />
	<path style="fill:#c4c4c8;" d="M 12.0,87.0 L 13.0,88.0 12.0,87.0 Z" />
	<path style="fill:#9a9a9f;" d="M 31.0,87.0 L 32.0,88.0 31.0,87.0 Z" />
	<path style="fill:#c4c4c8;" d="M 71.0,87.0 L 71.0,98.0 72.0,98.0 C 72.0,94.2998 72.4403,90.4324 71.0,87.0 Z" />
	<path style="fill:#020202;" d="M 72.0,87.0 L 72.0,97.0 73.0,97.0 C 73.0,93.4165 72.2829,91.3207 75.0,92.0 74.2507,89.7463 73.6559,88.6864 72.0,87.0 Z" />
	<path style="fill:#9a9a9f;" d="M 73.0,87.0 L 74.0,88.0 73.0,87.0 Z" />
	<path style="fill:#020202;" d="M 79.0,87.0 L 75.0,95.0 C 77.9892,93.1589 80.2322,90.5565 79.0,87.0 Z" />
	<path style="fill:#4d4d55;" d="M 80.0,87.0 L 80.0,97.0 81.0,97.0 C 80.9996,93.5856 81.3274,90.1633 80.0,87.0 Z" />
	<path style="fill:#020202;" d="M 83.0,87.0 L 83.0,97.0 90.0,97.0 90.0,96.0 C 87.7516,95.838 83.385,94.9249 87.0,93.0 L 87.0,92.0 C 85.5434,90.8966 85.1034,90.4566 84.0,89.0 L 90.0,89.0 90.0,87.0 83.0,87.0 Z" />
	<path style="fill:#f9d3cd;" d="M 91.0,87.0 L 91.0,96.0 92.0,96.0 C 91.9983,92.8741 92.2129,89.8897 91.0,87.0 Z" />
	<path style="fill:#020202;" d="M 92.0,87.0 L 92.0,97.0 99.0,97.0 99.0,92.0 C 96.1571,91.5787 94.988,91.061 93.0,89.0 L 98.0,89.0 98.0,87.0 92.0,87.0 Z" />
	<path style="fill:#44363c;" d="M 98.3333,87.6667 C 98.2778,87.7222 98.2222,88.7778 98.6667,88.3333 98.7222,88.2778 98.7778,87.2222 98.3333,87.6667 Z" />
	<path style="fill:#6f6f76;" d="M 101.0,87.0 L 101.0,97.0 102.0,97.0 C 102.0,93.5856 102.327,90.1633 101.0,87.0 Z" />
	<path style="fill:#020202;" d="M 102.0,87.0 L 102.0,97.0 108.0,97.0 108.0,96.0 103.0,96.0 C 103.824,94.2543 104.598,93.3508 106.0,92.0 L 103.0,89.0 108.0,89.0 108.0,87.0 102.0,87.0 Z" />
	<path style="fill:#9a9a9f;" d="M 108.333,87.6667 C 108.278,87.7222 108.222,88.7778 108.667,88.3333 108.722,88.2778 108.778,87.2222 108.333,87.6667 Z" />
	<path style="fill:#85797d;" d="M 112.0,87.0 L 113.0,88.0 112.0,87.0 Z" />
	<path style="fill:#020202;" d="M 113.0,87.0 C 111.717,90.3315 110.53,93.46 110.0,97.0 L 111.0,97.0 113.0,90.0 C 114.222,92.3007 115.159,94.5332 116.0,97.0 L 117.0,97.0 C 116.43,93.1976 115.427,90.0075 113.0,87.0 Z" />
	<path style="fill:#9a9a9f;" d="M 114.0,87.0 L 115.0,88.0 114.0,87.0 Z" />
	<path style="fill:#020202;" d="M 119.0,87.0 L 119.0,97.0 126.0,97.0 126.0,91.0 120.0,91.0 C 119.826,89.3148 119.683,88.506 119.0,87.0 Z" />
	<path style="fill:#4d4d55;" d="M 120.0,87.0 L 120.0,91.0 121.0,91.0 C 120.826,89.3148 120.683,88.506 120.0,87.0 Z" />
	<path style="fill:#6f6f76;" d="M 128.0,87.0 C 128.0,90.8008 127.919,94.3432 129.0,98.0 L 130.0,98.0 C 129.134,94.3643 129.429,90.4035 128.0,87.0 Z" />
	<path style="fill:#020202;" d="M 129.0,87.0 L 129.0,97.0 130.0,97.0 130.0,93.0 135.0,93.0 135.0,97.0 136.0,97.0 136.0,87.0 135.0,87.0 135.0,91.0 130.0,91.0 C 129.826,89.3148 129.683,88.506 129.0,87.0 Z" />
	<path style="fill:#f9d3cd;" d="M 130.0,87.0 L 130.0,91.0 135.0,91.0 135.0,90.0 C 132.668,89.4338 131.69,88.7044 130.0,87.0 Z" />
	<path style="fill:#4d4d55;" d="M 136.0,87.0 L 136.0,97.0 137.0,97.0 C 137.0,93.5856 137.327,90.1633 136.0,87.0 Z" />
	<path style="fill:#c4c4c8;" d="M 141.0,87.0 L 142.0,88.0 141.0,87.0 Z" />
	<path style="fill:#020202;" d="M 142.0,87.0 L 138.0,97.0 C 141.548,95.684 143.452,95.684 147.0,97.0 145.625,93.4371 144.533,89.8713 142.0,87.0 Z" />
	<path style="fill:#85797d;" d="M 143.0,87.0 L 144.0,88.0 143.0,87.0 Z" />
	<path style="fill:#9a9a9f;" d="M 148.0,87.0 L 149.0,88.0 148.0,87.0 Z" />
	<path style="fill:#020202;" d="M 149.0,97.0 L 154.0,93.0 154.0,97.0 155.0,97.0 155.0,87.0 C 147.499,87.2463 148.884,90.8664 149.0,97.0 Z" />
	<path style="fill:#85797d;" d="M 155.0,87.0 L 155.0,97.0 156.0,97.0 C 156.0,93.5856 156.327,90.1633 155.0,87.0 Z" />
	<path style="fill:#f9d3cd;" d="M 162.0,87.0 L 162.0,88.0 165.0,88.0 C 163.752,87.3152 163.452,87.2512 162.0,87.0 Z" />
	<path style="fill:#020202;" d="M 161.0,88.0 L 161.0,95.0 C 162.952,95.5108 163.457,95.7333 165.0,97.0 L 166.0,97.0 167.0,97.0 C 168.543,95.7333 169.048,95.5108 171.0,95.0 170.771,88.0275 167.319,87.3367 161.0,88.0 Z" />
	<path style="fill:#f9d3cd;" d="M 167.0,87.0 L 167.0,88.0 170.0,88.0 C 168.752,87.3152 168.452,87.2512 167.0,87.0 Z" />
	<path style="fill:#9a9a9f;" d="M 175.0,87.0 L 176.0,88.0 175.0,87.0 Z" />
	<path style="fill:#020202;" d="M 176.0,87.0 L 172.0,97.0 C 175.548,95.684 177.452,95.684 181.0,97.0 179.759,93.3342 178.601,89.89 176.0,87.0 Z" />
	<path style="fill:#85797d;" d="M 177.0,87.0 L 178.0,88.0 177.0,87.0 Z" />
	<path style="fill:#4d4d55;" d="M 182.0,87.0 L 182.0,97.0 183.0,97.0 C 183.0,93.5856 183.327,90.1633 182.0,87.0 Z" />
	<path style="fill:#020202;" d="M 183.0,87.0 L 183.0,97.0 C 185.645,96.923 187.266,97.0034 189.0,95.0 L 184.0,96.0 184.0,93.0 189.0,94.0 C 187.46,92.1969 186.402,92.168 184.0,92.0 L 184.0,89.0 189.0,89.0 189.0,87.0 183.0,87.0 Z" />
	<path style="fill:#85797d;" d="M 189.333,87.6667 C 189.278,87.7223 189.222,88.7777 189.667,88.3333 189.722,88.2778 189.778,87.2222 189.333,87.6667 Z" />
	<path style="fill:#020202;" d="M 192.0,87.0 L 192.0,97.0 193.0,97.0 193.0,93.0 199.0,93.0 C 198.619,88.1104 196.724,87.1551 192.0,87.0 Z" />
	<path style="fill:#272730;" d="M 198.0,87.0 L 199.0,88.0 198.0,87.0 M 201.0,87.0 L 201.0,94.0 203.0,94.0 203.0,87.0 201.0,87.0 Z" />
	<path style="fill:#c4c4c8;" d="M 207.0,87.0 L 208.0,88.0 207.0,87.0 Z" />
	<path style="fill:#020202;" d="M 208.0,87.0 L 201.0,97.0 C 204.108,95.2971 205.472,93.1802 207.0,90.0 L 208.0,90.0 208.0,97.0 209.0,97.0 C 209.0,93.5856 209.327,90.1633 208.0,87.0 Z" />
	<path style="fill:#6f6f76;" d="M 209.0,87.0 C 208.997,90.7857 208.879,94.306 208.0,98.0 L 209.0,98.0 C 210.085,94.3288 210.503,90.5817 209.0,87.0 Z" />
	<path style="fill:#f9d3cd;" d="M 211.0,87.0 L 211.0,98.0 212.0,98.0 C 212.0,94.2998 212.44,90.4324 211.0,87.0 Z" />
	<path style="fill:#020202;" d="M 212.0,87.0 L 212.0,97.0 213.0,97.0 213.0,93.0 C 214.988,94.5564 216.729,95.9141 219.0,97.0 216.731,92.909 216.731,91.091 219.0,87.0 216.729,88.0859 214.988,89.4436 213.0,91.0 212.826,89.3148 212.683,88.506 212.0,87.0 Z" />
	<path style="fill:#44363c;" d="M 213.333,87.6667 C 213.278,87.7223 213.222,88.7778 213.667,88.3333 213.722,88.2778 213.778,87.2222 213.333,87.6667 Z" />
	<path style="fill:#c4c4c8;" d="M 216.0,87.0 L 217.0,88.0 216.0,87.0 Z" />
	<path style="fill:#85797d;" d="M 223.0,87.0 L 224.0,88.0 223.0,87.0 Z" />
	<path style="fill:#020202;" d="M 224.0,87.0 C 223.014,88.4785 223.0,88.2032 223.0,90.0 225.539,90.0 225.309,91.6136 226.0,94.0 223.876,93.1007 223.899,93.1236 223.0,91.0 L 222.0,91.0 220.0,97.0 C 223.548,95.684 225.452,95.684 229.0,97.0 227.627,93.4615 226.392,89.9603 224.0,87.0 Z" />
	<path style="fill:#9a9a9f;" d="M 225.0,87.0 L 226.0,88.0 225.0,87.0 M 7.0,88.0 L 8.0,89.0 7.0,88.0 M 13.0,88.0 L 14.0,89.0 13.0,88.0 M 30.0,88.0 L 31.0,89.0 30.0,88.0 M 36.0,88.0 L 37.0,89.0 36.0,88.0 M 78.0,88.0 L 79.0,89.0 78.0,88.0 Z" />
	<path style="fill:#272730;" d="M 112.0,88.0 L 113.0,89.0 112.0,88.0 Z" />
	<path style="fill:#44363c;" d="M 114.0,88.0 L 115.0,89.0 114.0,88.0 M 141.0,88.0 L 142.0,89.0 141.0,88.0 Z" />
	<path style="fill:#272730;" d="M 150.0,88.0 L 150.0,89.0 154.0,89.0 C 152.494,88.317 151.685,88.1741 150.0,88.0 Z" />
	<path style="fill:#c4c4c8;" d="M 160.0,88.0 L 161.0,89.0 160.0,88.0 Z" />
	<path style="fill:#44363c;" d="M 170.0,88.0 L 171.0,89.0 170.0,88.0 Z" />
	<path style="fill:#4d4d55;" d="M 175.0,88.0 L 176.0,89.0 175.0,88.0 Z" />
	<path style="fill:#9a9a9f;" d="M 199.0,88.0 L 199.0,93.0 200.0,93.0 C 199.912,91.0359 199.779,89.769 199.0,88.0 M 218.0,88.0 L 219.0,89.0 218.0,88.0 Z" />
	<path style="fill:#4d4d55;" d="M 225.0,88.0 L 226.0,89.0 225.0,88.0 M 8.0,89.0 L 9.0,90.0 8.0,89.0 Z" />
	<path style="fill:#85797d;" d="M 14.0,89.0 L 15.0,90.0 14.0,89.0 Z" />
	<path style="fill:#6f6f76;" d="M 29.0,89.0 L 30.0,90.0 29.0,89.0 Z" />
	<path style="fill:#4d4d55;" d="M 35.0,89.0 L 36.0,90.0 35.0,89.0 Z" />
	<path style="fill:#9a9a9f;" d="M 74.0,89.0 L 75.0,90.0 74.0,89.0 Z" />
	<path style="fill:#44363c;" d="M 84.3333,89.6667 C 84.2778,89.7222 84.2222,90.7778 84.6667,90.3333 84.7222,90.2778 84.7778,89.2222 84.3333,89.6667 Z" />
	<path style="fill:#85797d;" d="M 93.3333,89.6667 C 93.2778,89.7222 93.2222,90.7778 93.6667,90.3333 93.7222,90.2778 93.7778,89.2222 93.3333,89.6667 Z" />
	<path style="fill:#272730;" d="M 142.0,89.0 L 143.0,90.0 142.0,89.0 Z" />
	<path style="fill:#9a9a9f;" d="M 144.0,89.0 L 145.0,90.0 144.0,89.0 Z" />
	<path style="fill:#4d4d55;" d="M 149.333,89.6667 C 149.278,89.7223 149.222,90.7778 149.667,90.3333 149.722,90.2778 149.778,89.2222 149.333,89.6667 Z" />
	<path style="fill:#ffffff;" d="M 150.0,89.0 L 150.0,91.0 154.0,91.0 154.0,89.0 150.0,89.0 Z" />
	<path style="fill:#6f6f76;" d="M 160.0,89.0 L 160.0,95.0 161.0,95.0 C 160.953,92.7472 160.874,91.0521 160.0,89.0 Z" />
	<path style="fill:#44363c;" d="M 162.0,89.0 L 162.0,90.0 165.0,90.0 C 163.752,89.3152 163.452,89.2512 162.0,89.0 M 167.667,89.3333 C 167.222,89.7778 168.278,89.7222 168.333,89.6667 168.778,89.2222 167.722,89.2778 167.667,89.3333 Z" />
	<path style="fill:#c4c4c8;" d="M 171.0,89.0 L 171.0,95.0 172.0,95.0 C 171.953,92.7472 171.874,91.0521 171.0,89.0 Z" />
	<path style="fill:#272730;" d="M 176.0,89.0 L 177.0,90.0 176.0,89.0 Z" />
	<path style="fill:#c4c4c8;" d="M 178.0,89.0 L 179.0,90.0 178.0,89.0 Z" />
	<path style="fill:#85797d;" d="M 193.0,89.0 C 194.226,91.0347 194.703,91.3265 197.0,92.0 L 197.0,91.0 193.0,89.0 Z" />
	<path style="fill:#ffffff;" d="M 194.0,89.0 C 195.314,90.6179 195.877,90.6933 198.0,91.0 196.457,89.7334 195.952,89.5107 194.0,89.0 Z" />
	<path style="fill:#c4c4c8;" d="M 197.0,89.0 L 198.0,90.0 197.0,89.0 Z" />
	<path style="fill:#6f6f76;" d="M 206.0,89.0 L 207.0,90.0 206.0,89.0 Z" />
	<path style="fill:#4d4d55;" d="M 213.0,89.0 L 213.0,91.0 215.0,91.0 C 214.455,89.3648 214.635,89.5451 213.0,89.0 Z" />
	<path style="fill:#9a9a9f;" d="M 217.0,89.0 L 218.0,90.0 217.0,89.0 M 222.0,89.0 L 223.0,90.0 222.0,89.0 Z" />
	<path style="fill:#272730;" d="M 224.0,89.0 L 222.0,90.0 222.0,91.0 C 223.749,90.3252 224.058,90.5805 224.0,89.0 M 15.0,90.0 L 16.0,91.0 15.0,90.0 Z" />
	<path style="fill:#c4c4c8;" d="M 16.0,90.0 L 17.0,91.0 16.0,90.0 Z" />
	<path style="fill:#9a9a9f;" d="M 27.0,90.0 L 28.0,91.0 27.0,90.0 Z" />
	<path style="fill:#272730;" d="M 28.0,90.0 L 29.0,91.0 28.0,90.0 Z" />
	<path style="fill:#9a9a9f;" d="M 77.0,90.0 L 78.0,91.0 77.0,90.0 Z" />
	<path style="fill:#4d4d55;" d="M 111.0,90.0 L 112.0,91.0 111.0,90.0 Z" />
	<path style="fill:#9a9a9f;" d="M 113.0,90.0 L 114.0,91.0 113.0,90.0 Z" />
	<path style="fill:#85797d;" d="M 115.0,90.0 L 116.0,91.0 115.0,90.0 Z" />
	<path style="fill:#c4c4c8;" d="M 121.0,90.0 L 121.0,91.0 125.0,91.0 C 123.494,90.317 122.685,90.1741 121.0,90.0 Z" />
	<path style="fill:#85797d;" d="M 140.0,90.0 L 141.0,91.0 140.0,90.0 Z" />
	<path style="fill:#ffffff;" d="M 142.0,90.0 C 142.406,92.0924 142.217,92.0198 144.0,93.0 143.309,91.6116 143.015,91.1393 142.0,90.0 Z" />
	<path style="fill:#272730;" d="M 144.0,90.0 L 145.0,91.0 144.0,90.0 Z" />
	<path style="fill:#ffffff;" d="M 162.0,90.0 L 162.0,94.0 165.0,94.0 165.0,90.0 162.0,90.0 Z" />
	<path style="fill:#4d4d55;" d="M 166.0,90.0 L 166.0,94.0 167.0,94.0 C 166.826,92.3148 166.683,91.506 166.0,90.0 Z" />
	<path style="fill:#ffffff;" d="M 167.0,90.0 L 167.0,94.0 169.0,94.0 169.0,90.0 167.0,90.0 Z" />
	<path style="fill:#9a9a9f;" d="M 169.0,90.0 L 169.0,94.0 170.0,94.0 C 169.826,92.3148 169.683,91.506 169.0,90.0 Z" />
	<path style="fill:#85797d;" d="M 174.0,90.0 L 175.0,91.0 174.0,90.0 Z" />
	<path style="fill:#ffffff;" d="M 176.0,90.0 L 176.0,93.0 177.0,93.0 C 176.749,91.5484 176.685,91.2484 176.0,90.0 Z" />
	<path style="fill:#44363c;" d="M 178.0,90.0 L 179.0,91.0 178.0,90.0 Z" />
	<path style="fill:#9a9a9f;" d="M 205.0,90.0 L 206.0,91.0 205.0,90.0 Z" />
	<path style="fill:#4d4d55;" d="M 207.0,90.0 L 208.0,91.0 207.0,90.0 Z" />
	<path style="fill:#9a9a9f;" d="M 216.0,90.0 L 217.0,91.0 216.0,90.0 Z" />
	<path style="fill:#ffffff;" d="M 224.0,90.0 L 223.0,93.0 C 224.766,92.0214 224.955,91.7782 224.0,90.0 Z" />
	<path style="fill:#6f6f76;" d="M 226.0,90.0 L 227.0,91.0 226.0,90.0 Z" />
	<path style="fill:#44363c;" d="M 17.0,91.0 L 18.0,92.0 17.0,91.0 Z" />
	<path style="fill:#9a9a9f;" d="M 18.0,91.0 L 19.0,92.0 18.0,91.0 Z" />
	<path style="fill:#c4c4c8;" d="M 24.0,91.0 L 25.0,92.0 24.0,91.0 Z" />
	<path style="fill:#9a9a9f;" d="M 25.0,91.0 L 26.0,92.0 25.0,91.0 Z" />
	<path style="fill:#44363c;" d="M 26.0,91.0 L 27.0,92.0 26.0,91.0 Z" />
	<path style="fill:#4d4d55;" d="M 73.0,91.0 L 74.0,92.0 73.0,91.0 Z" />
	<path style="fill:#9a9a9f;" d="M 75.0,91.0 L 76.0,92.0 75.0,91.0 Z" />
	<path style="fill:#272730;" d="M 78.0,91.0 C 78.5451,92.6352 78.3649,92.4549 80.0,93.0 L 80.0,91.0 78.0,91.0 M 85.0,91.0 L 85.0,92.0 88.0,93.0 C 87.0198,91.2167 87.0924,91.4057 85.0,91.0 M 94.0,91.0 L 94.0,92.0 98.0,92.0 C 96.494,91.317 95.6852,91.1741 94.0,91.0 Z" />
	<path style="fill:#6f6f76;" d="M 98.0,91.0 L 99.0,92.0 98.0,91.0 Z" />
	<path style="fill:#c4c4c8;" d="M 106.333,91.6667 C 106.278,91.7222 106.222,92.7778 106.667,92.3333 106.722,92.2778 106.778,91.2222 106.333,91.6667 Z" />
	<path style="fill:#4d4d55;" d="M 112.0,91.0 L 113.0,92.0 112.0,91.0 M 143.0,91.0 L 144.0,92.0 143.0,91.0 Z" />
	<path style="fill:#9a9a9f;" d="M 150.0,91.0 L 150.0,92.0 154.0,92.0 C 152.494,91.317 151.685,91.1741 150.0,91.0 Z" />
	<path style="fill:#4d4d55;" d="M 177.0,91.0 L 178.0,92.0 177.0,91.0 Z" />
	<path style="fill:#272730;" d="M 184.0,91.0 L 184.0,92.0 189.0,92.0 C 188.782,93.6865 188.776,94.3161 189.0,96.0 190.28,92.0943 187.451,91.2685 184.0,91.0 Z" />
	<path style="fill:#c4c4c8;" d="M 189.0,91.0 L 190.0,92.0 189.0,91.0 Z" />
	<path style="fill:#272730;" d="M 193.0,91.0 L 194.0,92.0 193.0,91.0 Z" />
	<path style="fill:#4d4d55;" d="M 197.0,91.0 L 198.0,92.0 197.0,91.0 Z" />
	<path style="fill:#44363c;" d="M 206.0,91.0 L 207.0,92.0 206.0,91.0 Z" />
	<path style="fill:#6f6f76;" d="M 215.333,91.6667 C 215.278,91.7222 215.222,92.7778 215.667,92.3333 215.722,92.2777 215.778,91.2222 215.333,91.6667 M 223.0,91.0 L 224.0,92.0 223.0,91.0 Z" />
	<path style="fill:#272730;" d="M 21.6667,92.3333 C 21.2222,92.7778 22.2778,92.7222 22.3333,92.6667 22.7778,92.2222 21.7222,92.2778 21.6667,92.3333 M 74.6667,92.3333 C 74.2222,92.7778 75.2778,92.7222 75.3333,92.6667 75.7778,92.2222 74.7222,92.2778 74.6667,92.3333 Z" />
	<path style="fill:#6f6f76;" d="M 76.0,92.0 L 77.0,93.0 76.0,92.0 Z" />
	<path style="fill:#c4c4c8;" d="M 99.0,92.0 L 99.0,96.0 100.0,96.0 C 99.8259,94.3148 99.683,93.506 99.0,92.0 M 110.0,92.0 L 111.0,93.0 110.0,92.0 Z" />
	<path style="fill:#9a9a9f;" d="M 112.0,92.0 L 113.0,93.0 112.0,92.0 Z" />
	<path style="fill:#4d4d55;" d="M 114.0,92.0 L 115.0,93.0 114.0,92.0 Z" />
	<path style="fill:#6f6f76;" d="M 121.0,92.0 L 121.0,93.0 124.0,93.0 C 122.752,92.3152 122.452,92.2512 121.0,92.0 Z" />
	<path style="fill:#4d4d55;" d="M 124.0,92.0 L 125.0,93.0 124.0,92.0 Z" />
	<path style="fill:#9a9a9f;" d="M 126.0,92.0 L 126.0,96.0 127.0,96.0 C 126.826,94.3148 126.683,93.5061 126.0,92.0 Z" />
	<path style="fill:#c4c4c8;" d="M 141.0,92.0 L 142.0,93.0 141.0,92.0 Z" />
	<path style="fill:#85797d;" d="M 145.0,92.0 L 146.0,93.0 145.0,92.0 Z" />
	<path style="fill:#272730;" d="M 148.0,92.0 L 149.0,93.0 148.0,92.0 Z" />
	<path style="fill:#c4c4c8;" d="M 175.0,92.0 L 176.0,93.0 175.0,92.0 M 177.0,92.0 L 178.0,93.0 177.0,92.0 Z" />
	<path style="fill:#85797d;" d="M 179.0,92.0 L 180.0,93.0 179.0,92.0 Z" />
	<path style="fill:#44363c;" d="M 204.0,92.0 L 205.0,93.0 204.0,92.0 Z" />
	<path style="fill:#9a9a9f;" d="M 221.0,92.0 L 222.0,93.0 221.0,92.0 M 225.0,92.0 L 226.0,93.0 225.0,92.0 Z" />
	<path style="fill:#c4c4c8;" d="M 227.0,92.0 L 228.0,93.0 227.0,92.0 Z" />
	<path style="fill:#272730;" d="M 31.0,93.0 L 32.0,94.0 31.0,93.0 Z" />
	<path style="fill:#4d4d55;" d="M 77.0,93.0 L 78.0,94.0 77.0,93.0 Z" />
	<path style="fill:#020202;" d="M 79.0,93.0 L 79.0,97.0 80.0,97.0 C 79.8259,95.3148 79.683,94.506 79.0,93.0 Z" />
	<path style="fill:#44363c;" d="M 84.3333,93.6667 C 84.2778,93.7222 84.2222,94.7778 84.6667,94.3333 84.7222,94.2778 84.7778,93.2222 84.3333,93.6667 Z" />
	<path style="fill:#f9d3cd;" d="M 85.0,93.0 L 85.0,94.0 88.0,94.0 C 86.7516,93.3152 86.4516,93.2512 85.0,93.0 Z" />
	<path style="fill:#9a9a9f;" d="M 93.0,93.0 C 94.2259,95.0347 94.7026,95.3265 97.0,96.0 L 97.0,95.0 93.0,93.0 Z" />
	<path style="fill:#ffffff;" d="M 94.0,93.0 C 95.314,94.6179 95.8773,94.6933 98.0,95.0 96.457,93.7333 95.9522,93.5108 94.0,93.0 Z" />
	<path style="fill:#9a9a9f;" d="M 97.0,93.0 L 98.0,94.0 97.0,93.0 Z" />
	<path style="fill:#4d4d55;" d="M 110.0,93.0 L 111.0,94.0 110.0,93.0 Z" />
	<path style="fill:#c4c4c8;" d="M 114.0,93.0 L 115.0,94.0 114.0,93.0 Z" />
	<path style="fill:#85797d;" d="M 116.0,93.0 L 117.0,94.0 116.0,93.0 Z" />
	<path style="fill:#4d4d55;" d="M 120.333,93.6667 C 120.278,93.7222 120.222,94.7778 120.667,94.3333 120.722,94.2778 120.778,93.2222 120.333,93.6667 Z" />
	<path style="fill:#ffffff;" d="M 121.0,93.0 L 121.0,95.0 125.0,95.0 125.0,93.0 121.0,93.0 Z" />
	<path style="fill:#f9d3cd;" d="M 130.0,93.0 L 130.0,98.0 131.0,98.0 131.0,94.0 135.0,94.0 C 133.231,93.2211 131.964,93.0876 130.0,93.0 Z" />
	<path style="fill:#85797d;" d="M 139.0,93.0 L 140.0,94.0 139.0,93.0 Z" />
	<path style="fill:#4d4d55;" d="M 141.0,93.0 L 141.0,94.0 144.0,94.0 C 142.752,93.3152 142.452,93.2512 141.0,93.0 Z" />
	<path style="fill:#272730;" d="M 145.0,93.0 L 146.0,94.0 145.0,93.0 Z" />
	<path style="fill:#c4c4c8;" d="M 148.0,93.0 L 149.0,94.0 148.0,93.0 Z" />
	<path style="fill:#85797d;" d="M 149.0,93.0 L 150.0,94.0 149.0,93.0 Z" />
	<path style="fill:#4d4d55;" d="M 152.667,93.3333 C 152.222,93.7778 153.278,93.7222 153.333,93.6667 153.778,93.2222 152.722,93.2778 152.667,93.3333 Z" />
	<path style="fill:#6f6f76;" d="M 173.0,93.0 L 174.0,94.0 173.0,93.0 Z" />
	<path style="fill:#4d4d55;" d="M 175.0,93.0 L 175.0,94.0 178.0,94.0 C 176.752,93.3152 176.452,93.2512 175.0,93.0 Z" />
	<path style="fill:#ffffff;" d="M 184.0,93.0 L 184.0,95.0 188.0,95.0 188.0,93.0 184.0,93.0 Z" />
	<path style="fill:#44363c;" d="M 193.0,93.0 L 194.0,94.0 193.0,93.0 Z" />
	<path style="fill:#85797d;" d="M 194.0,93.0 L 194.0,94.0 199.0,94.0 C 197.231,93.2211 195.964,93.0876 194.0,93.0 Z" />
	<path style="fill:#9a9a9f;" d="M 203.0,93.0 L 204.0,94.0 203.0,93.0 M 205.0,93.0 L 206.0,94.0 205.0,93.0 Z" />
	<path style="fill:#c4c4c8;" d="M 207.0,93.0 L 207.0,98.0 208.0,98.0 C 207.912,96.0359 207.779,94.769 207.0,93.0 Z" />
	<path style="fill:#4d4d55;" d="M 213.0,93.0 L 213.0,97.0 214.0,97.0 215.0,93.0 213.0,93.0 Z" />
	<path style="fill:#6f6f76;" d="M 216.0,93.0 L 217.0,94.0 216.0,93.0 Z" />
	<path style="fill:#44363c;" d="M 221.0,93.0 L 222.0,94.0 221.0,93.0 Z" />
	<path style="fill:#4d4d55;" d="M 223.0,93.0 L 223.0,94.0 226.0,94.0 C 224.752,93.3152 224.452,93.2512 223.0,93.0 Z" />
	<path style="fill:#6f6f76;" d="M 227.0,93.0 L 228.0,94.0 227.0,93.0 Z" />
	<path style="fill:#4d4d55;" d="M 13.0,94.0 L 14.0,95.0 13.0,94.0 M 30.0,94.0 L 31.0,95.0 30.0,94.0 Z" />
	<path style="fill:#c4c4c8;" d="M 73.0,94.0 L 73.0,98.0 74.0,98.0 C 73.8259,96.3148 73.683,95.506 73.0,94.0 Z" />
	<path style="fill:#272730;" d="M 139.0,94.0 L 140.0,95.0 139.0,94.0 Z" />
	<path style="fill:#6f6f76;" d="M 193.0,94.0 L 192.0,98.0 193.0,98.0 C 193.465,96.0688 193.574,95.8092 193.0,94.0 Z" />
	<path style="fill:#4d4d55;" d="M 201.333,94.6667 C 201.278,94.7222 201.222,95.7778 201.667,95.3333 201.722,95.2778 201.778,94.2222 201.333,94.6667 M 204.0,94.0 L 205.0,95.0 204.0,94.0 Z" />
	<path style="fill:#85797d;" d="M 217.0,94.0 L 218.0,95.0 217.0,94.0 Z" />
	<path style="fill:#9a9a9f;" d="M 14.0,95.0 L 15.0,96.0 14.0,95.0 M 29.0,95.0 L 30.0,96.0 29.0,95.0 Z" />
	<path style="fill:#6f6f76;" d="M 75.0,95.0 L 76.0,96.0 75.0,95.0 Z" />
	<path style="fill:#272730;" d="M 76.0,95.0 L 77.0,96.0 76.0,95.0 Z" />
	<path style="fill:#6f6f76;" d="M 85.0,95.0 L 85.0,96.0 90.0,96.0 C 88.231,95.2211 86.9641,95.0876 85.0,95.0 Z" />
	<path style="fill:#4d4d55;" d="M 93.0,95.0 L 94.0,96.0 93.0,95.0 M 97.0,95.0 L 98.0,96.0 97.0,95.0 Z" />
	<path style="fill:#6f6f76;" d="M 103.0,95.0 L 103.0,96.0 108.0,96.0 C 106.231,95.2211 104.964,95.0876 103.0,95.0 Z" />
	<path style="fill:#f9d3cd;" d="M 108.667,95.3333 C 108.222,95.7778 109.278,95.7222 109.333,95.6667 109.778,95.2223 108.722,95.2778 108.667,95.3333 Z" />
	<path style="fill:#9a9a9f;" d="M 111.0,95.0 L 112.0,96.0 111.0,95.0 Z" />
	<path style="fill:#4d4d55;" d="M 115.0,95.0 L 116.0,96.0 115.0,95.0 Z" />
	<path style="fill:#272730;" d="M 120.0,95.0 L 121.0,96.0 120.0,95.0 Z" />
	<path style="fill:#9a9a9f;" d="M 121.0,95.0 L 121.0,96.0 124.0,96.0 C 122.752,95.3152 122.452,95.2512 121.0,95.0 Z" />
	<path style="fill:#6f6f76;" d="M 124.0,95.0 L 125.0,96.0 124.0,95.0 Z" />
	<path style="fill:#c4c4c8;" d="M 138.0,95.0 L 139.0,96.0 138.0,95.0 Z" />
	<path style="fill:#6f6f76;" d="M 140.0,95.0 L 141.0,96.0 140.0,95.0 Z" />
	<path style="fill:#c4c4c8;" d="M 141.0,95.0 L 141.0,96.0 144.0,96.0 C 142.752,95.3152 142.452,95.2512 141.0,95.0 Z" />
	<path style="fill:#9a9a9f;" d="M 144.0,95.0 L 145.0,96.0 144.0,95.0 Z" />
	<path style="fill:#6f6f76;" d="M 146.0,95.0 L 147.0,96.0 146.0,95.0 Z" />
	<path style="fill:#c4c4c8;" d="M 153.333,95.6667 C 153.278,95.7222 153.222,96.7778 153.667,96.3333 153.722,96.2778 153.778,95.2222 153.333,95.6667 Z" />
	<path style="fill:#272730;" d="M 161.0,95.0 L 161.0,96.0 165.0,96.0 C 163.494,95.317 162.685,95.1741 161.0,95.0 M 167.0,95.0 L 167.0,96.0 170.0,96.0 C 168.752,95.3152 168.452,95.2512 167.0,95.0 Z" />
	<path style="fill:#85797d;" d="M 170.0,95.0 L 171.0,96.0 170.0,95.0 Z" />
	<path style="fill:#c4c4c8;" d="M 172.0,95.0 L 173.0,96.0 172.0,95.0 Z" />
	<path style="fill:#6f6f76;" d="M 174.0,95.0 L 175.0,96.0 174.0,95.0 Z" />
	<path style="fill:#c4c4c8;" d="M 175.0,95.0 L 175.0,96.0 178.0,96.0 C 176.752,95.3152 176.452,95.2512 175.0,95.0 Z" />
	<path style="fill:#9a9a9f;" d="M 178.0,95.0 L 179.0,96.0 178.0,95.0 Z" />
	<path style="fill:#6f6f76;" d="M 180.0,95.0 L 181.0,96.0 180.0,95.0 Z" />
	<path style="fill:#9a9a9f;" d="M 184.0,95.0 L 184.0,96.0 188.0,96.0 C 186.494,95.317 185.685,95.1741 184.0,95.0 Z" />
	<path style="fill:#c4c4c8;" d="M 215.0,95.0 L 216.0,96.0 215.0,95.0 Z" />
	<path style="fill:#9a9a9f;" d="M 218.0,95.0 L 219.0,96.0 218.0,95.0 Z" />
	<path style="fill:#6f6f76;" d="M 220.0,95.0 L 221.0,96.0 220.0,95.0 Z" />
	<path style="fill:#c4c4c8;" d="M 222.0,95.0 L 222.0,96.0 226.0,96.0 C 224.494,95.317 223.685,95.1741 222.0,95.0 Z" />
	<path style="fill:#6f6f76;" d="M 226.0,95.0 L 227.0,96.0 226.0,95.0 Z" />
	<path style="fill:#9a9a9f;" d="M 228.0,95.0 L 229.0,96.0 228.0,95.0 M 16.0,96.0 L 17.0,97.0 16.0,96.0 Z" />
	<path style="fill:#4d4d55;" d="M 17.0,96.0 L 18.0,97.0 17.0,96.0 M 26.0,96.0 L 27.0,97.0 26.0,96.0 Z" />
	<path style="fill:#9a9a9f;" d="M 27.0,96.0 L 28.0,97.0 27.0,96.0 Z" />
	<path style="fill:#85797d;" d="M 102.0,97.0 L 102.0,98.0 111.0,98.0 C 108.159,96.1653 105.332,96.8679 102.0,97.0 Z" />
	<path style="fill:#9a9a9f;" d="M 115.0,96.0 L 116.0,97.0 115.0,96.0 Z" />
	<path style="fill:#6f6f76;" d="M 117.0,96.0 L 118.0,97.0 117.0,96.0 Z" />
	<path style="fill:#44363c;" d="M 148.0,96.0 L 149.0,97.0 148.0,96.0 Z" />
	<path style="fill:#6f6f76;" d="M 150.0,96.0 L 151.0,97.0 150.0,96.0 M 189.0,96.0 L 190.0,97.0 189.0,96.0 Z" />
	<path style="fill:#c4c4c8;" d="M 203.0,96.0 L 204.0,97.0 203.0,96.0 M 216.0,96.0 L 217.0,97.0 216.0,96.0 Z" />
	<path style="fill:#6f6f76;" d="M 218.0,98.0 L 221.0,98.0 220.0,96.0 C 218.365,96.5451 218.545,96.3648 218.0,98.0 Z" />
	<path style="fill:#9a9a9f;" d="M 19.6667,97.3333 C 19.2222,97.7778 20.2778,97.7222 20.3333,97.6667 20.7778,97.2222 19.7222,97.2778 19.6667,97.3333 Z" />
	<path style="fill:#6f6f76;" d="M 21.0,97.0 L 21.0,98.0 24.0,98.0 C 22.7516,97.3152 22.4516,97.2512 21.0,97.0 Z" />
	<path style="fill:#9a9a9f;" d="M 24.0,97.0 L 25.0,98.0 24.0,97.0 Z" />
	<path style="fill:#6f6f76;" d="M 72.0,97.0 L 73.0,98.0 72.0,97.0 Z" />
	<path style="fill:#9a9a9f;" d="M 79.6667,97.3333 C 79.2222,97.7778 80.2778,97.7222 80.3333,97.6667 80.7778,97.2222 79.7222,97.2778 79.6667,97.3333 Z" />
	<path style="fill:#85797d;" d="M 83.0,97.0 L 83.0,98.0 90.0,98.0 C 87.6684,97.0155 85.5433,97.0187 83.0,97.0 M 92.0,97.0 L 92.0,98.0 98.0,98.0 C 95.9479,97.1258 94.2528,97.0472 92.0,97.0 Z" />
	<path style="fill:#c4c4c8;" d="M 98.0,97.0 L 99.0,98.0 98.0,97.0 M 101.0,97.0 L 102.0,98.0 101.0,97.0 M 108.0,97.0 L 109.0,98.0 108.0,97.0 Z" />
	<path style="fill:#9a9a9f;" d="M 116.667,97.3333 C 116.222,97.7778 117.278,97.7222 117.333,97.6667 117.778,97.2222 116.722,97.2778 116.667,97.3333 Z" />
	<path style="fill:#85797d;" d="M 119.0,97.0 L 119.0,98.0 125.0,98.0 C 122.948,97.1258 121.253,97.0472 119.0,97.0 Z" />
	<path style="fill:#c4c4c8;" d="M 125.0,97.0 L 126.0,98.0 125.0,97.0 M 128.0,97.0 L 129.0,98.0 128.0,97.0 Z" />
	<path style="fill:#6f6f76;" d="M 135.0,97.0 L 136.0,98.0 135.0,97.0 Z" />
	<path style="fill:#9a9a9f;" d="M 136.0,97.0 L 137.0,98.0 136.0,97.0 Z" />
	<path style="fill:#85797d;" d="M 138.667,97.3333 C 138.222,97.7778 139.278,97.7222 139.333,97.6667 139.778,97.2222 138.722,97.2778 138.667,97.3333 Z" />
	<path style="fill:#9a9a9f;" d="M 145.0,97.0 L 146.0,98.0 145.0,97.0 Z" />
	<path style="fill:#6f6f76;" d="M 146.0,97.0 L 147.0,98.0 146.0,97.0 Z" />
	<path style="fill:#c4c4c8;" d="M 147.0,97.0 L 148.0,98.0 147.0,97.0 Z" />
	<path style="fill:#85797d;" d="M 148.667,97.3333 C 148.222,97.7777 149.278,97.7222 149.333,97.6667 149.778,97.2222 148.722,97.2778 148.667,97.3333 Z" />
	<path style="fill:#6f6f76;" d="M 154.0,97.0 L 155.0,98.0 154.0,97.0 Z" />
	<path style="fill:#c4c4c8;" d="M 155.0,97.0 L 156.0,98.0 155.0,97.0 Z" />
	<path style="fill:#6f6f76;" d="M 165.0,97.0 L 166.0,98.0 165.0,97.0 Z" />
	<path style="fill:#9a9a9f;" d="M 166.0,97.0 L 167.0,98.0 166.0,97.0 M 172.667,97.3333 C 172.222,97.7777 173.278,97.7222 173.333,97.6667 173.778,97.2222 172.722,97.2778 172.667,97.3333 M 179.0,97.0 L 180.0,98.0 179.0,97.0 Z" />
	<path style="fill:#4d4d55;" d="M 180.0,97.0 L 181.0,98.0 180.0,97.0 Z" />
	<path style="fill:#c4c4c8;" d="M 182.0,97.0 L 183.0,98.0 182.0,97.0 Z" />
	<path style="fill:#85797d;" d="M 183.0,97.0 L 183.0,98.0 189.0,98.0 C 186.948,97.1257 185.253,97.0472 183.0,97.0 Z" />
	<path style="fill:#9a9a9f;" d="M 193.0,97.0 L 194.0,98.0 193.0,97.0 M 201.667,97.3333 C 201.222,97.7778 202.278,97.7222 202.333,97.6667 202.778,97.2222 201.722,97.2778 201.667,97.3333 Z" />
	<path style="fill:#c4c4c8;" d="M 209.0,97.0 L 210.0,98.0 209.0,97.0 Z" />
	<path style="fill:#6f6f76;" d="M 212.0,97.0 L 213.0,98.0 212.0,97.0 Z" />
	<path style="fill:#9a9a9f;" d="M 213.0,97.0 L 214.0,98.0 213.0,97.0 M 217.0,97.0 L 218.0,98.0 217.0,97.0 Z" />
	<path style="fill:#c4c4c8;" d="M 221.0,97.0 L 222.0,98.0 221.0,97.0 Z" />
	<path style="fill:#6f6f76;" d="M 227.667,97.3333 C 227.222,97.7777 228.278,97.7222 228.333,97.6667 228.778,97.2222 227.722,97.2778 227.667,97.3333 Z" />
</g>
</svg>