<?xml version="1.0" standalone="no"?>
<!DOCTYPE svg PUBLIC "-//W3C//DTD SVG 20010904//EN"
 "http://www.w3.org/TR/2001/REC-SVG-20010904/DTD/svg10.dtd">
<svg version="1.0" xmlns="http://www.w3.org/2000/svg"
 width="167.000000pt" height="162.000000pt" viewBox="0 0 167.000000 162.000000"
 preserveAspectRatio="xMidYMid meet">

<g transform="translate(0.000000,162.000000) scale(0.100000,-0.100000)"
fill="#000000" stroke="none">
<path d="M683 1605 c-273 -59 -474 -354 -434 -637 12 -86 41 -174 78 -237 35
-61 128 -157 181 -188 39 -23 42 -28 42 -69 0 -42 1 -44 30 -44 l30 0 0 375 0
375 45 0 45 0 0 -410 c0 -322 3 -410 13 -409 6 0 84 15 172 33 l160 32 3 47
c3 41 7 49 34 63 18 9 56 40 86 68 120 112 184 259 185 426 1 168 -56 312
-169 424 -134 135 -319 190 -501 151z m238 -41 c91 -21 90 -44 -2 -44 -35 0
-40 -4 -59 -40 -38 -74 -27 -85 80 -86 41 0 103 -7 137 -14 54 -12 64 -11 86
3 24 15 25 15 51 -21 l26 -37 -32 -14 c-18 -8 -58 -14 -88 -14 -50 2 -58 5
-85 37 -28 34 -34 36 -89 36 -54 0 -60 -2 -92 -37 -19 -20 -34 -46 -34 -56 0
-20 -17 -20 -97 0 -18 4 -23 1 -23 -16 0 -19 -5 -21 -75 -21 l-75 0 -1 -77 0
-78 -16 33 c-17 32 -36 41 -48 22 -3 -5 -11 -10 -16 -10 -6 0 -7 5 -4 11 4 6
-3 21 -15 34 -35 38 -23 59 39 67 76 11 152 60 182 116 16 29 35 49 56 58 24
11 35 24 44 54 7 22 10 42 7 45 -3 3 -33 10 -67 16 -33 6 -61 15 -61 19 0 13
76 28 143 29 32 1 89 -6 128 -15z m-291 -49 c8 -7 37 -16 63 -19 54 -8 58 -23
11 -44 -18 -9 -41 -33 -58 -63 -34 -60 -91 -96 -177 -110 -34 -5 -66 -12 -71
-15 -17 -11 -8 -81 12 -99 21 -19 27 -45 11 -45 -5 0 -25 15 -44 33 -49 46
-58 96 -26 155 34 64 115 150 183 194 57 37 65 38 96 13z m453 -24 c23 -16 50
-38 61 -49 18 -21 18 -21 -7 -27 -14 -4 -51 1 -83 10 -39 11 -72 14 -105 10
-58 -8 -73 -1 -56 25 7 13 23 20 42 20 16 1 46 9 65 20 19 11 36 19 38 20 2 0
22 -13 45 -29z m-72 -189 c13 -24 27 -31 78 -41 56 -11 67 -10 116 8 l55 21
16 -38 c22 -51 44 -158 44 -212 0 -101 -63 -297 -92 -288 -7 3 -15 27 -18 54
-4 27 -23 85 -43 128 -22 47 -37 94 -37 117 0 30 -6 42 -29 58 -16 12 -34 21
-40 21 -6 0 -11 17 -11 39 0 44 2 43 -95 61 -87 17 -95 20 -95 38 0 8 10 26
22 39 16 18 32 23 67 23 40 0 48 -4 62 -28z m-640 -196 c43 -29 47 -35 34 -46
-22 -18 -18 -74 9 -129 23 -45 28 -48 80 -60 l56 -12 0 -150 0 -150 -46 33
c-169 120 -259 372 -207 577 l6 26 10 -28 c5 -16 29 -42 58 -61z m162 -58 c12
-13 17 -35 17 -83 l0 -65 -27 6 c-57 12 -64 16 -78 44 -23 44 -18 76 17 116
29 33 33 35 43 19 5 -10 18 -27 28 -37z m549 25 c11 -10 18 -30 18 -52 0 -21
15 -68 35 -110 23 -48 35 -87 35 -115 0 -30 6 -48 20 -61 11 -10 20 -21 20
-25 0 -14 -70 -87 -114 -118 l-46 -33 0 265 c0 146 3 266 7 266 3 0 15 -7 25
-17z m-307 -253 c0 -13 -6 -25 -12 -27 -16 -6 -27 21 -19 43 9 23 31 11 31
-16z"/>
<path d="M133 118 c-6 -46 -8 -85 -7 -87 8 -10 15 9 21 58 3 28 9 51 13 51 5
0 18 -25 31 -55 12 -30 26 -55 30 -55 3 0 19 28 34 63 l29 62 9 -62 c5 -35 13
-63 17 -63 9 0 4 75 -10 140 l-7 35 -34 -67 c-18 -38 -36 -68 -40 -68 -4 0
-19 29 -34 65 -16 36 -31 65 -35 65 -4 0 -12 -37 -17 -82z"/>
<path d="M350 113 l0 -88 50 55 c27 30 49 58 50 63 0 4 5 7 10 7 6 0 10 -27
10 -60 0 -33 4 -60 10 -60 6 0 10 36 10 88 l-1 87 -59 -65 -59 -65 -1 63 c0
34 -4 62 -10 62 -6 0 -10 -36 -10 -87z"/>
<path d="M520 115 c0 -50 4 -85 10 -85 6 0 10 18 10 40 0 39 1 40 33 40 38 0
57 15 57 45 0 32 -20 45 -67 45 l-43 0 0 -85z m88 53 c17 -17 -4 -38 -39 -38
-24 0 -29 4 -29 25 0 21 5 25 28 25 15 0 33 -5 40 -12z"/>
<path d="M660 195 c0 -3 14 -33 30 -66 34 -66 32 -84 -9 -74 -24 6 -25 5 -9
-11 9 -9 23 -14 32 -11 19 7 101 167 85 167 -5 0 -20 -22 -32 -50 -12 -27 -25
-50 -28 -50 -3 0 -16 23 -29 50 -13 28 -27 50 -32 50 -4 0 -8 -2 -8 -5z"/>
<path d="M851 120 c-41 -85 -50 -120 -31 -120 6 0 10 7 10 15 0 12 14 15 65
15 51 0 65 -3 65 -15 0 -8 5 -15 10 -15 20 0 9 36 -34 120 l-44 84 -41 -84z
m73 -68 c-13 -2 -37 -2 -53 0 l-29 3 25 55 25 55 28 -55 28 -55 -24 -3z"/>
<path d="M1000 115 l0 -85 39 0 c60 0 94 48 56 80 -11 9 -12 17 -5 30 13 24
13 26 -6 44 -8 9 -31 16 -50 16 l-34 0 0 -85z m75 55 c9 -15 -14 -40 -36 -40
-14 0 -19 7 -19 25 0 20 5 25 24 25 14 0 28 -5 31 -10z m-1 -66 c21 -8 21 -40
0 -48 -37 -14 -54 -7 -54 24 0 31 17 38 54 24z"/>
<path d="M1140 115 l0 -85 50 0 c28 0 50 5 50 10 0 6 -18 10 -40 10 -38 0 -40
2 -40 30 0 28 2 30 40 30 22 0 40 5 40 10 0 6 -18 10 -40 10 -36 0 -40 3 -40
25 0 23 4 25 40 25 22 0 40 5 40 10 0 6 -22 10 -50 10 l-50 0 0 -85z"/>
<path d="M1270 115 c0 -50 4 -85 10 -85 6 0 10 18 10 40 0 38 2 40 29 40 31 0
61 22 61 45 0 25 -31 45 -71 45 l-39 0 0 -85z m85 40 c0 -15 -8 -21 -32 -23
-30 -3 -33 -1 -33 23 0 24 3 26 33 23 24 -2 32 -8 32 -23z"/>
<path d="M1410 113 l0 -88 50 55 c27 30 49 58 50 63 0 4 5 7 10 7 6 0 10 -27
10 -60 0 -33 4 -60 10 -60 6 0 10 36 10 88 l-1 87 -59 -65 -59 -65 -1 63 c0
34 -4 62 -10 62 -6 0 -10 -36 -10 -87z"/>
<path d="M21 128 c-8 -23 -8 -41 0 -65 14 -44 30 -43 17 1 -8 24 -7 43 0 65 6
17 7 31 2 31 -4 0 -13 -14 -19 -32z"/>
<path d="M73 128 c-10 -35 3 -98 19 -98 5 0 6 10 2 23 -5 12 -8 31 -8 42 0 11
3 30 8 43 4 12 3 22 -2 22 -5 0 -13 -15 -19 -32z"/>
<path d="M1585 127 c11 -27 11 -37 -1 -65 -10 -25 -11 -33 -1 -30 31 11 29
128 -2 128 -6 0 -4 -14 4 -33z"/>
<path d="M1636 138 c5 -13 8 -32 8 -43 0 -11 -3 -30 -8 -42 -12 -36 9 -26 22
10 9 26 9 40 0 65 -14 36 -34 45 -22 10z"/>
</g>
</svg>
