<?xml version="1.0" encoding="utf-8"?>
<!-- Created by UniConvertor 2.0rc5 (https://sk1project.net/) -->
<svg xmlns="http://www.w3.org/2000/svg" height="99.0px" width="241.0px" version="1.1" xmlns:xlink="http://www.w3.org/1999/xlink" id="bcd94a1e-0cc4-11ed-abd9-a8a1598cb569">

<g>
	<path style="fill:#fefefe;" d="M 0.0,0.0 L 0.0,15.0 26.0,15.0 26.0,29.0 27.0,29.0 C 29.2397,24.977 32.1236,18.4142 36.2099,16.0278 42.8048,12.1763 57.4531,15.0 65.0,15.0 61.9979,24.4868 50.8924,35.0703 50.6651,45.0 50.4248,55.4997 62.986,69.4095 67.0,79.0 52.2797,79.0 36.3187,82.7922 22.0,81.9267 14.4942,81.473 8.1288,78.0 0.0,78.0 L 0.0,99.0 241.0,99.0 241.0,63.0 97.0,63.0 C 81.9464,63.0 65.5713,67.6536 57.7423,53.0394 56.4163,50.5641 54.0732,47.9259 54.206,44.9606 55.2176,22.3742 82.9755,28.0 98.0,28.0 L 241.0,27.0 241.0,0.0 0.0,0.0 Z" />
	<path style="fill:#ceccc2;" d="M 0.0,15.0 L 0.0,16.0 26.0,16.0 C 18.8314,12.9919 7.761,15.0 0.0,15.0 Z" />
	<path style="fill:#fff3ba;" d="M 35.0,15.0 L 35.0,16.0 65.0,16.0 C 56.8723,12.5895 43.8136,15.0 35.0,15.0 Z" />
	<path style="fill:#302f2b;" d="M 0.0,16.0 L 0.0,77.0 1.0,77.0 1.0,36.0 C 1.0,29.846 2.3949,21.7073 0.0,16.0 Z" />
	<path style="fill:#07080c;" d="M 1.0,16.0 L 1.0,77.0 12.0,77.0 12.0,42.0 C 12.0,38.4969 10.8695,32.3373 13.6034,29.6034 16.1882,27.0186 21.6768,28.0 25.0,28.0 L 25.0,16.0 1.0,16.0 Z" />
	<path style="fill:#696868;" d="M 25.0,16.0 L 25.0,29.0 26.0,29.0 C 26.0,24.7366 26.6611,19.9587 25.0,16.0 Z" />
	<path style="fill:#bdbfbe;" d="M 34.0,16.0 L 35.0,17.0 34.0,16.0 Z" />
	<path style="fill:#302f2b;" d="M 35.0,16.0 L 35.0,17.0 64.0,17.0 C 56.1116,13.6899 43.5508,16.0 35.0,16.0 Z" />
	<path style="fill:#949186;" d="M 64.3333,16.6667 C 64.2778,16.7222 64.2222,17.7778 64.6667,17.3333 64.7222,17.2778 64.7778,16.2222 64.3333,16.6667 Z" />
	<path style="fill:#615428;" d="M 34.0,17.0 L 35.0,18.0 34.0,17.0 Z" />
	<path style="fill:#07080c;" d="M 28.0,28.0 C 32.2154,28.0 40.1101,26.5251 43.3966,29.7423 46.2761,32.5611 45.0,39.3491 45.0,43.0 L 45.0,78.0 66.0,78.0 C 62.0993,68.6307 50.0003,55.1771 50.1358,45.0 50.2556,35.9962 60.5565,25.2688 64.0,17.0 49.128,17.0 35.8509,13.252 28.0,28.0 Z" />
	<path style="fill:#949186;" d="M 33.0,18.0 L 34.0,19.0 33.0,18.0 Z" />
	<path style="fill:#615428;" d="M 63.0,18.0 L 64.0,19.0 63.0,18.0 Z" />
	<path style="fill:#bdbfbe;" d="M 63.0,19.0 L 64.0,20.0 63.0,19.0 Z" />
	<path style="fill:#615428;" d="M 32.0,20.0 L 33.0,21.0 32.0,20.0 Z" />
	<path style="fill:#696868;" d="M 62.0,20.0 L 63.0,21.0 62.0,20.0 Z" />
	<path style="fill:#9e9e9e;" d="M 31.0,21.0 L 32.0,22.0 31.0,21.0 Z" />
	<path style="fill:#696868;" d="M 61.0,22.0 L 62.0,23.0 61.0,22.0 M 30.0,23.0 L 31.0,24.0 30.0,23.0 Z" />
	<path style="fill:#bdbfbe;" d="M 29.0,24.0 L 30.0,25.0 29.0,24.0 Z" />
	<path style="fill:#949186;" d="M 60.0,24.0 L 61.0,25.0 60.0,24.0 Z" />
	<path style="fill:#302f2b;" d="M 29.0,25.0 L 30.0,26.0 29.0,25.0 Z" />
	<path style="fill:#696868;" d="M 28.0,26.0 L 29.0,27.0 28.0,26.0 Z" />
	<path style="fill:#949186;" d="M 59.0,26.0 L 60.0,27.0 59.0,26.0 Z" />
	<path style="fill:#bdbfbe;" d="M 27.0,27.0 L 28.0,28.0 27.0,27.0 Z" />
	<path style="fill:#302f2b;" d="M 58.0,27.0 L 59.0,28.0 58.0,27.0 Z" />
	<path style="fill:#ceccc2;" d="M 149.0,27.0 L 149.0,28.0 241.0,28.0 C 233.361,24.7944 221.271,27.0 213.0,27.0 L 149.0,27.0 Z" />
	<path style="fill:#302f2b;" d="M 13.0,28.0 L 13.0,29.0 25.0,29.0 C 21.3025,27.4485 16.9832,28.0 13.0,28.0 Z" />
	<path style="fill:#847129;" d="M 27.0,28.0 L 28.0,29.0 27.0,28.0 Z" />
	<path style="fill:#302f2b;" d="M 28.0,28.0 L 28.0,29.0 C 33.1005,29.0 37.9715,29.0665 43.0,30.0 39.9117,26.4658 32.4311,28.0 28.0,28.0 Z" />
	<path style="fill:#9e9e9e;" d="M 58.0,28.0 L 59.0,29.0 58.0,28.0 Z" />
	<path style="fill:#fdd527;" d="M 148.0,62.0 C 148.0,51.0198 146.449,38.7151 149.0,28.0 L 86.0,28.0 C 80.178,28.0 67.5275,25.6137 62.6373,29.0278 53.5856,35.3473 51.3766,57.8905 64.213,61.6821 71.945,63.966 82.9442,62.0 91.0,62.0 L 148.0,62.0 Z" />
	<path style="fill:#615428;" d="M 149.0,28.0 L 149.0,29.0 241.0,29.0 C 233.361,25.7944 221.271,28.0 213.0,28.0 L 149.0,28.0 M 12.0,29.0 L 12.0,37.0 13.0,37.0 C 12.9928,34.1645 13.0977,31.6127 12.0,29.0 Z" />
	<path style="fill:#ffec26;" d="M 13.0,29.0 C 15.1656,40.6648 14.0,53.1648 14.0,65.0 14.0,71.0687 12.9625,76.8041 18.0,81.0 L 18.0,32.0 17.0,32.0 17.0,78.0 16.0,78.0 C 12.5311,63.4298 15.0,45.9549 15.0,31.0 L 27.0,31.0 27.0,29.0 13.0,29.0 Z" />
	<path style="fill:#fdd527;" d="M 27.0,29.0 L 27.0,31.0 38.0,30.0 C 34.5676,28.5597 30.7002,29.0 27.0,29.0 Z" />
	<path style="fill:#a58e28;" d="M 38.0,29.0 L 38.0,30.0 41.0,30.0 C 39.7517,29.3152 39.4516,29.2512 38.0,29.0 Z" />
	<path style="fill:#847129;" d="M 43.0,29.0 L 43.0,76.0 44.0,76.0 C 44.0,60.6841 42.2,44.0818 45.0,29.0 L 43.0,29.0 Z" />
	<path style="fill:#302f2b;" d="M 57.0,29.0 L 58.0,30.0 57.0,29.0 Z" />
	<path style="fill:#fff3ba;" d="M 61.0,29.0 L 62.0,30.0 61.0,29.0 Z" />
	<path style="fill:#cdb325;" d="M 148.0,29.0 L 148.0,62.0 149.0,62.0 C 149.0,52.3992 151.711,37.8444 148.0,29.0 Z" />
	<path style="fill:#302f2b;" d="M 149.0,29.0 L 149.0,62.0 150.0,62.0 C 150.0,52.3992 152.711,37.8444 149.0,29.0 Z" />
	<path style="fill:#07080c;" d="M 150.0,29.0 L 150.0,62.0 151.0,62.0 C 151.0,52.3992 153.711,37.8444 150.0,29.0 Z" />
	<path style="fill:#302f2b;" d="M 151.0,29.0 L 151.0,62.0 241.0,62.0 241.0,29.0 151.0,29.0 Z" />
	<path style="fill:#a58e28;" d="M 31.0,30.0 L 31.0,31.0 34.0,31.0 C 32.7516,30.3152 32.4516,30.2512 31.0,30.0 Z" />
	<path style="fill:#615428;" d="M 34.0,30.0 L 34.0,31.0 38.0,31.0 C 36.494,30.317 35.6852,30.1741 34.0,30.0 Z" />
	<path style="fill:#07080c;" d="M 19.0,32.0 L 19.0,82.0 C 26.9257,80.463 34.9437,78.6367 43.0,78.0 L 43.0,30.0 C 34.9288,30.3465 27.1293,32.0 19.0,32.0 Z" />
	<path style="fill:#bdbfbe;" d="M 57.0,30.0 L 58.0,31.0 57.0,30.0 Z" />
	<path style="fill:#cdb325;" d="M 13.0,31.0 L 13.0,77.0 14.0,77.0 C 14.0,63.9966 18.0098,42.9389 13.0,31.0 Z" />
	<path style="fill:#fdd527;" d="M 15.0,31.0 C 15.0,45.4714 11.8996,64.1279 16.0,78.0 L 17.0,78.0 17.0,45.0 C 17.0,40.4285 15.7729,34.7404 20.0,32.0 18.231,31.2211 16.9641,31.0876 15.0,31.0 Z" />
	<path style="fill:#cdb325;" d="M 20.0,31.0 L 20.0,32.0 23.0,32.0 C 21.7516,31.3152 21.4516,31.2512 20.0,31.0 Z" />
	<path style="fill:#847129;" d="M 23.0,31.0 L 23.0,32.0 27.0,32.0 C 25.494,31.317 24.6852,31.1741 23.0,31.0 Z" />
	<path style="fill:#302f2b;" d="M 27.0,31.0 L 27.0,32.0 31.0,32.0 C 29.494,31.317 28.6852,31.1741 27.0,31.0 Z" />
	<path style="fill:#615428;" d="M 44.0,31.0 C 44.0,46.3159 45.8,62.9181 43.0,78.0 46.1119,75.2807 45.0,69.8904 45.0,66.0 45.0,55.8905 47.9077,40.3124 44.0,31.0 M 56.0,31.0 L 57.0,32.0 56.0,31.0 Z" />
	<path style="fill:#fff3ba;" d="M 60.0,31.0 L 61.0,32.0 60.0,31.0 Z" />
	<path style="fill:#a58e28;" d="M 18.0,32.0 L 19.0,33.0 18.0,32.0 Z" />
	<path style="fill:#bdbfbe;" d="M 56.0,32.0 L 57.0,33.0 56.0,32.0 Z" />
	<path style="fill:#847129;" d="M 18.0,33.0 L 18.0,61.0 19.0,61.0 C 19.0,52.7122 21.2096,40.6488 18.0,33.0 Z" />
	<path style="fill:#696868;" d="M 55.0,33.0 L 56.0,34.0 55.0,33.0 Z" />
	<path style="fill:#fee67f;" d="M 59.0,33.0 L 60.0,34.0 59.0,33.0 Z" />
	<path style="fill:#ffec26;" d="M 83.0,33.0 L 83.0,34.0 C 88.6382,34.1363 95.5899,36.1926 93.0,43.0 97.2207,49.5141 89.6408,58.415 83.6034,52.3966 80.3268,49.1304 82.0,40.2707 82.0,36.0 L 81.0,36.0 C 81.0,40.6206 79.0669,48.6209 81.4483,52.6821 84.1738,57.3301 95.1182,55.2495 97.0918,50.7361 98.9086,46.5814 97.0005,39.5451 97.0,35.0 L 96.0,35.0 95.0,37.0 C 91.5763,33.1203 87.9584,33.0142 83.0,33.0 M 112.0,33.0 L 112.0,34.0 C 121.559,34.0865 130.302,44.2917 117.0,47.0 L 117.0,53.0 118.0,53.0 118.0,48.0 C 120.687,47.7305 122.57,47.1818 125.0,46.0 L 125.0,53.0 126.0,53.0 126.0,35.0 C 121.171,34.3068 117.023,33.0033 112.0,33.0 Z" />
	<path style="fill:#07080c;" d="M 164.0,33.0 L 164.0,34.0 168.0,34.0 C 166.494,33.317 165.685,33.1741 164.0,33.0 M 185.0,33.0 L 185.0,34.0 196.0,34.0 C 192.568,32.5597 188.7,33.0 185.0,33.0 M 203.0,33.0 L 203.0,34.0 213.0,34.0 C 209.837,32.6726 206.414,33.0004 203.0,33.0 M 219.0,35.0 L 219.0,36.0 C 221.539,35.4267 224.369,34.3157 227.0,34.7569 249.103,38.4646 223.393,68.073 215.781,45.9992 214.659,42.7453 215.365,38.4534 215.0,35.0 L 214.0,35.0 C 214.0,40.8553 212.18,51.8529 217.0,56.0 L 216.0,52.0 C 218.836,53.6187 221.651,55.504 225.0,55.7677 244.392,57.2948 238.678,25.5301 219.0,35.0 Z" />
	<path style="fill:#302f2b;" d="M 54.0,34.0 L 55.0,35.0 54.0,34.0 Z" />
	<path style="fill:#ceccc2;" d="M 55.0,34.0 L 56.0,35.0 55.0,34.0 Z" />
	<path style="fill:#615428;" d="M 224.0,34.0 L 224.0,35.0 228.0,35.0 C 226.494,34.317 225.685,34.1741 224.0,34.0 Z" />
	<path style="fill:#696868;" d="M 54.0,35.0 L 55.0,36.0 54.0,35.0 Z" />
	<path style="fill:#fee67f;" d="M 58.0,35.0 L 59.0,36.0 58.0,35.0 Z" />
	<path style="fill:#a58e28;" d="M 69.0,35.0 L 70.0,36.0 69.0,35.0 Z" />
	<path style="fill:#615428;" d="M 70.0,35.0 L 70.0,36.0 79.0,36.0 C 76.1103,34.7871 73.1259,35.0017 70.0,35.0 Z" />
	<path style="fill:#a58e28;" d="M 79.0,35.0 L 79.0,50.0 80.0,50.0 C 80.0,45.1834 80.8763,39.4714 79.0,35.0 Z" />
	<path style="fill:#cdb325;" d="M 82.0,35.0 L 82.0,53.0 83.0,53.0 C 83.0,47.3678 84.1914,40.2224 82.0,35.0 Z" />
	<path style="fill:#302f2b;" d="M 83.0,35.0 L 83.0,53.0 84.0,53.0 84.0,36.0 91.0,36.0 C 88.3873,34.9023 85.8355,35.0072 83.0,35.0 Z" />
	<path style="fill:#cdb325;" d="M 91.0,35.0 L 92.0,36.0 91.0,35.0 Z" />
	<path style="fill:#615428;" d="M 98.0,37.0 C 101.793,36.0997 104.794,35.5741 108.0,38.0 109.73,33.4104 99.8378,34.4826 98.0,37.0 Z" />
	<path style="fill:#cdb325;" d="M 109.0,35.0 L 109.0,38.0 110.0,38.0 C 109.749,36.5484 109.685,36.2484 109.0,35.0 Z" />
	<path style="fill:#ffec26;" d="M 110.0,35.0 L 110.0,53.0 111.0,53.0 C 111.0,47.3678 112.191,40.2224 110.0,35.0 Z" />
	<path style="fill:#615428;" d="M 112.0,35.0 L 112.0,53.0 113.0,53.0 113.0,36.0 121.0,36.0 C 118.11,34.787 115.126,35.0017 112.0,35.0 Z" />
	<path style="fill:#cdb325;" d="M 121.0,35.0 L 122.0,36.0 121.0,35.0 M 126.0,35.0 L 126.0,53.0 127.0,53.0 C 127.0,47.3678 128.191,40.2224 126.0,35.0 Z" />
	<path style="fill:#615428;" d="M 127.0,35.0 L 127.0,53.0 128.0,53.0 C 128.0,47.6104 126.635,40.4414 130.0,36.0 128.752,35.3152 128.452,35.2512 127.0,35.0 Z" />
	<path style="fill:#847129;" d="M 130.0,35.0 C 130.0,39.0792 128.741,45.1523 132.0,48.0 130.984,43.7332 131.673,38.9877 130.0,35.0 Z" />
	<path style="fill:#cdb325;" d="M 138.0,35.0 L 139.0,36.0 138.0,35.0 Z" />
	<path style="fill:#302f2b;" d="M 139.0,35.0 L 139.0,36.0 142.0,36.0 142.0,53.0 143.0,53.0 143.0,35.0 139.0,35.0 Z" />
	<path style="fill:#cdb325;" d="M 143.0,35.0 L 143.0,53.0 144.0,53.0 C 144.0,47.3677 145.191,40.2224 143.0,35.0 Z" />
	<path style="fill:#ffec26;" d="M 144.0,35.0 L 144.0,53.0 145.0,53.0 C 145.0,47.3678 146.191,40.2224 144.0,35.0 Z" />
	<path style="fill:#a58e28;" d="M 154.0,35.0 L 154.0,54.0 158.0,54.0 158.0,53.0 155.0,53.0 C 155.0,47.3677 156.191,40.2224 154.0,35.0 Z" />
	<path style="fill:#cdb325;" d="M 155.0,35.0 L 155.0,36.0 C 156.746,38.2785 156.857,41.1423 159.0,43.0 158.352,40.2908 158.058,37.7845 158.0,35.0 L 155.0,35.0 Z" />
	<path style="fill:#615428;" d="M 158.0,35.0 L 158.0,40.0 159.0,40.0 C 158.912,38.0359 158.779,36.769 158.0,35.0 Z" />
	<path style="fill:#07080c;" d="M 159.0,35.0 L 158.0,42.0 159.0,42.0 C 160.261,39.9902 161.19,38.2222 162.0,36.0 160.263,36.062 160.36,36.02 159.0,35.0 Z" />
	<path style="fill:#cdb325;" d="M 163.0,36.0 L 163.0,37.0 168.0,36.0 C 165.956,35.2256 165.155,35.4078 163.0,36.0 Z" />
	<path style="fill:#07080c;" d="M 169.0,35.0 C 166.131,38.1262 163.659,41.0812 162.0,45.0 165.177,42.568 169.139,39.2113 169.0,35.0 Z" />
	<path style="fill:#cdb325;" d="M 170.0,37.0 C 173.04,36.2757 175.878,36.0262 179.0,36.0 175.911,34.7041 172.307,34.3594 170.0,37.0 Z" />
	<path style="fill:#615428;" d="M 179.0,35.0 L 180.0,36.0 179.0,35.0 Z" />
	<path style="fill:#cdb325;" d="M 185.0,35.0 L 185.0,53.0 186.0,53.0 186.0,36.0 C 189.466,36.0115 192.196,35.8753 195.0,38.0 196.66,33.5977 187.726,35.0 185.0,35.0 M 203.0,35.0 L 203.0,36.0 212.0,36.0 212.0,50.0 213.0,50.0 213.0,35.0 203.0,35.0 Z" />
	<path style="fill:#615428;" d="M 221.0,35.0 L 222.0,36.0 221.0,35.0 Z" />
	<path style="fill:#ffec26;" d="M 222.019,35.8588 C 211.215,40.372 218.846,56.6826 229.981,52.3966 240.779,48.2404 232.981,31.2802 222.019,35.8588 Z" />
	<path style="fill:#a58e28;" d="M 229.0,35.0 L 230.0,36.0 229.0,35.0 Z" />
	<path style="fill:#615428;" d="M 230.0,35.0 L 231.0,36.0 230.0,35.0 Z" />
	<path style="fill:#302f2b;" d="M 53.0,36.0 L 54.0,37.0 53.0,36.0 Z" />
	<path style="fill:#ffec26;" d="M 67.0,36.0 C 66.2325,39.3569 65.3,42.56 65.0,46.0 L 66.0,46.0 C 66.9511,42.6145 68.2087,39.379 67.0,36.0 Z" />
	<path style="fill:#302f2b;" d="M 69.0,36.0 C 68.3535,42.4936 65.3353,48.4522 65.0,55.0 71.5262,50.8821 67.7564,40.5798 76.0,38.0 76.0,43.0977 73.9446,53.2287 80.0,55.0 L 79.0,37.0 C 75.5448,36.9905 72.3679,36.802 69.0,36.0 Z" />
	<path style="fill:#07080c;" d="M 70.0,36.0 L 70.0,37.0 79.0,37.0 C 76.1103,35.7871 73.1259,36.0017 70.0,36.0 M 84.0,36.0 L 84.0,53.0 C 98.6805,52.9579 97.6353,36.0482 84.0,36.0 Z" />
	<path style="fill:#847129;" d="M 92.0,36.0 L 93.0,37.0 92.0,36.0 Z" />
	<path style="fill:#07080c;" d="M 99.0,36.0 L 99.0,53.0 108.0,53.0 108.0,51.0 C 101.05,50.4694 101.05,45.5306 108.0,45.0 L 108.0,43.0 101.0,43.0 C 102.178,39.1177 104.048,38.3006 108.0,38.0 L 108.0,36.0 99.0,36.0 M 113.0,36.0 L 113.0,53.0 115.0,53.0 115.0,38.0 C 122.136,39.1373 118.723,42.1294 116.0,46.0 128.323,45.5987 123.036,36.0078 113.0,36.0 Z" />
	<path style="fill:#847129;" d="M 122.0,36.0 L 123.0,37.0 122.0,36.0 Z" />
	<path style="fill:#07080c;" d="M 128.0,36.0 L 128.0,53.0 C 135.398,50.8111 136.313,42.1899 141.0,37.0 141.0,42.3999 141.258,47.718 140.0,53.0 143.786,49.6915 142.0,40.7668 142.0,36.0 135.234,37.1603 132.383,46.2763 130.0,52.0 L 129.0,52.0 C 129.425,46.6178 130.0,41.4212 130.0,36.0 L 128.0,36.0 Z" />
	<path style="fill:#ffec26;" d="M 136.0,36.0 C 133.97,39.6646 131.803,42.8459 131.0,47.0 L 132.0,47.0 C 133.661,43.4827 136.909,39.9391 136.0,36.0 M 155.0,36.0 L 155.0,53.0 157.0,53.0 157.0,46.0 C 160.438,48.5174 162.84,51.7804 167.0,53.0 163.442,44.989 162.464,43.9435 167.0,36.0 162.714,37.2126 160.387,40.283 157.0,43.0 L 157.0,36.0 155.0,36.0 Z" />
	<path style="fill:#a58e28;" d="M 167.0,36.0 L 168.0,37.0 167.0,36.0 Z" />
	<path style="fill:#fdd527;" d="M 171.0,36.0 L 171.0,53.0 173.0,53.0 C 173.373,48.1084 175.108,46.3732 180.0,46.0 L 180.0,45.0 C 172.276,44.4032 173.013,37.7589 181.0,40.0 179.44,35.3002 175.346,36.0034 171.0,36.0 Z" />
	<path style="fill:#a58e28;" d="M 180.0,36.0 L 181.0,37.0 180.0,36.0 Z" />
	<path style="fill:#ffec26;" d="M 186.0,36.0 L 186.0,53.0 195.0,53.0 195.0,51.0 C 188.05,50.4694 188.05,45.5306 195.0,45.0 L 195.0,43.0 188.0,43.0 C 189.178,39.1177 191.048,38.3006 195.0,38.0 L 195.0,36.0 186.0,36.0 Z" />
	<path style="fill:#a58e28;" d="M 202.333,36.6667 C 202.278,36.7222 202.222,37.7778 202.667,37.3333 202.722,37.2777 202.778,36.2222 202.333,36.6667 Z" />
	<path style="fill:#ffec26;" d="M 203.0,36.0 C 202.035,42.5574 198.435,48.4386 198.0,55.0 204.364,53.5046 207.636,53.5046 214.0,55.0 213.571,48.5471 212.0,42.6452 212.0,36.0 L 203.0,36.0 Z" />
	<path style="fill:#cdb325;" d="M 220.0,36.0 L 221.0,37.0 220.0,36.0 Z" />
	<path style="fill:#a58e28;" d="M 231.0,36.0 L 232.0,37.0 231.0,36.0 Z" />
	<path style="fill:#302f2b;" d="M 12.0,37.0 L 12.0,77.0 13.0,77.0 C 13.0,65.566 16.411,47.512 12.0,37.0 Z" />
	<path style="fill:#949186;" d="M 53.0,37.0 L 54.0,38.0 53.0,37.0 Z" />
	<path style="fill:#fee67f;" d="M 57.0,37.0 L 58.0,38.0 57.0,37.0 Z" />
	<path style="fill:#a58e28;" d="M 68.3333,37.6667 C 68.2778,37.7223 68.2222,38.7778 68.6667,38.3333 68.7222,38.2778 68.7778,37.2222 68.3333,37.6667 Z" />
	<path style="fill:#847129;" d="M 93.0,37.0 L 94.0,38.0 93.0,37.0 M 98.0,37.0 L 98.0,53.0 99.0,53.0 C 99.0,47.9098 99.9822,41.7238 98.0,37.0 M 123.0,37.0 L 124.0,38.0 123.0,37.0 M 137.0,37.0 L 138.0,38.0 137.0,37.0 Z" />
	<path style="fill:#302f2b;" d="M 139.0,37.0 C 139.639,42.0524 140.0,46.8992 140.0,52.0 L 141.0,52.0 141.0,37.0 139.0,37.0 Z" />
	<path style="fill:#a58e28;" d="M 162.0,37.0 L 163.0,38.0 162.0,37.0 M 166.0,37.0 L 167.0,38.0 166.0,37.0 M 170.0,37.0 L 170.0,54.0 174.0,54.0 174.0,53.0 171.0,53.0 C 171.0,47.9098 171.982,41.7238 170.0,37.0 Z" />
	<path style="fill:#cdb325;" d="M 181.0,37.0 L 182.0,38.0 181.0,37.0 Z" />
	<path style="fill:#615428;" d="M 52.0,38.0 L 53.0,39.0 52.0,38.0 Z" />
	<path style="fill:#a58e28;" d="M 72.0,38.0 L 72.0,39.0 75.0,39.0 75.0,50.0 76.0,50.0 76.0,38.0 72.0,38.0 Z" />
	<path style="fill:#847129;" d="M 86.0,38.0 L 86.0,42.0 87.0,42.0 C 87.8993,39.8764 87.8764,39.8993 90.0,39.0 88.494,38.317 87.6852,38.1741 86.0,38.0 Z" />
	<path style="fill:#a58e28;" d="M 94.0,38.0 L 94.0,42.0 95.0,42.0 C 94.8259,40.3148 94.683,39.506 94.0,38.0 M 102.0,38.0 L 102.0,39.0 109.0,39.0 C 106.668,38.0155 104.543,38.0187 102.0,38.0 Z" />
	<path style="fill:#615428;" d="M 115.0,38.0 C 115.263,41.4098 115.679,42.9011 119.0,44.0 L 119.0,43.0 116.0,43.0 C 115.912,41.0359 115.779,39.769 115.0,38.0 Z" />
	<path style="fill:#a58e28;" d="M 116.0,38.0 L 116.0,39.0 119.0,39.0 C 117.752,38.3152 117.452,38.2512 116.0,38.0 Z" />
	<path style="fill:#615428;" d="M 119.0,38.0 L 120.0,39.0 119.0,38.0 Z" />
	<path style="fill:#cdb325;" d="M 124.0,38.0 L 125.0,39.0 124.0,38.0 Z" />
	<path style="fill:#847129;" d="M 161.0,38.0 L 162.0,39.0 161.0,38.0 Z" />
	<path style="fill:#cdb325;" d="M 165.0,38.0 L 166.0,39.0 165.0,38.0 Z" />
	<path style="fill:#847129;" d="M 174.0,38.0 L 174.0,39.0 177.0,39.0 C 175.752,38.3152 175.452,38.2512 174.0,38.0 Z" />
	<path style="fill:#a58e28;" d="M 177.0,38.0 L 178.0,39.0 177.0,38.0 Z" />
	<path style="fill:#ffec26;" d="M 181.0,38.0 C 179.208,41.2701 177.528,42.7744 174.0,44.0 L 174.0,45.0 C 178.89,44.942 183.344,43.7883 181.0,38.0 Z" />
	<path style="fill:#847129;" d="M 182.0,38.0 L 183.0,39.0 182.0,38.0 M 189.0,38.0 L 189.0,39.0 196.0,39.0 C 193.668,38.0155 191.543,38.0187 189.0,38.0 Z" />
	<path style="fill:#cdb325;" d="M 202.333,38.6667 C 202.278,38.7222 202.222,39.7778 202.667,39.3333 202.722,39.2777 202.778,38.2222 202.333,38.6667 Z" />
	<path style="fill:#847129;" d="M 206.0,38.0 L 206.0,39.0 209.0,39.0 C 207.752,38.3152 207.452,38.2512 206.0,38.0 Z" />
	<path style="fill:#a58e28;" d="M 223.0,38.0 L 224.0,39.0 223.0,38.0 Z" />
	<path style="fill:#302f2b;" d="M 224.0,38.0 L 224.0,39.0 228.0,39.0 C 226.494,38.317 225.685,38.1741 224.0,38.0 Z" />
	<path style="fill:#a58e28;" d="M 228.0,38.0 L 229.0,39.0 228.0,38.0 Z" />
	<path style="fill:#9e9e9e;" d="M 52.0,39.0 L 53.0,40.0 52.0,39.0 Z" />
	<path style="fill:#fee67f;" d="M 56.0,39.0 L 57.0,40.0 56.0,39.0 Z" />
	<path style="fill:#615428;" d="M 68.3333,39.6667 C 68.2778,39.7223 68.2222,40.7778 68.6667,40.3333 68.7222,40.2778 68.7778,39.2222 68.3333,39.6667 Z" />
	<path style="fill:#ffec26;" d="M 72.0,39.0 C 71.2409,42.6796 70.3065,46.2479 70.0,50.0 L 75.0,50.0 75.0,39.0 72.0,39.0 M 87.0,39.0 L 87.0,42.0 90.0,42.0 90.0,39.0 87.0,39.0 Z" />
	<path style="fill:#fdd527;" d="M 90.3333,39.6667 C 90.2777,39.7223 90.2222,40.7778 90.6667,40.3333 90.7222,40.2778 90.7778,39.2222 90.3333,39.6667 Z" />
	<path style="fill:#615428;" d="M 101.0,39.0 L 101.0,43.0 102.0,43.0 C 101.826,41.3148 101.683,40.506 101.0,39.0 Z" />
	<path style="fill:#cdb325;" d="M 102.0,39.0 L 102.0,42.0 103.0,42.0 C 102.749,40.5484 102.685,40.2484 102.0,39.0 Z" />
	<path style="fill:#ffec26;" d="M 103.0,39.0 L 103.0,42.0 108.0,42.0 108.0,41.0 104.0,41.0 104.0,40.0 109.0,40.0 C 106.948,39.1258 105.253,39.0472 103.0,39.0 Z" />
	<path style="fill:#fdd527;" d="M 116.0,39.0 L 116.0,43.0 117.0,43.0 119.0,40.0 116.0,39.0 Z" />
	<path style="fill:#ffec26;" d="M 117.0,39.0 L 117.0,40.0 119.0,41.0 C 117.686,41.7679 117.768,41.6858 117.0,43.0 L 121.0,42.0 121.0,40.0 117.0,39.0 Z" />
	<path style="fill:#a58e28;" d="M 120.0,39.0 L 121.0,40.0 120.0,39.0 Z" />
	<path style="fill:#847129;" d="M 124.0,39.0 L 124.0,43.0 125.0,43.0 C 124.826,41.3148 124.683,40.5061 124.0,39.0 Z" />
	<path style="fill:#615428;" d="M 136.0,39.0 L 137.0,40.0 136.0,39.0 M 160.0,39.0 L 161.0,40.0 160.0,39.0 Z" />
	<path style="fill:#cdb325;" d="M 173.0,39.0 L 173.0,43.0 174.0,43.0 C 173.826,41.3148 173.683,40.506 173.0,39.0 Z" />
	<path style="fill:#302f2b;" d="M 174.0,39.0 L 174.0,43.0 175.0,43.0 C 174.826,41.3148 174.683,40.506 174.0,39.0 Z" />
	<path style="fill:#07080c;" d="M 175.0,39.0 L 175.0,43.0 179.0,42.0 179.0,40.0 175.0,39.0 Z" />
	<path style="fill:#615428;" d="M 178.0,39.0 L 179.0,40.0 178.0,39.0 Z" />
	<path style="fill:#cdb325;" d="M 182.0,39.0 L 182.0,43.0 183.0,43.0 C 182.826,41.3148 182.683,40.506 182.0,39.0 M 188.0,39.0 L 188.0,43.0 189.0,43.0 C 188.826,41.3148 188.683,40.506 188.0,39.0 Z" />
	<path style="fill:#302f2b;" d="M 189.0,39.0 L 189.0,42.0 190.0,42.0 C 189.749,40.5485 189.685,40.2483 189.0,39.0 Z" />
	<path style="fill:#07080c;" d="M 190.0,39.0 L 190.0,42.0 196.0,42.0 196.0,41.0 191.0,41.0 191.0,40.0 196.0,40.0 C 193.948,39.1257 192.253,39.0472 190.0,39.0 Z" />
	<path style="fill:#847129;" d="M 201.333,39.6667 C 201.278,39.7222 201.222,40.7778 201.667,40.3333 201.722,40.2777 201.778,39.2222 201.333,39.6667 Z" />
	<path style="fill:#615428;" d="M 205.333,39.6667 C 205.278,39.7222 205.222,40.7777 205.667,40.3333 205.722,40.2777 205.778,39.2222 205.333,39.6667 Z" />
	<path style="fill:#302f2b;" d="M 206.0,39.0 C 204.836,42.6411 203.775,46.2549 203.0,50.0 L 209.0,50.0 209.0,39.0 206.0,39.0 Z" />
	<path style="fill:#a58e28;" d="M 209.0,39.0 L 209.0,50.0 210.0,50.0 C 210.0,46.2998 210.44,42.4324 209.0,39.0 Z" />
	<path style="fill:#cdb325;" d="M 221.0,39.0 L 220.0,41.0 C 221.263,40.0286 221.392,40.3063 221.0,39.0 Z" />
	<path style="fill:#07080c;" d="M 231.0,46.0 C 221.758,50.8638 219.313,40.737 229.0,40.0 214.008,33.7832 223.611,59.3979 231.0,46.0 Z" />
	<path style="fill:#615428;" d="M 229.0,39.0 L 230.0,40.0 229.0,39.0 Z" />
	<path style="fill:#a58e28;" d="M 234.0,39.0 L 235.0,40.0 234.0,39.0 Z" />
	<path style="fill:#615428;" d="M 51.0,40.0 L 52.0,41.0 51.0,40.0 Z" />
	<path style="fill:#fff3ba;" d="M 55.0,40.0 L 56.0,41.0 55.0,40.0 Z" />
	<path style="fill:#a58e28;" d="M 67.0,40.0 L 67.0,43.0 68.0,43.0 C 67.7488,41.5484 67.6848,41.2484 67.0,40.0 M 71.3333,40.6667 C 71.2778,40.7222 71.2222,41.7778 71.6667,41.3333 71.7222,41.2778 71.7778,40.2222 71.3333,40.6667 M 135.0,40.0 L 136.0,41.0 135.0,40.0 Z" />
	<path style="fill:#615428;" d="M 138.667,40.3333 C 138.222,40.7778 139.278,40.7222 139.333,40.6667 139.778,40.2222 138.722,40.2778 138.667,40.3333 M 164.0,40.0 L 165.0,41.0 164.0,40.0 Z" />
	<path style="fill:#cdb325;" d="M 179.333,40.6667 C 179.278,40.7222 179.222,41.7778 179.667,41.3333 179.722,41.2777 179.778,40.2222 179.333,40.6667 Z" />
	<path style="fill:#847129;" d="M 216.0,40.0 L 217.0,41.0 216.0,40.0 Z" />
	<path style="fill:#302f2b;" d="M 232.0,47.0 C 231.04,29.668 214.577,50.0921 226.971,48.3866 L 232.0,47.0 Z" />
	<path style="fill:#615428;" d="M 235.0,40.0 L 236.0,41.0 235.0,40.0 Z" />
	<path style="fill:#9e9e9e;" d="M 51.0,41.0 L 52.0,42.0 51.0,41.0 Z" />
	<path style="fill:#847129;" d="M 90.0,41.0 L 91.0,42.0 90.0,41.0 M 138.0,41.0 C 139.033,45.3378 139.0,49.5615 139.0,54.0 L 143.0,54.0 143.0,53.0 140.0,53.0 C 140.0,49.1044 141.11,43.7175 138.0,41.0 Z" />
	<path style="fill:#a58e28;" d="M 159.0,41.0 L 160.0,42.0 159.0,41.0 Z" />
	<path style="fill:#615428;" d="M 163.0,41.0 L 164.0,42.0 163.0,41.0 Z" />
	<path style="fill:#cdb325;" d="M 201.333,41.6667 C 201.278,41.7222 201.222,42.7778 201.667,42.3333 201.722,42.2777 201.778,41.2222 201.333,41.6667 Z" />
	<path style="fill:#a58e28;" d="M 204.0,41.0 L 204.0,44.0 205.0,44.0 C 204.749,42.5484 204.685,42.2483 204.0,41.0 Z" />
	<path style="fill:#615428;" d="M 215.333,41.6667 C 215.278,41.7222 215.222,42.7778 215.667,42.3333 215.722,42.2777 215.778,41.2222 215.333,41.6667 Z" />
	<path style="fill:#fdd527;" d="M 216.0,41.0 L 216.0,48.0 217.0,48.0 C 216.981,45.4566 216.985,43.3316 216.0,41.0 Z" />
	<path style="fill:#615428;" d="M 231.0,41.0 L 232.0,42.0 231.0,41.0 Z" />
	<path style="fill:#fdd527;" d="M 235.0,41.0 L 235.0,47.0 236.0,47.0 C 235.953,44.7472 235.874,43.0521 235.0,41.0 Z" />
	<path style="fill:#696868;" d="M 50.0,42.0 L 51.0,43.0 50.0,42.0 Z" />
	<path style="fill:#fff3ba;" d="M 54.0,42.0 L 55.0,43.0 54.0,42.0 Z" />
	<path style="fill:#615428;" d="M 70.3333,42.6667 C 70.2778,42.7222 70.2222,43.7778 70.6667,43.3333 70.7222,43.2778 70.7778,42.2222 70.3333,42.6667 Z" />
	<path style="fill:#302f2b;" d="M 85.0,42.0 L 85.0,45.0 86.0,45.0 87.0,42.0 85.0,42.0 Z" />
	<path style="fill:#615428;" d="M 87.0,42.0 L 87.0,43.0 90.0,43.0 C 88.7516,42.3152 88.4516,42.2512 87.0,42.0 Z" />
	<path style="fill:#a58e28;" d="M 93.0,42.0 L 94.0,43.0 93.0,42.0 M 102.0,42.0 L 102.0,43.0 109.0,43.0 C 106.668,42.0155 104.543,42.0187 102.0,42.0 Z" />
	<path style="fill:#615428;" d="M 120.0,42.0 L 121.0,43.0 120.0,42.0 Z" />
	<path style="fill:#847129;" d="M 134.0,42.0 L 135.0,43.0 134.0,42.0 Z" />
	<path style="fill:#615428;" d="M 137.0,42.0 L 138.0,43.0 137.0,42.0 Z" />
	<path style="fill:#847129;" d="M 162.0,42.0 L 163.0,43.0 162.0,42.0 Z" />
	<path style="fill:#a58e28;" d="M 178.0,42.0 L 179.0,43.0 178.0,42.0 Z" />
	<path style="fill:#847129;" d="M 189.0,42.0 L 189.0,43.0 195.0,43.0 C 192.948,42.1257 191.253,42.0472 189.0,42.0 M 219.0,42.0 L 219.0,46.0 220.0,46.0 C 219.826,44.3148 219.683,43.506 219.0,42.0 Z" />
	<path style="fill:#a58e28;" d="M 232.0,42.0 L 232.0,46.0 233.0,46.0 C 232.826,44.3148 232.683,43.506 232.0,42.0 Z" />
	<path style="fill:#615428;" d="M 236.0,42.0 L 236.0,47.0 237.0,47.0 C 236.912,45.0359 236.779,43.769 236.0,42.0 Z" />
	<path style="fill:#bdbfbe;" d="M 50.0,43.0 L 51.0,44.0 50.0,43.0 Z" />
	<path style="fill:#615428;" d="M 108.0,43.0 L 108.0,46.0 109.0,46.0 C 108.749,44.5484 108.685,44.2484 108.0,43.0 Z" />
	<path style="fill:#302f2b;" d="M 114.0,43.0 L 115.0,47.0 116.0,47.0 116.0,43.0 114.0,43.0 Z" />
	<path style="fill:#cdb325;" d="M 133.0,43.0 L 134.0,44.0 133.0,43.0 M 137.0,43.0 L 138.0,44.0 137.0,43.0 Z" />
	<path style="fill:#615428;" d="M 161.333,43.6667 C 161.278,43.7222 161.222,44.7778 161.667,44.3333 161.722,44.2777 161.778,43.2222 161.333,43.6667 Z" />
	<path style="fill:#a58e28;" d="M 174.0,43.0 L 174.0,44.0 177.0,44.0 C 175.752,43.3152 175.452,43.2512 174.0,43.0 Z" />
	<path style="fill:#615428;" d="M 182.0,43.0 L 183.0,44.0 182.0,43.0 Z" />
	<path style="fill:#a58e28;" d="M 195.0,43.0 L 195.0,46.0 196.0,46.0 C 195.749,44.5484 195.685,44.2484 195.0,43.0 Z" />
	<path style="fill:#847129;" d="M 200.333,43.6667 C 200.278,43.7222 200.222,44.7778 200.667,44.3333 200.722,44.2777 200.778,43.2222 200.333,43.6667 M 215.0,43.0 L 215.0,47.0 216.0,47.0 C 215.826,45.3148 215.683,44.506 215.0,43.0 Z" />
	<path style="fill:#9e9e9e;" d="M 49.3333,44.6667 C 49.2778,44.7222 49.2222,45.7778 49.6667,45.3333 49.7222,45.2778 49.7778,44.2222 49.3333,44.6667 Z" />
	<path style="fill:#fee67f;" d="M 53.3333,44.6667 C 53.2778,44.7222 53.2222,45.7778 53.6667,45.3333 53.7222,45.2778 53.7778,44.2222 53.3333,44.6667 Z" />
	<path style="fill:#a58e28;" d="M 66.3333,44.6667 C 66.2778,44.7222 66.2222,45.7778 66.6667,45.3333 66.7222,45.2778 66.7778,44.2222 66.3333,44.6667 M 70.3333,44.6667 C 70.2778,44.7222 70.2222,45.7778 70.6667,45.3333 70.7222,45.2778 70.7778,44.2222 70.3333,44.6667 Z" />
	<path style="fill:#cdb325;" d="M 94.0,44.0 L 95.0,45.0 94.0,44.0 M 123.0,44.0 L 124.0,45.0 123.0,44.0 Z" />
	<path style="fill:#615428;" d="M 133.0,44.0 L 134.0,45.0 133.0,44.0 Z" />
	<path style="fill:#847129;" d="M 136.0,44.0 L 137.0,45.0 136.0,44.0 M 181.0,44.0 L 182.0,45.0 181.0,44.0 Z" />
	<path style="fill:#cdb325;" d="M 203.0,44.0 L 203.0,47.0 204.0,47.0 C 203.749,45.5484 203.685,45.2484 203.0,44.0 Z" />
	<path style="fill:#847129;" d="M 86.0,45.0 L 86.0,50.0 87.0,50.0 C 87.6736,47.7026 87.9653,47.2259 90.0,46.0 88.494,45.317 87.6852,45.1741 86.0,45.0 Z" />
	<path style="fill:#615428;" d="M 90.0,45.0 L 91.0,46.0 90.0,45.0 Z" />
	<path style="fill:#302f2b;" d="M 102.0,45.0 L 102.0,46.0 108.0,46.0 C 105.948,45.1258 104.253,45.0472 102.0,45.0 Z" />
	<path style="fill:#cdb325;" d="M 122.0,45.0 L 123.0,46.0 122.0,45.0 Z" />
	<path style="fill:#a58e28;" d="M 132.0,45.0 L 133.0,46.0 132.0,45.0 Z" />
	<path style="fill:#615428;" d="M 162.0,45.0 L 163.0,46.0 162.0,45.0 Z" />
	<path style="fill:#847129;" d="M 180.0,45.0 L 181.0,46.0 180.0,45.0 Z" />
	<path style="fill:#cdb325;" d="M 189.0,45.0 L 189.0,46.0 195.0,46.0 C 192.948,45.1257 191.253,45.0472 189.0,45.0 M 200.333,45.6667 C 200.278,45.7222 200.222,46.7778 200.667,46.3333 200.722,46.2778 200.778,45.2222 200.333,45.6667 Z" />
	<path style="fill:#302f2b;" d="M 49.0,46.0 L 50.0,47.0 49.0,46.0 Z" />
	<path style="fill:#615428;" d="M 66.3333,46.6667 C 66.2778,46.7222 66.2222,47.7778 66.6667,47.3333 66.7222,47.2778 66.7778,46.2222 66.3333,46.6667 M 69.3333,46.6667 C 69.2778,46.7222 69.2222,47.7778 69.6667,47.3333 69.7222,47.2778 69.7778,46.2222 69.3333,46.6667 Z" />
	<path style="fill:#ffec26;" d="M 87.0,46.0 L 87.0,50.0 C 88.8781,49.8241 90.1994,49.5618 92.0,49.0 L 92.0,47.0 C 90.1994,46.4382 88.8782,46.1759 87.0,46.0 Z" />
	<path style="fill:#847129;" d="M 91.0,46.0 L 92.0,47.0 91.0,46.0 M 95.0,46.0 L 95.0,50.0 96.0,50.0 C 95.8259,48.3148 95.683,47.506 95.0,46.0 Z" />
	<path style="fill:#615428;" d="M 101.0,46.0 L 101.0,50.0 102.0,50.0 C 101.826,48.3148 101.683,47.506 101.0,46.0 Z" />
	<path style="fill:#847129;" d="M 116.0,46.0 L 116.0,47.0 121.0,47.0 C 119.231,46.2211 117.964,46.0876 116.0,46.0 Z" />
	<path style="fill:#302f2b;" d="M 132.0,46.0 L 133.0,47.0 132.0,46.0 Z" />
	<path style="fill:#a58e28;" d="M 135.0,46.0 L 136.0,47.0 135.0,46.0 Z" />
	<path style="fill:#cdb325;" d="M 157.0,46.0 L 157.0,53.0 158.0,53.0 C 157.981,50.4566 157.985,48.3316 157.0,46.0 Z" />
	<path style="fill:#847129;" d="M 158.0,46.0 L 159.0,47.0 158.0,46.0 Z" />
	<path style="fill:#07080c;" d="M 164.0,46.0 C 164.936,47.9486 165.392,48.5502 167.0,50.0 166.064,48.0515 165.608,47.4498 164.0,46.0 Z" />
	<path style="fill:#847129;" d="M 174.0,46.0 L 174.0,47.0 179.0,47.0 C 177.231,46.2211 175.964,46.0876 174.0,46.0 Z" />
	<path style="fill:#cdb325;" d="M 188.0,46.0 L 188.0,50.0 189.0,50.0 C 188.826,48.3148 188.683,47.506 188.0,46.0 Z" />
	<path style="fill:#847129;" d="M 199.0,46.0 L 199.0,49.0 200.0,49.0 C 199.749,47.5484 199.685,47.2483 199.0,46.0 Z" />
	<path style="fill:#a58e28;" d="M 219.0,46.0 L 220.0,47.0 219.0,46.0 Z" />
	<path style="fill:#949186;" d="M 50.0,47.0 L 51.0,48.0 50.0,47.0 Z" />
	<path style="fill:#fff3ba;" d="M 54.3333,47.6667 C 54.2778,47.7222 54.2222,48.7778 54.6667,48.3333 54.7222,48.2778 54.7778,47.2222 54.3333,47.6667 Z" />
	<path style="fill:#302f2b;" d="M 92.3333,47.6667 C 92.2778,47.7222 92.2222,48.7778 92.6667,48.3333 92.7222,48.2778 92.7778,47.2222 92.3333,47.6667 Z" />
	<path style="fill:#ffec26;" d="M 103.0,50.0 L 109.0,49.0 109.0,47.0 C 105.806,47.0135 103.729,46.5971 103.0,50.0 Z" />
	<path style="fill:#615428;" d="M 115.0,47.0 L 115.0,53.0 116.0,53.0 C 115.953,50.7472 115.874,49.0521 115.0,47.0 Z" />
	<path style="fill:#302f2b;" d="M 129.0,47.0 L 129.0,52.0 130.0,52.0 C 130.993,49.3813 131.17,48.7783 129.0,47.0 Z" />
	<path style="fill:#615428;" d="M 134.0,47.0 L 135.0,48.0 134.0,47.0 M 158.0,47.0 L 158.0,54.0 159.0,54.0 C 159.11,51.558 159.428,49.3772 160.0,47.0 L 158.0,47.0 Z" />
	<path style="fill:#cdb325;" d="M 163.0,47.0 L 164.0,48.0 163.0,47.0 M 173.0,47.0 L 173.0,53.0 174.0,53.0 C 173.953,50.7472 173.874,49.0521 173.0,47.0 Z" />
	<path style="fill:#07080c;" d="M 190.0,47.0 L 190.0,49.0 196.0,49.0 196.0,47.0 190.0,47.0 Z" />
	<path style="fill:#847129;" d="M 203.0,47.0 L 204.0,48.0 203.0,47.0 Z" />
	<path style="fill:#615428;" d="M 220.0,47.0 L 221.0,48.0 220.0,47.0 Z" />
	<path style="fill:#847129;" d="M 231.0,47.0 L 232.0,48.0 231.0,47.0 Z" />
	<path style="fill:#a58e28;" d="M 235.0,47.0 L 236.0,48.0 235.0,47.0 Z" />
	<path style="fill:#ceccc2;" d="M 51.0,48.0 L 52.0,49.0 51.0,48.0 Z" />
	<path style="fill:#847129;" d="M 65.3333,48.6667 C 65.2778,48.7222 65.2222,49.7778 65.6667,49.3333 65.7222,49.2778 65.7778,48.2222 65.3333,48.6667 Z" />
	<path style="fill:#cdb325;" d="M 69.3333,48.6667 C 69.2778,48.7222 69.2222,49.7778 69.6667,49.3333 69.7222,49.2778 69.7778,48.2222 69.3333,48.6667 M 134.0,48.0 L 135.0,49.0 134.0,48.0 Z" />
	<path style="fill:#07080c;" d="M 159.0,48.0 L 159.0,53.0 160.0,53.0 161.0,51.0 C 162.684,54.3452 164.302,55.4258 168.0,56.0 L 168.0,54.0 C 164.177,52.9208 161.975,50.531 159.0,48.0 Z" />
	<path style="fill:#a58e28;" d="M 160.0,48.0 L 161.0,49.0 160.0,48.0 M 164.0,48.0 L 165.0,49.0 164.0,48.0 Z" />
	<path style="fill:#cdb325;" d="M 202.333,48.6667 C 202.278,48.7222 202.222,49.7778 202.667,49.3333 202.722,49.2777 202.778,48.2222 202.333,48.6667 Z" />
	<path style="fill:#847129;" d="M 216.0,48.0 L 217.0,49.0 216.0,48.0 Z" />
	<path style="fill:#615428;" d="M 221.0,48.0 L 222.0,49.0 221.0,48.0 M 230.0,48.0 L 231.0,49.0 230.0,48.0 M 235.0,48.0 L 236.0,49.0 235.0,48.0 Z" />
	<path style="fill:#949186;" d="M 51.0,49.0 L 52.0,50.0 51.0,49.0 Z" />
	<path style="fill:#615428;" d="M 91.0,49.0 L 92.0,50.0 91.0,49.0 Z" />
	<path style="fill:#847129;" d="M 133.0,49.0 L 134.0,50.0 133.0,49.0 Z" />
	<path style="fill:#cdb325;" d="M 161.0,49.0 L 162.0,50.0 161.0,49.0 Z" />
	<path style="fill:#847129;" d="M 165.0,49.0 L 166.0,50.0 165.0,49.0 Z" />
	<path style="fill:#a58e28;" d="M 217.0,49.0 L 218.0,50.0 217.0,49.0 Z" />
	<path style="fill:#615428;" d="M 222.0,49.0 L 223.0,50.0 222.0,49.0 Z" />
	<path style="fill:#847129;" d="M 229.0,49.0 L 230.0,50.0 229.0,49.0 Z" />
	<path style="fill:#a58e28;" d="M 234.0,49.0 L 235.0,50.0 234.0,49.0 Z" />
	<path style="fill:#bdbfbe;" d="M 52.0,50.0 L 53.0,51.0 52.0,50.0 Z" />
	<path style="fill:#847129;" d="M 64.0,50.0 L 65.0,51.0 64.0,50.0 Z" />
	<path style="fill:#615428;" d="M 69.0,50.0 L 69.0,51.0 76.0,51.0 C 73.6685,50.0155 71.5433,50.0187 69.0,50.0 Z" />
	<path style="fill:#847129;" d="M 80.0,50.0 L 80.0,56.0 81.0,56.0 C 80.9528,53.7472 80.8742,52.0521 80.0,50.0 Z" />
	<path style="fill:#615428;" d="M 87.0,50.0 L 87.0,51.0 90.0,51.0 C 88.7516,50.3152 88.4516,50.2512 87.0,50.0 M 102.0,50.0 L 102.0,51.0 C 104.612,51.1744 105.943,51.4181 108.0,53.0 109.356,49.402 104.535,50.0104 102.0,50.0 M 161.0,50.0 L 162.0,51.0 161.0,50.0 M 166.0,50.0 L 167.0,51.0 166.0,50.0 Z" />
	<path style="fill:#cdb325;" d="M 189.0,50.0 L 189.0,51.0 C 191.612,51.1744 192.943,51.4181 195.0,53.0 195.542,49.7145 191.575,50.0421 189.0,50.0 Z" />
	<path style="fill:#a58e28;" d="M 195.0,50.0 L 196.0,51.0 195.0,50.0 Z" />
	<path style="fill:#07080c;" d="M 196.0,50.0 L 196.0,54.0 186.0,54.0 186.0,55.0 197.0,55.0 C 196.912,53.0359 196.779,51.769 196.0,50.0 Z" />
	<path style="fill:#615428;" d="M 197.0,50.0 L 197.0,56.0 198.0,56.0 C 197.953,53.7472 197.874,52.0521 197.0,50.0 Z" />
	<path style="fill:#cdb325;" d="M 203.0,50.0 L 203.0,51.0 209.0,51.0 C 206.948,50.1257 205.253,50.0472 203.0,50.0 Z" />
	<path style="fill:#615428;" d="M 214.0,50.0 L 214.0,56.0 215.0,56.0 C 214.953,53.7472 214.874,52.0521 214.0,50.0 Z" />
	<path style="fill:#cdb325;" d="M 218.0,50.0 L 219.0,51.0 218.0,50.0 Z" />
	<path style="fill:#847129;" d="M 223.0,50.0 L 223.0,51.0 228.0,51.0 C 226.231,50.2211 224.964,50.0876 223.0,50.0 Z" />
	<path style="fill:#a58e28;" d="M 233.0,50.0 L 234.0,51.0 233.0,50.0 Z" />
	<path style="fill:#696868;" d="M 52.0,51.0 L 53.0,52.0 52.0,51.0 Z" />
	<path style="fill:#615428;" d="M 64.0,51.0 L 64.0,56.0 C 66.7386,55.7893 67.422,55.6975 68.0,53.0 L 67.0,53.0 C 66.4549,54.6352 66.6352,54.4549 65.0,55.0 64.8259,53.3148 64.683,52.5061 64.0,51.0 Z" />
	<path style="fill:#07080c;" d="M 68.0,52.0 L 68.0,53.0 77.0,53.0 C 74.0265,50.7489 71.5126,50.9726 68.0,52.0 Z" />
	<path style="fill:#cdb325;" d="M 94.0,51.0 L 95.0,52.0 94.0,51.0 Z" />
	<path style="fill:#a58e28;" d="M 132.0,51.0 L 133.0,52.0 132.0,51.0 Z" />
	<path style="fill:#847129;" d="M 162.0,51.0 L 163.0,52.0 162.0,51.0 Z" />
	<path style="fill:#cdb325;" d="M 219.0,51.0 L 220.0,52.0 219.0,51.0 Z" />
	<path style="fill:#a58e28;" d="M 232.0,51.0 L 233.0,52.0 232.0,51.0 Z" />
	<path style="fill:#bdbfbe;" d="M 53.0,52.0 L 54.0,53.0 53.0,52.0 Z" />
	<path style="fill:#615428;" d="M 92.0,52.0 L 93.0,53.0 92.0,52.0 M 131.0,52.0 L 132.0,53.0 131.0,52.0 Z" />
	<path style="fill:#a58e28;" d="M 163.0,52.0 L 164.0,53.0 163.0,52.0 M 167.0,52.0 C 165.521,52.9857 165.797,53.0 164.0,53.0 L 164.0,54.0 C 165.944,53.8586 167.84,54.035 167.0,52.0 Z" />
	<path style="fill:#847129;" d="M 220.0,52.0 L 221.0,53.0 220.0,52.0 M 231.0,52.0 L 232.0,53.0 231.0,52.0 Z" />
	<path style="fill:#696868;" d="M 53.0,53.0 L 54.0,54.0 53.0,53.0 Z" />
	<path style="fill:#a58e28;" d="M 68.0,53.0 L 68.0,54.0 77.0,54.0 C 74.1103,52.7871 71.1259,53.0017 68.0,53.0 M 83.0,53.0 L 83.0,54.0 90.0,54.0 C 87.6685,53.0155 85.5433,53.0187 83.0,53.0 Z" />
	<path style="fill:#cdb325;" d="M 90.6667,53.3333 C 90.2222,53.7778 91.2778,53.7222 91.3333,53.6667 91.7778,53.2222 90.7222,53.2778 90.6667,53.3333 Z" />
	<path style="fill:#a58e28;" d="M 98.0,53.0 L 98.0,54.0 109.0,54.0 C 105.568,52.5597 101.7,53.0 98.0,53.0 Z" />
	<path style="fill:#847129;" d="M 112.0,53.0 L 112.0,54.0 116.0,54.0 C 114.494,53.317 113.685,53.1741 112.0,53.0 M 127.0,53.0 L 127.0,54.0 131.0,54.0 C 129.494,53.317 128.685,53.1741 127.0,53.0 M 185.0,53.0 L 185.0,54.0 196.0,54.0 C 192.568,52.5597 188.7,53.0 185.0,53.0 Z" />
	<path style="fill:#a58e28;" d="M 201.0,56.0 L 202.0,56.0 C 204.872,53.8353 207.128,53.8353 210.0,56.0 212.073,52.0311 201.986,51.4 201.0,56.0 M 222.667,53.3333 C 222.222,53.7778 223.278,53.7222 223.333,53.6667 223.778,53.2222 222.722,53.2778 222.667,53.3333 Z" />
	<path style="fill:#cdb325;" d="M 224.0,53.0 L 224.0,54.0 229.0,54.0 C 227.231,53.2211 225.964,53.0876 224.0,53.0 Z" />
	<path style="fill:#847129;" d="M 229.0,53.0 L 230.0,54.0 229.0,53.0 Z" />
	<path style="fill:#bdbfbe;" d="M 54.0,54.0 L 55.0,55.0 54.0,54.0 Z" />
	<path style="fill:#ffec26;" d="M 69.0,56.0 C 71.5925,55.4924 73.4075,55.4924 76.0,56.0 73.9003,53.5966 71.0997,53.5966 69.0,56.0 M 99.0,54.0 L 99.0,55.0 109.0,55.0 C 105.837,53.6726 102.414,54.0004 99.0,54.0 Z" />
	<path style="fill:#07080c;" d="M 202.0,54.0 L 202.0,55.0 C 204.73,55.1174 207.314,55.4992 210.0,56.0 207.896,53.5911 205.094,54.0103 202.0,54.0 Z" />
	<path style="fill:#302f2b;" d="M 224.0,54.0 L 224.0,55.0 228.0,55.0 C 226.494,54.317 225.685,54.1741 224.0,54.0 Z" />
	<path style="fill:#696868;" d="M 54.0,55.0 L 55.0,56.0 54.0,55.0 Z" />
	<path style="fill:#615428;" d="M 77.0,55.0 L 77.0,56.0 80.0,56.0 C 78.7517,55.3152 78.4516,55.2512 77.0,55.0 Z" />
	<path style="fill:#cdb325;" d="M 198.0,55.0 L 198.0,56.0 201.0,56.0 C 199.752,55.3152 199.452,55.2512 198.0,55.0 M 211.0,55.0 L 211.0,56.0 214.0,56.0 C 212.752,55.3152 212.452,55.2512 211.0,55.0 Z" />
	<path style="fill:#9e9e9e;" d="M 55.0,56.0 L 56.0,57.0 55.0,56.0 Z" />
	<path style="fill:#fee67f;" d="M 59.0,56.0 L 60.0,57.0 59.0,56.0 Z" />
	<path style="fill:#696868;" d="M 20.0,58.0 L 20.0,59.0 24.0,59.0 C 22.1897,57.7603 22.2231,57.8163 20.0,58.0 Z" />
	<path style="fill:#615428;" d="M 55.0,57.0 L 56.0,58.0 55.0,57.0 Z" />
	<path style="fill:#fefefe;" d="M 21.6667,58.3333 C 21.2222,58.7778 22.2778,58.7222 22.3333,58.6667 22.7778,58.2222 21.7222,58.2778 21.6667,58.3333 Z" />
	<path style="fill:#9e9e9e;" d="M 56.0,58.0 L 57.0,59.0 56.0,58.0 Z" />
	<path style="fill:#fee67f;" d="M 60.0,58.0 L 61.0,59.0 60.0,58.0 Z" />
	<path style="fill:#9e9e9e;" d="M 21.6667,59.3333 C 21.2222,59.7778 22.2778,59.7222 22.3333,59.6667 22.7778,59.2222 21.7222,59.2778 21.6667,59.3333 Z" />
	<path style="fill:#302f2b;" d="M 23.0,59.0 L 24.0,60.0 23.0,59.0 Z" />
	<path style="fill:#615428;" d="M 56.0,59.0 L 57.0,60.0 56.0,59.0 Z" />
	<path style="fill:#9e9e9e;" d="M 57.0,60.0 L 58.0,61.0 57.0,60.0 Z" />
	<path style="fill:#fee67f;" d="M 61.0,60.0 L 62.0,61.0 61.0,60.0 Z" />
	<path style="fill:#a58e28;" d="M 18.0,61.0 L 18.0,82.0 19.0,82.0 C 19.0,75.5639 20.5005,66.959 18.0,61.0 Z" />
	<path style="fill:#302f2b;" d="M 57.0,61.0 L 58.0,62.0 57.0,61.0 Z" />
	<path style="fill:#9e9e9e;" d="M 58.0,62.0 L 59.0,63.0 58.0,62.0 Z" />
	<path style="fill:#fff3ba;" d="M 62.0,62.0 L 62.0,63.0 149.0,63.0 C 141.601,59.895 130.007,62.0 122.0,62.0 L 62.0,62.0 Z" />
	<path style="fill:#bdbfbe;" d="M 149.0,62.0 L 149.0,63.0 241.0,63.0 C 233.361,59.7944 221.271,62.0 213.0,62.0 L 149.0,62.0 Z" />
	<path style="fill:#302f2b;" d="M 58.0,63.0 L 59.0,64.0 58.0,63.0 Z" />
	<path style="fill:#949186;" d="M 59.0,64.0 L 60.0,65.0 59.0,64.0 M 60.0,66.0 L 61.0,67.0 60.0,66.0 M 61.0,68.0 L 62.0,69.0 61.0,68.0 M 62.0,70.0 L 63.0,71.0 62.0,70.0 Z" />
	<path style="fill:#ceccc2;" d="M 63.0,71.0 L 64.0,72.0 63.0,71.0 Z" />
	<path style="fill:#949186;" d="M 63.0,72.0 L 64.0,73.0 63.0,72.0 Z" />
	<path style="fill:#ceccc2;" d="M 64.0,73.0 L 65.0,74.0 64.0,73.0 Z" />
	<path style="fill:#696868;" d="M 64.0,74.0 L 65.0,75.0 64.0,74.0 Z" />
	<path style="fill:#bdbfbe;" d="M 65.0,75.0 L 66.0,76.0 65.0,75.0 Z" />
	<path style="fill:#696868;" d="M 65.0,76.0 L 66.0,77.0 65.0,76.0 Z" />
	<path style="fill:#ceccc2;" d="M 0.0,77.0 L 0.0,78.0 13.0,78.0 C 9.0413,76.3389 4.2634,77.0 0.0,77.0 Z" />
	<path style="fill:#bdbfbe;" d="M 13.0,77.0 L 14.0,78.0 13.0,77.0 Z" />
	<path style="fill:#9e9e9e;" d="M 66.0,77.0 L 67.0,78.0 66.0,77.0 Z" />
	<path style="fill:#bdbfbe;" d="M 14.0,78.0 L 15.0,79.0 14.0,78.0 Z" />
	<path style="fill:#696868;" d="M 38.0,78.0 L 38.0,79.0 41.0,79.0 C 39.7516,78.3152 39.4516,78.2512 38.0,78.0 Z" />
	<path style="fill:#ceccc2;" d="M 41.0,78.0 L 41.0,79.0 67.0,79.0 C 59.8314,75.9919 48.761,78.0 41.0,78.0 Z" />
	<path style="fill:#bdbfbe;" d="M 15.0,79.0 L 16.0,80.0 15.0,79.0 Z" />
	<path style="fill:#696868;" d="M 32.6667,79.3333 C 32.2222,79.7778 33.2778,79.7222 33.3333,79.6667 33.7778,79.2222 32.7222,79.2778 32.6667,79.3333 Z" />
	<path style="fill:#9e9e9e;" d="M 34.6667,79.3333 C 34.2222,79.7778 35.2778,79.7222 35.3333,79.6667 35.7778,79.2222 34.7222,79.2778 34.6667,79.3333 Z" />
	<path style="fill:#ceccc2;" d="M 36.0,79.0 L 36.0,80.0 39.0,80.0 C 37.7516,79.3152 37.4516,79.2512 36.0,79.0 Z" />
	<path style="fill:#bdbfbe;" d="M 16.0,80.0 L 17.0,81.0 16.0,80.0 Z" />
	<path style="fill:#615428;" d="M 26.6667,80.3333 C 26.2222,80.7778 27.2778,80.7222 27.3333,80.6667 27.7778,80.2222 26.7222,80.2778 26.6667,80.3333 Z" />
	<path style="fill:#9e9e9e;" d="M 28.6667,80.3333 C 28.2222,80.7778 29.2778,80.7222 29.3333,80.6667 29.7778,80.2222 28.7222,80.2778 28.6667,80.3333 Z" />
	<path style="fill:#ceccc2;" d="M 30.0,80.0 L 30.0,81.0 33.0,81.0 C 31.7516,80.3152 31.4516,80.2512 30.0,80.0 M 17.0,81.0 L 18.0,82.0 17.0,81.0 Z" />
	<path style="fill:#949186;" d="M 21.6667,81.3333 C 21.2222,81.7778 22.2778,81.7222 22.3333,81.6667 22.7778,81.2222 21.7222,81.2778 21.6667,81.3333 Z" />
	<path style="fill:#bdbfbe;" d="M 23.6667,81.3333 C 23.2222,81.7778 24.2778,81.7222 24.3333,81.6667 24.7778,81.2222 23.7222,81.2778 23.6667,81.3333 Z" />
	<path style="fill:#fff3ba;" d="M 25.0,81.0 L 25.0,82.0 28.0,82.0 C 26.7516,81.3152 26.4516,81.2512 25.0,81.0 Z" />
</g>
</svg>