<?xml version="1.0" encoding="utf-8"?>
<!-- Created by UniConvertor 2.0rc5 (https://sk1project.net/) -->
<svg xmlns="http://www.w3.org/2000/svg" height="99.0px" width="264.0px" version="1.1" xmlns:xlink="http://www.w3.org/1999/xlink" id="beb456b2-0cc4-11ed-907f-a8a1598cb569">

<g>
	<path style="fill:#fe9d02;" d="M 0.0,0.0 L 0.0,33.0 142.0,33.0 C 144.535,22.0418 150.018,11.2464 151.0,0.0 L 0.0,0.0 Z" />
	<path style="fill:#e09954;" d="M 151.0,0.0 L 149.0,9.0 150.0,9.0 C 150.992,5.8689 152.119,3.1535 151.0,0.0 Z" />
	<path style="fill:#974939;" d="M 152.333,0.6667 C 152.278,0.7222 152.222,1.7778 152.667,1.3333 152.722,1.2778 152.778,0.2222 152.333,0.6667 Z" />
	<path style="fill:#6b0202;" d="M 143.0,32.0 L 264.0,32.0 264.0,19.0 C 251.606,16.6976 237.357,15.3926 225.015,18.7639 217.319,20.866 211.267,25.5187 203.0,26.6998 192.487,28.2019 183.977,24.905 174.0,24.0 L 176.0,20.0 C 172.726,17.8929 172.809,15.5289 174.0,12.0 L 174.0,11.0 C 172.732,7.3575 172.992,3.8406 173.0,0.0 167.832,0.0 159.11,-1.695 154.419,0.6034 148.552,3.4779 144.298,25.7308 143.0,32.0 Z" />
	<path style="fill:#850604;" d="M 173.0,0.0 C 172.969,3.7951 171.912,7.765 174.0,11.0 L 174.0,12.0 C 171.537,14.6756 172.138,19.1725 176.0,20.0 175.043,21.5167 174.613,22.3385 174.0,24.0 185.664,25.5706 198.218,27.7647 210.0,25.3341 216.061,24.0839 220.265,19.9631 226.004,18.358 237.395,15.1721 252.806,14.9204 264.0,19.0 L 264.0,0.0 173.0,0.0 Z" />
	<path style="fill:#974939;" d="M 151.0,4.0 L 152.0,5.0 151.0,4.0 Z" />
	<path style="fill:#8d4c47;" d="M 150.0,7.0 L 151.0,8.0 150.0,7.0 Z" />
	<path style="fill:#974939;" d="M 149.333,9.6667 C 149.278,9.7223 149.222,10.7777 149.667,10.3333 149.722,10.2778 149.778,9.2222 149.333,9.6667 Z" />
	<path style="fill:#e09954;" d="M 148.0,10.0 L 148.0,13.0 149.0,13.0 C 148.749,11.5484 148.685,11.2484 148.0,10.0 Z" />
	<path style="fill:#974939;" d="M 148.0,13.0 L 147.0,18.0 148.0,18.0 C 148.436,15.949 148.622,14.9433 148.0,13.0 Z" />
	<path style="fill:#e09954;" d="M 147.333,14.6667 C 147.278,14.7223 147.222,15.7778 147.667,15.3333 147.722,15.2778 147.778,14.2222 147.333,14.6667 Z" />
	<path style="fill:#974939;" d="M 235.0,16.0 L 235.0,17.0 247.0,17.0 C 243.303,15.4485 238.983,16.0 235.0,16.0 Z" />
	<path style="fill:#e09954;" d="M 146.333,17.6667 C 146.278,17.7222 146.222,18.7778 146.667,18.3333 146.722,18.2778 146.778,17.2222 146.333,17.6667 Z" />
	<path style="fill:#974939;" d="M 227.667,17.3333 C 227.222,17.7777 228.278,17.7222 228.333,17.6667 228.778,17.2222 227.722,17.2778 227.667,17.3333 M 253.0,17.0 L 253.0,18.0 261.0,18.0 C 258.387,16.9023 255.836,17.0072 253.0,17.0 M 224.667,18.3333 C 224.222,18.7777 225.278,18.7222 225.333,18.6667 225.778,18.2222 224.722,18.2778 224.667,18.3333 M 261.667,18.3333 C 261.222,18.7779 262.278,18.7222 262.333,18.6667 262.778,18.2223 261.722,18.2777 261.667,18.3333 Z" />
	<path style="fill:#90726f;" d="M 146.333,19.6667 C 146.278,19.7222 146.222,20.7778 146.667,20.3333 146.722,20.2778 146.778,19.2222 146.333,19.6667 Z" />
	<path style="fill:#df7a06;" d="M 145.333,21.6667 C 145.278,21.7223 145.222,22.7778 145.667,22.3333 145.722,22.2778 145.778,21.2222 145.333,21.6667 Z" />
	<path style="fill:#8d4c47;" d="M 146.0,21.0 L 147.0,22.0 146.0,21.0 Z" />
	<path style="fill:#df7a06;" d="M 144.333,24.6667 C 144.278,24.7222 144.222,25.7778 144.667,25.3333 144.722,25.2778 144.778,24.2222 144.333,24.6667 Z" />
	<path style="fill:#974939;" d="M 181.0,25.0 C 184.989,29.5654 199.132,27.0 205.0,27.0 L 205.0,26.0 C 197.097,26.0 188.725,26.8392 181.0,25.0 Z" />
	<path style="fill:#df7a06;" d="M 143.0,27.0 L 143.0,30.0 144.0,30.0 C 143.749,28.5484 143.685,28.2484 143.0,27.0 Z" />
	<path style="fill:#e09954;" d="M 142.333,30.6667 C 142.278,30.7222 142.222,31.7778 142.667,31.3333 142.722,31.2778 142.778,30.2222 142.333,30.6667 Z" />
	<path style="fill:#90726f;" d="M 142.0,32.0 L 143.0,33.0 142.0,32.0 Z" />
	<path style="fill:#524131;" d="M 143.0,32.0 L 143.0,33.0 247.0,33.0 C 238.404,29.3928 224.322,32.0 215.0,32.0 L 143.0,32.0 Z" />
	<path style="fill:#8d4c47;" d="M 247.0,32.0 L 247.0,33.0 260.0,33.0 C 256.041,31.3389 251.263,32.0 247.0,32.0 Z" />
	<path style="fill:#524131;" d="M 260.0,32.0 L 260.0,33.0 264.0,33.0 C 262.494,32.317 261.685,32.1741 260.0,32.0 M 0.0,33.0 L 0.0,34.0 142.0,34.0 C 130.782,29.2928 111.206,33.0 99.0,33.0 L 0.0,33.0 Z" />
	<path style="fill:#020101;" d="M 0.0,34.0 L 0.0,65.0 264.0,65.0 264.0,33.0 0.0,34.0 Z" />
	<path style="fill:#524131;" d="M 18.0,41.0 L 19.0,42.0 18.0,41.0 Z" />
	<path style="fill:#636060;" d="M 19.0,41.0 L 19.0,42.0 33.0,42.0 C 28.7835,40.2307 23.5411,41.0 19.0,41.0 M 47.0,41.0 L 47.0,42.0 60.0,42.0 C 56.0413,40.3389 51.2634,41.0 47.0,41.0 Z" />
	<path style="fill:#524131;" d="M 60.0,41.0 L 61.0,45.0 62.0,45.0 C 61.4892,43.0478 61.2667,42.543 60.0,41.0 Z" />
	<path style="fill:#636060;" d="M 70.0,41.0 L 70.0,58.0 71.0,58.0 C 71.0,52.6381 72.0872,45.974 70.0,41.0 Z" />
	<path style="fill:#90726f;" d="M 71.0,41.0 L 71.0,42.0 80.0,42.0 C 77.1103,40.7871 74.1259,41.0017 71.0,41.0 Z" />
	<path style="fill:#636060;" d="M 90.6667,41.3333 C 90.2222,41.7778 91.2778,41.7222 91.3333,41.6667 91.7778,41.2222 90.7222,41.2778 90.6667,41.3333 Z" />
	<path style="fill:#949090;" d="M 92.0,41.0 L 92.0,42.0 99.0,42.0 C 96.6684,41.0155 94.5433,41.0187 92.0,41.0 Z" />
	<path style="fill:#636060;" d="M 99.0,41.0 L 100.0,45.0 101.0,45.0 C 100.489,43.0478 100.267,42.543 99.0,41.0 M 110.0,43.0 C 112.377,42.428 114.558,42.1095 117.0,42.0 114.266,40.8599 112.003,40.7068 110.0,43.0 Z" />
	<path style="fill:#90726f;" d="M 117.0,41.0 L 117.0,42.0 120.0,42.0 C 118.752,41.3152 118.452,41.2512 117.0,41.0 Z" />
	<path style="fill:#524131;" d="M 120.0,41.0 L 121.0,42.0 120.0,41.0 M 133.0,41.0 L 134.0,42.0 133.0,41.0 Z" />
	<path style="fill:#636060;" d="M 134.0,41.0 L 134.0,42.0 C 137.122,42.0262 139.96,42.2757 143.0,43.0 140.727,40.3988 137.306,41.0026 134.0,41.0 Z" />
	<path style="fill:#524131;" d="M 151.0,41.0 C 149.814,42.1863 149.472,42.5838 149.0,44.0 150.548,42.7383 150.808,42.8061 151.0,41.0 Z" />
	<path style="fill:#949090;" d="M 152.0,41.0 L 152.0,42.0 163.0,42.0 C 159.568,40.5597 155.7,41.0 152.0,41.0 Z" />
	<path style="fill:#636060;" d="M 180.0,41.0 L 180.0,42.0 191.0,42.0 C 187.568,40.5597 183.7,41.0 180.0,41.0 M 201.0,41.0 L 201.0,47.0 202.0,47.0 202.0,42.0 210.0,42.0 C 207.11,40.7871 204.126,41.0017 201.0,41.0 M 226.0,41.0 L 226.0,42.0 231.0,42.0 C 229.231,41.2211 227.964,41.0876 226.0,41.0 Z" />
	<path style="fill:#90726f;" d="M 231.0,41.0 L 231.0,42.0 237.0,42.0 C 234.948,41.1257 233.253,41.0472 231.0,41.0 Z" />
	<path style="fill:#524131;" d="M 237.0,41.0 L 238.0,42.0 237.0,41.0 Z" />
	<path style="fill:#949090;" d="M 18.0,42.0 L 18.0,46.0 19.0,46.0 C 18.8259,44.3148 18.683,43.506 18.0,42.0 Z" />
	<path style="fill:#ffffff;" d="M 19.0,42.0 L 19.0,57.0 27.0,57.0 27.0,45.0 C 39.0719,54.7396 40.041,55.4492 52.0,45.0 L 52.0,57.0 60.0,57.0 60.0,42.0 C 48.8983,42.0 46.4104,43.8826 39.0,52.0 34.2734,42.0539 29.0848,42.0 19.0,42.0 Z" />
	<path style="fill:#524131;" d="M 33.0,42.0 L 34.0,43.0 33.0,42.0 M 45.0,42.0 L 46.0,43.0 45.0,42.0 Z" />
	<path style="fill:#d2cccb;" d="M 46.0,42.0 L 47.0,43.0 46.0,42.0 M 60.0,42.0 L 60.0,45.0 61.0,45.0 C 60.7488,43.5484 60.6848,43.2484 60.0,42.0 Z" />
	<path style="fill:#ffffff;" d="M 71.0,42.0 L 71.0,57.0 80.0,57.0 80.0,42.0 71.0,42.0 Z" />
	<path style="fill:#636060;" d="M 80.0,42.0 L 80.0,58.0 81.0,58.0 C 81.0,52.9098 81.9822,46.7238 80.0,42.0 Z" />
	<path style="fill:#524131;" d="M 89.3333,42.6667 C 89.2777,42.7223 89.2222,43.7778 89.6667,43.3333 89.7222,43.2778 89.7778,42.2222 89.3333,42.6667 Z" />
	<path style="fill:#bcb1b1;" d="M 90.0,42.0 L 90.0,58.0 91.0,58.0 C 91.0,52.9098 91.9822,46.7238 90.0,42.0 Z" />
	<path style="fill:#ffffff;" d="M 91.0,42.0 L 91.0,57.0 114.0,57.0 114.0,55.0 C 102.383,55.0 99.0,54.2675 99.0,42.0 L 91.0,42.0 Z" />
	<path style="fill:#bcb1b1;" d="M 99.0,42.0 L 99.0,45.0 100.0,45.0 C 99.7488,43.5484 99.6848,43.2484 99.0,42.0 Z" />
	<path style="fill:#ffffff;" d="M 111.0,42.0 C 115.289,47.2683 121.439,49.569 122.0,57.0 L 130.0,57.0 C 130.567,49.4758 136.649,47.2692 141.0,42.0 136.007,42.0176 130.405,46.7215 126.424,46.2353 121.026,45.576 117.304,42.0007 111.0,42.0 Z" />
	<path style="fill:#90726f;" d="M 121.0,42.0 L 122.0,43.0 121.0,42.0 M 132.0,42.0 L 133.0,43.0 132.0,42.0 Z" />
	<path style="fill:#d2cccb;" d="M 141.0,42.0 L 142.0,43.0 141.0,42.0 Z" />
	<path style="fill:#ffffff;" d="M 140.0,57.0 C 146.13,56.9953 151.053,54.0093 157.0,54.0093 162.947,54.0093 167.87,56.9953 174.0,57.0 164.783,36.3191 150.336,40.4579 140.0,57.0 Z" />
	<path style="fill:#bcb1b1;" d="M 163.0,42.0 L 164.0,43.0 163.0,42.0 Z" />
	<path style="fill:#524131;" d="M 179.0,42.0 L 179.0,58.0 180.0,58.0 C 180.0,52.9098 180.982,46.7239 179.0,42.0 Z" />
	<path style="fill:#bcb1b1;" d="M 180.0,42.0 L 180.0,45.0 181.0,45.0 C 180.749,43.5485 180.685,43.2483 180.0,42.0 Z" />
	<path style="fill:#ffffff;" d="M 181.0,42.0 L 181.0,57.0 188.0,57.0 C 187.111,53.1301 187.51,49.8969 188.0,46.0 195.25,51.9039 199.247,56.9925 209.0,57.0 L 209.0,42.0 202.0,42.0 202.0,52.0 C 194.107,46.4399 191.137,42.0011 181.0,42.0 Z" />
	<path style="fill:#949090;" d="M 191.0,42.0 L 192.0,43.0 191.0,42.0 Z" />
	<path style="fill:#bcb1b1;" d="M 209.0,42.0 L 209.0,57.0 205.0,57.0 205.0,58.0 210.0,58.0 C 210.0,52.9098 210.982,46.7238 209.0,42.0 Z" />
	<path style="fill:#524131;" d="M 210.0,42.0 L 210.0,45.0 211.0,45.0 C 210.749,43.5484 210.685,43.2483 210.0,42.0 Z" />
	<path style="fill:#90726f;" d="M 225.0,42.0 L 224.0,44.0 C 225.263,43.0286 225.392,43.3063 225.0,42.0 Z" />
	<path style="fill:#ffffff;" d="M 215.0,57.0 C 221.13,56.9953 226.053,54.0093 232.0,54.0093 237.947,54.0093 242.87,56.9953 249.0,57.0 238.229,39.7041 225.138,37.14 215.0,57.0 Z" />
	<path style="fill:#90726f;" d="M 238.0,42.0 L 239.0,43.0 238.0,42.0 Z" />
	<path style="fill:#d2cccb;" d="M 33.0,43.0 L 34.0,44.0 33.0,43.0 Z" />
	<path style="fill:#949090;" d="M 45.0,43.0 L 46.0,44.0 45.0,43.0 Z" />
	<path style="fill:#90726f;" d="M 111.0,43.0 L 112.0,44.0 111.0,43.0 Z" />
	<path style="fill:#949090;" d="M 122.0,43.0 L 123.0,44.0 122.0,43.0 Z" />
	<path style="fill:#bcb1b1;" d="M 131.0,43.0 L 132.0,44.0 131.0,43.0 Z" />
	<path style="fill:#949090;" d="M 140.0,43.0 L 141.0,44.0 140.0,43.0 Z" />
	<path style="fill:#d2cccb;" d="M 150.0,43.0 L 151.0,44.0 150.0,43.0 Z" />
	<path style="fill:#90726f;" d="M 164.0,43.0 L 165.0,44.0 164.0,43.0 Z" />
	<path style="fill:#949090;" d="M 192.0,43.0 L 193.0,44.0 192.0,43.0 Z" />
	<path style="fill:#524131;" d="M 239.0,43.0 C 239.545,44.6352 239.365,44.455 241.0,45.0 240.455,43.3648 240.635,43.5451 239.0,43.0 Z" />
	<path style="fill:#90726f;" d="M 34.0,44.0 L 35.0,45.0 34.0,44.0 Z" />
	<path style="fill:#636060;" d="M 44.0,44.0 L 45.0,45.0 44.0,44.0 M 112.0,44.0 L 113.0,45.0 112.0,44.0 Z" />
	<path style="fill:#949090;" d="M 123.0,44.0 L 124.0,45.0 123.0,44.0 Z" />
	<path style="fill:#bcb1b1;" d="M 130.0,44.0 L 131.0,45.0 130.0,44.0 Z" />
	<path style="fill:#636060;" d="M 139.0,44.0 L 140.0,45.0 139.0,44.0 Z" />
	<path style="fill:#bcb1b1;" d="M 149.0,44.0 L 150.0,45.0 149.0,44.0 Z" />
	<path style="fill:#636060;" d="M 165.0,44.0 L 166.0,45.0 165.0,44.0 Z" />
	<path style="fill:#949090;" d="M 193.0,44.0 L 194.0,45.0 193.0,44.0 Z" />
	<path style="fill:#636060;" d="M 223.0,44.0 L 224.0,45.0 223.0,44.0 Z" />
	<path style="fill:#d2cccb;" d="M 239.0,44.0 L 240.0,45.0 239.0,44.0 Z" />
	<path style="fill:#949090;" d="M 27.0,45.0 L 27.0,58.0 28.0,58.0 C 28.0,53.5615 27.9673,49.3377 29.0,45.0 L 27.0,45.0 Z" />
	<path style="fill:#524131;" d="M 35.0,45.0 L 36.0,46.0 35.0,45.0 M 43.0,45.0 L 44.0,46.0 43.0,45.0 Z" />
	<path style="fill:#bcb1b1;" d="M 44.0,45.0 L 45.0,46.0 44.0,45.0 Z" />
	<path style="fill:#d2cccb;" d="M 50.0,45.0 L 51.0,46.0 50.0,45.0 Z" />
	<path style="fill:#636060;" d="M 51.0,45.0 C 50.5303,49.2726 50.9995,53.6794 51.0,58.0 L 52.0,58.0 C 52.0,53.7366 52.6611,48.9587 51.0,45.0 Z" />
	<path style="fill:#949090;" d="M 60.0,45.0 L 60.0,58.0 61.0,58.0 C 61.0,53.7366 61.6611,48.9587 60.0,45.0 Z" />
	<path style="fill:#d2cccb;" d="M 99.0,45.0 L 99.0,49.0 100.0,49.0 C 99.8259,47.3148 99.683,46.506 99.0,45.0 Z" />
	<path style="fill:#524131;" d="M 113.0,45.0 L 114.0,46.0 113.0,45.0 Z" />
	<path style="fill:#bcb1b1;" d="M 114.0,45.0 L 115.0,46.0 114.0,45.0 Z" />
	<path style="fill:#90726f;" d="M 124.0,45.0 L 125.0,46.0 124.0,45.0 Z" />
	<path style="fill:#524131;" d="M 128.0,45.0 L 127.0,47.0 C 128.263,46.0286 128.392,46.3063 128.0,45.0 Z" />
	<path style="fill:#bcb1b1;" d="M 129.0,45.0 L 130.0,46.0 129.0,45.0 M 137.0,45.0 L 138.0,46.0 137.0,45.0 Z" />
	<path style="fill:#524131;" d="M 138.0,45.0 L 139.0,46.0 138.0,45.0 Z" />
	<path style="fill:#949090;" d="M 148.0,45.0 L 149.0,46.0 148.0,45.0 M 157.0,45.0 L 156.0,47.0 C 157.263,46.0286 157.392,46.3063 157.0,45.0 Z" />
	<path style="fill:#524131;" d="M 166.0,45.0 L 167.0,46.0 166.0,45.0 Z" />
	<path style="fill:#d2cccb;" d="M 180.0,45.0 L 180.0,57.0 181.0,57.0 C 181.0,53.0168 181.552,48.6975 180.0,45.0 Z" />
	<path style="fill:#949090;" d="M 194.0,45.0 L 195.0,46.0 194.0,45.0 Z" />
	<path style="fill:#524131;" d="M 222.0,45.0 L 223.0,46.0 222.0,45.0 Z" />
	<path style="fill:#d2cccb;" d="M 231.667,45.3333 C 231.222,45.7778 232.278,45.7222 232.333,45.6667 232.778,45.2223 231.722,45.2778 231.667,45.3333 Z" />
	<path style="fill:#bcb1b1;" d="M 240.0,45.0 L 241.0,46.0 240.0,45.0 Z" />
	<path style="fill:#636060;" d="M 18.0,46.0 L 18.0,54.0 19.0,54.0 C 18.9928,51.1645 19.0977,48.6127 18.0,46.0 Z" />
	<path style="fill:#524131;" d="M 28.0,46.0 L 29.0,47.0 28.0,46.0 Z" />
	<path style="fill:#bcb1b1;" d="M 29.0,46.0 L 30.0,47.0 29.0,46.0 Z" />
	<path style="fill:#524131;" d="M 36.0,46.0 L 37.0,47.0 36.0,46.0 Z" />
	<path style="fill:#90726f;" d="M 43.0,46.0 L 44.0,47.0 43.0,46.0 Z" />
	<path style="fill:#949090;" d="M 115.0,46.0 L 116.0,47.0 115.0,46.0 Z" />
	<path style="fill:#90726f;" d="M 125.0,46.0 L 126.0,47.0 125.0,46.0 Z" />
	<path style="fill:#bcb1b1;" d="M 128.0,46.0 L 129.0,47.0 128.0,46.0 Z" />
	<path style="fill:#90726f;" d="M 136.0,46.0 L 137.0,47.0 136.0,46.0 Z" />
	<path style="fill:#636060;" d="M 147.0,46.0 L 148.0,47.0 147.0,46.0 Z" />
	<path style="fill:#524131;" d="M 157.0,46.0 L 156.0,48.0 C 157.263,47.0286 157.392,47.3063 157.0,46.0 Z" />
	<path style="fill:#bcb1b1;" d="M 166.0,46.0 L 167.0,47.0 166.0,46.0 Z" />
	<path style="fill:#d2cccb;" d="M 188.0,46.0 L 189.0,47.0 188.0,46.0 Z" />
	<path style="fill:#949090;" d="M 195.0,46.0 L 196.0,47.0 195.0,46.0 Z" />
	<path style="fill:#d2cccb;" d="M 222.0,46.0 L 223.0,47.0 222.0,46.0 Z" />
	<path style="fill:#636060;" d="M 231.667,46.3333 C 231.222,46.7778 232.278,46.7222 232.333,46.6667 232.778,46.2223 231.722,46.2778 231.667,46.3333 Z" />
	<path style="fill:#949090;" d="M 241.0,46.0 L 242.0,47.0 241.0,46.0 Z" />
	<path style="fill:#bcb1b1;" d="M 36.0,47.0 L 37.0,48.0 36.0,47.0 Z" />
	<path style="fill:#636060;" d="M 42.0,47.0 L 43.0,48.0 42.0,47.0 Z" />
	<path style="fill:#949090;" d="M 49.0,47.0 L 50.0,48.0 49.0,47.0 Z" />
	<path style="fill:#636060;" d="M 116.0,47.0 L 117.0,48.0 116.0,47.0 Z" />
	<path style="fill:#bcb1b1;" d="M 126.0,47.0 L 127.0,48.0 126.0,47.0 M 134.0,47.0 L 135.0,48.0 134.0,47.0 Z" />
	<path style="fill:#524131;" d="M 135.0,47.0 L 136.0,48.0 135.0,47.0 M 146.0,47.0 L 147.0,48.0 146.0,47.0 Z" />
	<path style="fill:#d2cccb;" d="M 155.0,47.0 L 156.0,48.0 155.0,47.0 Z" />
	<path style="fill:#020101;" d="M 157.0,47.0 L 154.0,51.0 160.0,51.0 C 159.045,49.2328 158.434,48.3926 157.0,47.0 Z" />
	<path style="fill:#949090;" d="M 158.0,47.0 L 159.0,48.0 158.0,47.0 M 167.0,47.0 L 168.0,48.0 167.0,47.0 Z" />
	<path style="fill:#90726f;" d="M 188.0,47.0 L 188.0,50.0 189.0,50.0 C 188.749,48.5485 188.685,48.2483 188.0,47.0 Z" />
	<path style="fill:#636060;" d="M 189.0,47.0 L 190.0,48.0 189.0,47.0 Z" />
	<path style="fill:#949090;" d="M 196.0,47.0 L 197.0,48.0 196.0,47.0 Z" />
	<path style="fill:#524131;" d="M 201.0,47.0 L 201.0,50.0 202.0,50.0 C 201.749,48.5485 201.685,48.2483 201.0,47.0 Z" />
	<path style="fill:#949090;" d="M 221.0,47.0 L 222.0,48.0 221.0,47.0 Z" />
	<path style="fill:#bcb1b1;" d="M 230.0,47.0 L 231.0,48.0 230.0,47.0 Z" />
	<path style="fill:#020101;" d="M 231.0,47.0 L 229.0,51.0 235.0,51.0 C 233.846,48.7511 233.249,48.1535 231.0,47.0 Z" />
	<path style="fill:#949090;" d="M 233.0,47.0 L 234.0,48.0 233.0,47.0 Z" />
	<path style="fill:#636060;" d="M 242.0,47.0 L 243.0,48.0 242.0,47.0 M 30.0,48.0 L 31.0,49.0 30.0,48.0 Z" />
	<path style="fill:#90726f;" d="M 37.0,48.0 L 38.0,49.0 37.0,48.0 Z" />
	<path style="fill:#524131;" d="M 41.0,48.0 L 42.0,49.0 41.0,48.0 Z" />
	<path style="fill:#d2cccb;" d="M 42.0,48.0 L 43.0,49.0 42.0,48.0 Z" />
	<path style="fill:#949090;" d="M 48.0,48.0 L 49.0,49.0 48.0,48.0 Z" />
	<path style="fill:#524131;" d="M 117.0,48.0 C 117.545,49.6352 117.365,49.4549 119.0,50.0 118.455,48.3648 118.635,48.5451 117.0,48.0 Z" />
	<path style="fill:#bcb1b1;" d="M 118.0,48.0 L 119.0,49.0 118.0,48.0 Z" />
	<path style="fill:#949090;" d="M 133.0,48.0 L 134.0,49.0 133.0,48.0 Z" />
	<path style="fill:#524131;" d="M 134.0,48.0 L 135.0,49.0 134.0,48.0 Z" />
	<path style="fill:#d2cccb;" d="M 146.0,48.0 L 147.0,49.0 146.0,48.0 Z" />
	<path style="fill:#90726f;" d="M 155.0,48.0 L 156.0,49.0 155.0,48.0 Z" />
	<path style="fill:#bcb1b1;" d="M 159.0,48.0 L 160.0,49.0 159.0,48.0 Z" />
	<path style="fill:#949090;" d="M 168.0,48.0 L 169.0,49.0 168.0,48.0 Z" />
	<path style="fill:#524131;" d="M 190.0,48.0 C 191.103,49.4566 191.543,49.8966 193.0,51.0 191.897,49.5434 191.457,49.1034 190.0,48.0 Z" />
	<path style="fill:#d2cccb;" d="M 191.0,48.0 L 192.0,49.0 191.0,48.0 Z" />
	<path style="fill:#949090;" d="M 197.0,48.0 L 198.0,49.0 197.0,48.0 Z" />
	<path style="fill:#636060;" d="M 220.0,48.0 L 221.0,49.0 220.0,48.0 Z" />
	<path style="fill:#d2cccb;" d="M 229.0,48.0 L 230.0,49.0 229.0,48.0 Z" />
	<path style="fill:#bcb1b1;" d="M 234.0,48.0 L 235.0,49.0 234.0,48.0 Z" />
	<path style="fill:#524131;" d="M 243.0,48.0 L 244.0,49.0 243.0,48.0 Z" />
	<path style="fill:#90726f;" d="M 31.0,49.0 L 32.0,50.0 31.0,49.0 Z" />
	<path style="fill:#524131;" d="M 38.0,49.0 L 39.0,50.0 38.0,49.0 Z" />
	<path style="fill:#949090;" d="M 41.0,49.0 L 42.0,50.0 41.0,49.0 M 47.0,49.0 L 48.0,50.0 47.0,49.0 Z" />
	<path style="fill:#bcb1b1;" d="M 99.0,49.0 L 99.0,54.0 100.0,54.0 C 99.9124,52.0359 99.7789,50.769 99.0,49.0 Z" />
	<path style="fill:#949090;" d="M 119.0,49.0 L 120.0,50.0 119.0,49.0 Z" />
	<path style="fill:#636060;" d="M 132.0,49.0 L 133.0,50.0 132.0,49.0 Z" />
	<path style="fill:#bcb1b1;" d="M 145.0,49.0 L 146.0,50.0 145.0,49.0 Z" />
	<path style="fill:#949090;" d="M 154.0,49.0 L 155.0,50.0 154.0,49.0 Z" />
	<path style="fill:#524131;" d="M 159.0,49.0 L 160.0,50.0 159.0,49.0 Z" />
	<path style="fill:#d2cccb;" d="M 160.0,49.0 L 161.0,50.0 160.0,49.0 Z" />
	<path style="fill:#524131;" d="M 169.0,49.0 L 170.0,50.0 169.0,49.0 Z" />
	<path style="fill:#d2cccb;" d="M 187.0,49.0 L 187.0,56.0 188.0,56.0 C 187.981,53.4567 187.985,51.3316 187.0,49.0 M 192.0,49.0 L 193.0,50.0 192.0,49.0 Z" />
	<path style="fill:#949090;" d="M 198.0,49.0 L 199.0,50.0 198.0,49.0 Z" />
	<path style="fill:#524131;" d="M 219.0,49.0 L 220.0,50.0 219.0,49.0 Z" />
	<path style="fill:#636060;" d="M 229.0,49.0 L 230.0,50.0 229.0,49.0 Z" />
	<path style="fill:#bcb1b1;" d="M 243.0,49.0 L 244.0,50.0 243.0,49.0 Z" />
	<path style="fill:#949090;" d="M 32.0,50.0 L 33.0,51.0 32.0,50.0 Z" />
	<path style="fill:#bcb1b1;" d="M 38.0,50.0 L 39.0,51.0 38.0,50.0 Z" />
	<path style="fill:#90726f;" d="M 40.0,50.0 L 41.0,51.0 40.0,50.0 Z" />
	<path style="fill:#bcb1b1;" d="M 46.0,50.0 L 47.0,51.0 46.0,50.0 Z" />
	<path style="fill:#90726f;" d="M 120.0,50.0 L 121.0,51.0 120.0,50.0 Z" />
	<path style="fill:#636060;" d="M 131.0,50.0 L 132.0,51.0 131.0,50.0 Z" />
	<path style="fill:#949090;" d="M 144.0,50.0 L 145.0,51.0 144.0,50.0 Z" />
	<path style="fill:#bcb1b1;" d="M 153.0,50.0 L 154.0,51.0 153.0,50.0 Z" />
	<path style="fill:#636060;" d="M 160.0,50.0 C 157.582,50.7224 155.528,50.9481 153.0,51.0 L 153.0,52.0 C 155.078,52.0 161.203,52.9136 160.0,50.0 Z" />
	<path style="fill:#524131;" d="M 170.0,50.0 L 171.0,51.0 170.0,50.0 Z" />
	<path style="fill:#636060;" d="M 188.0,50.0 L 188.0,58.0 189.0,58.0 C 188.993,55.1645 189.098,52.6127 188.0,50.0 Z" />
	<path style="fill:#d2cccb;" d="M 193.0,50.0 L 194.0,51.0 193.0,50.0 Z" />
	<path style="fill:#949090;" d="M 199.0,50.0 L 200.0,51.0 199.0,50.0 Z" />
	<path style="fill:#636060;" d="M 201.0,50.0 L 200.0,52.0 202.0,52.0 C 202.0,50.1468 202.3,50.6499 201.0,50.0 Z" />
	<path style="fill:#bcb1b1;" d="M 219.0,50.0 L 220.0,51.0 219.0,50.0 Z" />
	<path style="fill:#90726f;" d="M 228.0,50.0 C 230.232,52.5542 233.768,52.5542 236.0,50.0 233.066,50.6401 230.934,50.6401 228.0,50.0 Z" />
	<path style="fill:#949090;" d="M 244.0,50.0 L 245.0,51.0 244.0,50.0 Z" />
	<path style="fill:#bcb1b1;" d="M 33.0,51.0 L 34.0,52.0 33.0,51.0 M 39.0,51.0 L 40.0,52.0 39.0,51.0 Z" />
	<path style="fill:#524131;" d="M 46.0,51.0 L 47.0,52.0 46.0,51.0 M 120.0,51.0 L 120.0,58.0 121.0,58.0 C 120.981,55.4567 120.985,53.3315 120.0,51.0 Z" />
	<path style="fill:#d2cccb;" d="M 121.0,51.0 L 121.0,57.0 122.0,57.0 C 121.953,54.7472 121.874,53.0521 121.0,51.0 Z" />
	<path style="fill:#949090;" d="M 130.333,51.6667 C 130.278,51.7222 130.222,52.7778 130.667,52.3333 130.722,52.2777 130.778,51.2222 130.333,51.6667 Z" />
	<path style="fill:#636060;" d="M 143.0,51.0 L 144.0,52.0 143.0,51.0 Z" />
	<path style="fill:#bcb1b1;" d="M 161.0,51.0 L 162.0,52.0 161.0,51.0 Z" />
	<path style="fill:#d2cccb;" d="M 170.0,51.0 L 171.0,52.0 170.0,51.0 Z" />
	<path style="fill:#bcb1b1;" d="M 194.0,51.0 C 194.545,52.6352 194.365,52.455 196.0,53.0 195.455,51.3648 195.635,51.5451 194.0,51.0 Z" />
	<path style="fill:#949090;" d="M 218.0,51.0 L 219.0,52.0 218.0,51.0 Z" />
	<path style="fill:#636060;" d="M 245.0,51.0 L 246.0,52.0 245.0,51.0 Z" />
	<path style="fill:#d2cccb;" d="M 34.0,52.0 L 35.0,53.0 34.0,52.0 Z" />
	<path style="fill:#636060;" d="M 45.0,52.0 L 46.0,53.0 45.0,52.0 M 142.0,52.0 L 143.0,53.0 142.0,52.0 Z" />
	<path style="fill:#949090;" d="M 171.0,52.0 L 172.0,53.0 171.0,52.0 Z" />
	<path style="fill:#524131;" d="M 194.0,52.0 L 195.0,53.0 194.0,52.0 Z" />
	<path style="fill:#90726f;" d="M 217.0,52.0 L 218.0,53.0 217.0,52.0 Z" />
	<path style="fill:#524131;" d="M 246.0,52.0 C 246.545,53.6352 246.365,53.4549 248.0,54.0 247.455,52.3648 247.635,52.5451 246.0,52.0 M 34.0,53.0 L 35.0,54.0 34.0,53.0 Z" />
	<path style="fill:#949090;" d="M 44.0,53.0 L 45.0,54.0 44.0,53.0 Z" />
	<path style="fill:#90726f;" d="M 130.0,53.0 L 130.0,58.0 131.0,58.0 C 130.912,56.0359 130.779,54.7691 130.0,53.0 Z" />
	<path style="fill:#d2cccb;" d="M 142.0,53.0 L 143.0,54.0 142.0,53.0 Z" />
	<path style="fill:#949090;" d="M 172.0,53.0 L 173.0,54.0 172.0,53.0 M 196.0,53.0 L 197.0,54.0 196.0,53.0 Z" />
	<path style="fill:#636060;" d="M 216.0,53.0 L 217.0,54.0 216.0,53.0 Z" />
	<path style="fill:#d2cccb;" d="M 246.0,53.0 L 247.0,54.0 246.0,53.0 Z" />
	<path style="fill:#524131;" d="M 18.0,54.0 L 18.0,58.0 19.0,58.0 C 18.8259,56.3148 18.683,55.506 18.0,54.0 Z" />
	<path style="fill:#636060;" d="M 35.0,54.0 L 36.0,55.0 35.0,54.0 Z" />
	<path style="fill:#d2cccb;" d="M 36.0,54.0 L 36.0,55.0 43.0,55.0 C 40.6684,54.0155 38.5433,54.0187 36.0,54.0 Z" />
	<path style="fill:#90726f;" d="M 43.0,54.0 L 44.0,55.0 43.0,54.0 Z" />
	<path style="fill:#636060;" d="M 100.0,54.0 L 100.0,55.0 114.0,55.0 C 109.783,53.2307 104.541,54.0 100.0,54.0 Z" />
	<path style="fill:#bcb1b1;" d="M 141.0,54.0 L 142.0,55.0 141.0,54.0 Z" />
	<path style="fill:#d2cccb;" d="M 150.0,54.0 L 151.0,55.0 150.0,54.0 Z" />
	<path style="fill:#90726f;" d="M 151.0,54.0 L 151.0,55.0 163.0,55.0 C 159.303,53.4485 154.983,54.0 151.0,54.0 Z" />
	<path style="fill:#949090;" d="M 163.0,54.0 L 164.0,55.0 163.0,54.0 Z" />
	<path style="fill:#636060;" d="M 173.0,54.0 L 174.0,55.0 173.0,54.0 Z" />
	<path style="fill:#90726f;" d="M 197.0,54.0 L 198.0,55.0 197.0,54.0 Z" />
	<path style="fill:#524131;" d="M 215.0,54.0 L 214.0,56.0 C 215.263,55.0286 215.392,55.3063 215.0,54.0 Z" />
	<path style="fill:#bcb1b1;" d="M 225.0,54.0 L 226.0,55.0 225.0,54.0 Z" />
	<path style="fill:#636060;" d="M 226.0,54.0 L 226.0,55.0 238.0,55.0 C 234.303,53.4485 229.983,54.0 226.0,54.0 Z" />
	<path style="fill:#bcb1b1;" d="M 238.0,54.0 L 239.0,55.0 238.0,54.0 M 247.0,54.0 L 248.0,55.0 247.0,54.0 Z" />
	<path style="fill:#90726f;" d="M 114.0,55.0 L 114.0,58.0 115.0,58.0 C 114.749,56.5484 114.685,56.2484 114.0,55.0 M 140.0,55.0 L 141.0,56.0 140.0,55.0 Z" />
	<path style="fill:#bcb1b1;" d="M 149.0,55.0 L 150.0,56.0 149.0,55.0 Z" />
	<path style="fill:#949090;" d="M 164.0,55.0 L 165.0,56.0 164.0,55.0 Z" />
	<path style="fill:#524131;" d="M 174.0,55.0 L 175.0,56.0 174.0,55.0 Z" />
	<path style="fill:#90726f;" d="M 198.0,55.0 L 199.0,56.0 198.0,55.0 Z" />
	<path style="fill:#524131;" d="M 210.333,55.6667 C 210.278,55.7222 210.222,56.7778 210.667,56.3333 210.722,56.2777 210.778,55.2222 210.333,55.6667 Z" />
	<path style="fill:#d2cccb;" d="M 215.0,55.0 L 216.0,56.0 215.0,55.0 Z" />
	<path style="fill:#949090;" d="M 224.0,55.0 L 225.0,56.0 224.0,55.0 M 239.0,55.0 L 240.0,56.0 239.0,55.0 M 248.0,55.0 L 249.0,56.0 248.0,55.0 Z" />
	<path style="fill:#636060;" d="M 139.0,56.0 L 140.0,57.0 139.0,56.0 Z" />
	<path style="fill:#524131;" d="M 149.0,56.0 L 150.0,57.0 149.0,56.0 M 164.0,56.0 L 165.0,57.0 164.0,56.0 Z" />
	<path style="fill:#d2cccb;" d="M 174.0,56.0 C 171.271,56.8102 168.85,56.9791 166.0,57.0 L 166.0,58.0 C 168.141,58.0 175.244,59.0143 174.0,56.0 Z" />
	<path style="fill:#90726f;" d="M 199.0,56.0 L 200.0,57.0 199.0,56.0 Z" />
	<path style="fill:#d2cccb;" d="M 214.0,56.0 C 216.273,58.6012 219.694,57.9974 223.0,58.0 L 223.0,57.0 C 219.878,56.9738 217.04,56.7243 214.0,56.0 Z" />
	<path style="fill:#524131;" d="M 224.0,56.0 L 225.0,57.0 224.0,56.0 Z" />
	<path style="fill:#90726f;" d="M 249.0,56.0 L 250.0,57.0 249.0,56.0 Z" />
	<path style="fill:#bcb1b1;" d="M 19.0,57.0 L 19.0,58.0 27.0,58.0 C 24.3873,56.9023 21.8355,57.0072 19.0,57.0 M 52.0,57.0 L 52.0,58.0 60.0,58.0 C 57.3873,56.9023 54.8355,57.0072 52.0,57.0 M 71.0,57.0 L 71.0,58.0 80.0,58.0 C 77.1103,56.7871 74.1259,57.0017 71.0,57.0 Z" />
	<path style="fill:#d2cccb;" d="M 91.0,57.0 L 91.0,58.0 114.0,58.0 C 107.555,55.2956 97.9678,57.0 91.0,57.0 Z" />
	<path style="fill:#bcb1b1;" d="M 121.0,57.0 L 121.0,58.0 130.0,58.0 C 127.11,56.7871 124.126,57.0017 121.0,57.0 Z" />
	<path style="fill:#524131;" d="M 138.0,57.0 L 139.0,58.0 138.0,57.0 Z" />
	<path style="fill:#bcb1b1;" d="M 139.0,57.0 L 139.0,58.0 149.0,58.0 C 145.837,56.6726 142.414,57.0004 139.0,57.0 Z" />
	<path style="fill:#636060;" d="M 165.0,57.0 L 166.0,58.0 165.0,57.0 Z" />
	<path style="fill:#90726f;" d="M 175.0,57.0 L 176.0,58.0 175.0,57.0 Z" />
	<path style="fill:#bcb1b1;" d="M 180.0,57.0 L 180.0,58.0 188.0,58.0 C 185.387,56.9023 182.835,57.0072 180.0,57.0 Z" />
	<path style="fill:#636060;" d="M 200.0,57.0 L 201.0,58.0 200.0,57.0 Z" />
	<path style="fill:#d2cccb;" d="M 201.0,57.0 L 201.0,58.0 205.0,58.0 C 203.494,57.3169 202.685,57.1741 201.0,57.0 Z" />
	<path style="fill:#636060;" d="M 213.0,57.0 L 214.0,58.0 213.0,57.0 M 223.0,57.0 L 224.0,58.0 223.0,57.0 Z" />
	<path style="fill:#90726f;" d="M 240.0,57.0 L 241.0,58.0 240.0,57.0 Z" />
	<path style="fill:#bcb1b1;" d="M 241.0,57.0 L 241.0,58.0 250.0,58.0 C 247.11,56.7871 244.126,57.0017 241.0,57.0 Z" />
	<path style="fill:#524131;" d="M 250.0,57.0 L 251.0,58.0 250.0,57.0 Z" />
	<path style="fill:#df7a06;" d="M 0.0,65.0 L 0.0,67.0 98.0,67.0 C 106.058,67.0 126.318,63.3464 131.0,71.0 L 132.0,71.0 132.0,65.0 0.0,65.0 Z" />
	<path style="fill:#90726f;" d="M 132.0,65.0 L 132.0,68.0 133.0,68.0 C 132.749,66.5484 132.685,66.2483 132.0,65.0 Z" />
	<path style="fill:#6b0202;" d="M 133.0,65.0 C 130.367,76.4845 126.218,87.6607 123.0,99.0 L 264.0,99.0 264.0,70.0 260.0,70.0 260.0,69.0 264.0,69.0 264.0,65.0 133.0,65.0 Z" />
	<path style="fill:#fe9d02;" d="M 0.0,67.0 L 0.0,99.0 123.0,99.0 C 124.549,88.4714 130.454,78.6627 131.0,68.0 116.23,65.2579 99.998,67.0 85.0,67.0 L 0.0,67.0 Z" />
	<path style="fill:#a8887f;" d="M 145.0,68.0 C 145.168,70.4025 145.197,71.4602 147.0,73.0 146.449,71.1749 145.924,69.6482 145.0,68.0 Z" />
	<path style="fill:#d2cccb;" d="M 146.0,68.0 L 147.0,72.0 148.0,72.0 C 147.693,69.8772 147.618,69.314 146.0,68.0 Z" />
	<path style="fill:#90726f;" d="M 159.667,68.3333 C 159.222,68.7778 160.278,68.7222 160.333,68.6667 160.778,68.2222 159.722,68.2778 159.667,68.3333 Z" />
	<path style="fill:#636060;" d="M 177.667,68.3333 C 177.222,68.7778 178.278,68.7222 178.333,68.6667 178.778,68.2222 177.722,68.2778 177.667,68.3333 Z" />
	<path style="fill:#524131;" d="M 204.0,68.0 L 205.0,69.0 204.0,68.0 Z" />
	<path style="fill:#bcb1b1;" d="M 205.667,68.3333 C 205.222,68.7778 206.278,68.7222 206.333,68.6667 206.778,68.2222 205.722,68.2778 205.667,68.3333 Z" />
	<path style="fill:#850604;" d="M 135.0,69.0 L 135.0,70.0 C 137.377,70.572 139.558,70.8905 142.0,71.0 L 142.0,70.0 135.0,69.0 Z" />
	<path style="fill:#ffffff;" d="M 146.0,69.0 L 146.0,72.0 147.0,72.0 C 146.749,70.5484 146.685,70.2484 146.0,69.0 Z" />
	<path style="fill:#8d4c47;" d="M 148.0,69.0 L 148.0,72.0 150.0,72.0 150.0,69.0 148.0,69.0 Z" />
	<path style="fill:#d2cccb;" d="M 150.0,69.0 L 151.0,72.0 C 152.731,70.994 154.053,70.4535 156.0,70.0 153.948,69.1258 152.253,69.0472 150.0,69.0 Z" />
	<path style="fill:#524131;" d="M 156.0,69.0 L 157.0,72.0 158.0,72.0 158.0,69.0 156.0,69.0 Z" />
	<path style="fill:#ffffff;" d="M 158.0,69.0 L 159.0,72.0 160.0,72.0 161.0,69.0 158.0,69.0 Z" />
	<path style="fill:#bcb1b1;" d="M 161.0,69.0 L 162.0,70.0 161.0,69.0 Z" />
	<path style="fill:#850604;" d="M 162.0,69.0 L 162.0,73.0 163.0,73.0 164.0,69.0 162.0,69.0 Z" />
	<path style="fill:#bcb1b1;" d="M 163.0,70.0 L 163.0,71.0 C 164.757,70.7987 166.248,70.7734 168.0,71.0 166.318,69.105 165.462,69.3854 163.0,70.0 Z" />
	<path style="fill:#90726f;" d="M 168.0,69.0 L 169.0,70.0 168.0,69.0 Z" />
	<path style="fill:#bcb1b1;" d="M 171.0,72.0 L 172.0,72.0 173.0,70.0 173.0,72.0 176.0,70.0 C 173.387,68.502 171.646,68.9876 171.0,72.0 Z" />
	<path style="fill:#8d4c47;" d="M 176.0,69.0 L 177.0,70.0 176.0,69.0 Z" />
	<path style="fill:#bcb1b1;" d="M 177.0,69.0 L 177.0,72.0 178.0,72.0 179.0,69.0 177.0,69.0 Z" />
	<path style="fill:#850604;" d="M 179.0,69.0 L 180.0,72.0 181.0,72.0 182.0,69.0 179.0,69.0 Z" />
	<path style="fill:#d2cccb;" d="M 181.0,72.0 C 183.717,71.1485 185.283,71.1485 188.0,72.0 185.877,68.7363 183.123,68.7362 181.0,72.0 Z" />
	<path style="fill:#90726f;" d="M 187.0,69.0 L 188.0,70.0 187.0,69.0 Z" />
	<path style="fill:#974939;" d="M 188.0,69.0 C 188.545,70.6352 188.365,70.4549 190.0,71.0 L 190.0,69.0 188.0,69.0 Z" />
	<path style="fill:#d2cccb;" d="M 190.0,72.0 L 195.0,70.0 C 192.387,68.502 190.646,68.9876 190.0,72.0 M 200.0,69.0 L 201.0,72.0 C 202.761,71.2087 202.545,71.0383 204.0,72.0 205.095,69.0949 202.45,69.1205 200.0,69.0 Z" />
	<path style="fill:#ffffff;" d="M 205.0,69.0 L 205.0,72.0 206.0,72.0 C 205.749,70.5485 205.685,70.2483 205.0,69.0 Z" />
	<path style="fill:#d2cccb;" d="M 206.0,69.0 L 206.0,72.0 207.0,72.0 C 206.749,70.5485 206.685,70.2483 206.0,69.0 Z" />
	<path style="fill:#974939;" d="M 207.0,69.0 L 207.0,72.0 208.0,72.0 209.0,69.0 207.0,69.0 Z" />
	<path style="fill:#a8887f;" d="M 209.0,69.0 L 210.0,70.0 209.0,69.0 Z" />
	<path style="fill:#d2cccb;" d="M 208.0,71.0 C 209.478,71.9856 209.203,72.0 211.0,72.0 212.223,70.8048 212.42,70.6836 214.0,70.0 211.492,69.1112 210.185,69.505 208.0,71.0 Z" />
	<path style="fill:#a8887f;" d="M 214.0,69.0 L 215.0,70.0 214.0,69.0 Z" />
	<path style="fill:#8d4c47;" d="M 215.0,69.0 L 216.0,72.0 217.0,72.0 218.0,69.0 215.0,69.0 Z" />
	<path style="fill:#d2cccb;" d="M 217.0,70.0 L 217.0,71.0 C 219.392,70.7005 220.044,70.6804 222.0,72.0 223.345,68.4322 219.286,69.2811 217.0,70.0 Z" />
	<path style="fill:#a8887f;" d="M 223.0,69.0 L 224.0,70.0 223.0,69.0 Z" />
	<path style="fill:#850604;" d="M 224.0,69.0 L 225.0,72.0 226.0,72.0 226.0,69.0 224.0,69.0 Z" />
	<path style="fill:#bcb1b1;" d="M 226.0,69.0 L 226.0,72.0 227.0,72.0 C 226.749,70.5484 226.685,70.2484 226.0,69.0 Z" />
	<path style="fill:#d2cccb;" d="M 227.0,69.0 L 228.0,72.0 231.0,70.0 C 229.494,69.317 228.685,69.1741 227.0,69.0 Z" />
	<path style="fill:#974939;" d="M 229.0,70.0 L 229.0,71.0 232.0,72.0 232.0,69.0 229.0,70.0 Z" />
	<path style="fill:#d2cccb;" d="M 232.0,69.0 L 232.0,71.0 234.0,71.0 234.0,69.0 232.0,69.0 Z" />
	<path style="fill:#bcb1b1;" d="M 232.0,71.0 L 232.0,72.0 C 234.689,71.5824 235.554,71.2827 237.0,69.0 235.106,69.4646 233.723,70.0659 232.0,71.0 Z" />
	<path style="fill:#a8887f;" d="M 237.333,69.6667 C 237.278,69.7222 237.222,70.7778 237.667,70.3333 237.722,70.2778 237.778,69.2222 237.333,69.6667 Z" />
	<path style="fill:#974939;" d="M 238.0,69.0 L 238.0,70.0 246.0,70.0 C 243.387,68.9023 240.835,69.0072 238.0,69.0 Z" />
	<path style="fill:#850604;" d="M 248.0,69.0 L 248.0,70.0 253.0,70.0 C 251.231,69.2211 249.964,69.0876 248.0,69.0 M 254.0,69.0 L 254.0,70.0 259.0,70.0 C 257.231,69.2211 255.964,69.0876 254.0,69.0 M 260.0,69.0 L 260.0,70.0 264.0,70.0 C 262.494,69.317 261.685,69.1741 260.0,69.0 Z" />
	<path style="fill:#ffffff;" d="M 150.333,70.6667 C 150.278,70.7222 150.222,71.7778 150.667,71.3333 150.722,71.2778 150.778,70.2222 150.333,70.6667 Z" />
	<path style="fill:#a8887f;" d="M 154.333,70.6667 C 154.278,70.7222 154.222,71.7778 154.667,71.3333 154.722,71.2778 154.778,70.2222 154.333,70.6667 Z" />
	<path style="fill:#ffffff;" d="M 155.333,70.6667 C 155.278,70.7222 155.222,71.7778 155.667,71.3333 155.722,71.2778 155.778,70.2222 155.333,70.6667 Z" />
	<path style="fill:#a8887f;" d="M 156.333,70.6667 C 156.278,70.7222 156.222,71.7778 156.667,71.3333 156.722,71.2778 156.778,70.2222 156.333,70.6667 Z" />
	<path style="fill:#8d4c47;" d="M 158.333,70.6667 C 158.278,70.7222 158.222,71.7778 158.667,71.3333 158.722,71.2778 158.778,70.2222 158.333,70.6667 Z" />
	<path style="fill:#d2cccb;" d="M 160.333,70.6667 C 160.278,70.7222 160.222,71.7778 160.667,71.3333 160.722,71.2778 160.778,70.2222 160.333,70.6667 Z" />
	<path style="fill:#a8887f;" d="M 161.0,70.0 C 160.455,71.6352 160.635,71.4549 159.0,72.0 L 159.0,73.0 C 161.251,72.5268 162.118,72.1397 161.0,70.0 Z" />
	<path style="fill:#d2cccb;" d="M 164.333,70.6667 C 164.278,70.7222 164.222,71.7778 164.667,71.3333 164.722,71.2778 164.778,70.2222 164.333,70.6667 Z" />
	<path style="fill:#90726f;" d="M 165.0,71.0 L 165.0,72.0 169.0,72.0 C 167.265,70.9499 167.068,70.9538 165.0,71.0 Z" />
	<path style="fill:#d2cccb;" d="M 168.0,70.0 L 169.0,71.0 168.0,70.0 Z" />
	<path style="fill:#a8887f;" d="M 169.0,70.0 L 170.0,71.0 169.0,70.0 Z" />
	<path style="fill:#ffffff;" d="M 172.333,70.6667 C 172.278,70.7222 172.222,71.7778 172.667,71.3333 172.722,71.2778 172.778,70.2222 172.333,70.6667 Z" />
	<path style="fill:#850604;" d="M 174.0,70.0 L 174.0,71.0 177.0,72.0 C 176.02,70.2167 176.092,70.4057 174.0,70.0 Z" />
	<path style="fill:#ffffff;" d="M 178.333,70.6667 C 178.278,70.7222 178.222,71.7778 178.667,71.3333 178.722,71.2778 178.778,70.2222 178.333,70.6667 Z" />
	<path style="fill:#90726f;" d="M 179.333,70.6667 C 179.278,70.7222 179.222,71.7778 179.667,71.3333 179.722,71.2778 179.778,70.2222 179.333,70.6667 Z" />
	<path style="fill:#a8887f;" d="M 183.0,70.0 C 183.98,71.7833 183.908,71.5943 186.0,72.0 L 186.0,71.0 183.0,70.0 Z" />
	<path style="fill:#850604;" d="M 184.667,70.3333 C 184.222,70.7778 185.278,70.7223 185.333,70.6667 185.778,70.2222 184.722,70.2778 184.667,70.3333 Z" />
	<path style="fill:#bcb1b1;" d="M 188.0,70.0 L 189.0,71.0 188.0,70.0 Z" />
	<path style="fill:#8d4c47;" d="M 192.333,70.6667 C 192.278,70.7222 192.222,71.7778 192.667,71.3333 192.722,71.2778 192.778,70.2222 192.333,70.6667 Z" />
	<path style="fill:#90726f;" d="M 199.333,70.6667 C 199.278,70.7222 199.222,71.7778 199.667,71.3333 199.722,71.2778 199.778,70.2222 199.333,70.6667 Z" />
	<path style="fill:#ffffff;" d="M 200.333,70.6667 C 200.278,70.7222 200.222,71.7778 200.667,71.3333 200.722,71.2778 200.778,70.2222 200.333,70.6667 Z" />
	<path style="fill:#850604;" d="M 202.667,70.3333 C 202.222,70.7777 203.278,70.7222 203.333,70.6667 203.778,70.2222 202.722,70.2778 202.667,70.3333 M 211.667,70.3333 C 211.222,70.7778 212.278,70.7222 212.333,70.6667 212.778,70.2222 211.722,70.2778 211.667,70.3333 Z" />
	<path style="fill:#90726f;" d="M 213.0,70.0 L 210.0,72.0 210.0,73.0 214.0,73.0 C 213.762,71.6421 213.701,71.0515 213.0,70.0 Z" />
	<path style="fill:#ffffff;" d="M 214.0,70.0 L 214.0,72.0 C 215.635,71.4549 215.455,71.6352 216.0,70.0 L 214.0,70.0 M 218.0,70.0 L 218.0,72.0 220.0,72.0 C 219.455,70.3648 219.635,70.5451 218.0,70.0 Z" />
	<path style="fill:#a8887f;" d="M 219.0,70.0 L 220.0,71.0 219.0,70.0 Z" />
	<path style="fill:#974939;" d="M 220.667,70.3333 C 220.222,70.7778 221.278,70.7222 221.333,70.6667 221.778,70.2222 220.722,70.2778 220.667,70.3333 Z" />
	<path style="fill:#ffffff;" d="M 223.0,70.0 L 223.0,72.0 C 224.635,71.4549 224.455,71.6352 225.0,70.0 L 223.0,70.0 M 227.333,70.6667 C 227.278,70.7222 227.222,71.7778 227.667,71.3333 227.722,71.2778 227.778,70.2222 227.333,70.6667 Z" />
	<path style="fill:#a8887f;" d="M 163.0,71.0 L 164.0,72.0 163.0,71.0 Z" />
	<path style="fill:#974939;" d="M 169.0,71.0 L 170.0,72.0 169.0,71.0 Z" />
	<path style="fill:#8d4c47;" d="M 188.667,71.3333 C 188.222,71.7778 189.278,71.7222 189.333,71.6667 189.778,71.2222 188.722,71.2778 188.667,71.3333 Z" />
	<path style="fill:#90726f;" d="M 201.0,72.0 L 201.0,73.0 207.0,73.0 C 204.814,71.8839 203.451,71.7734 201.0,72.0 Z" />
	<path style="fill:#a8887f;" d="M 203.0,71.0 L 204.0,72.0 203.0,71.0 Z" />
	<path style="fill:#90726f;" d="M 208.0,71.0 L 209.0,72.0 208.0,71.0 Z" />
	<path style="fill:#bcb1b1;" d="M 213.0,71.0 L 214.0,72.0 213.0,71.0 M 215.0,71.0 L 216.0,72.0 215.0,71.0 Z" />
	<path style="fill:#a8887f;" d="M 217.0,71.0 L 218.0,72.0 217.0,71.0 Z" />
	<path style="fill:#90726f;" d="M 219.0,72.0 L 219.0,73.0 223.0,73.0 C 221.19,71.7603 221.223,71.8163 219.0,72.0 Z" />
	<path style="fill:#bcb1b1;" d="M 224.0,71.0 L 225.0,72.0 224.0,71.0 Z" />
	<path style="fill:#ffffff;" d="M 236.667,71.3333 C 236.222,71.7778 237.278,71.7222 237.333,71.6667 237.778,71.2222 236.722,71.2778 236.667,71.3333 Z" />
	<path style="fill:#90726f;" d="M 238.0,71.0 L 239.0,72.0 238.0,71.0 Z" />
	<path style="fill:#974939;" d="M 150.667,72.3333 C 150.222,72.7778 151.278,72.7222 151.333,72.6667 151.778,72.2222 150.722,72.2778 150.667,72.3333 M 155.667,72.3333 C 155.222,72.7778 156.278,72.7222 156.333,72.6667 156.778,72.2222 155.722,72.2778 155.667,72.3333 Z" />
	<path style="fill:#8d4c47;" d="M 164.0,72.0 L 164.0,73.0 168.0,73.0 C 166.494,72.317 165.685,72.1741 164.0,72.0 M 172.0,72.0 L 173.0,73.0 172.0,72.0 M 177.667,72.3333 C 177.222,72.7778 178.278,72.7222 178.333,72.6667 178.778,72.2222 177.722,72.2778 177.667,72.3333 Z" />
	<path style="fill:#90726f;" d="M 183.0,72.0 L 183.0,73.0 186.0,73.0 C 184.752,72.3152 184.452,72.2512 183.0,72.0 Z" />
	<path style="fill:#974939;" d="M 190.667,72.3333 C 190.222,72.7778 191.278,72.7222 191.333,72.6667 191.778,72.2222 190.722,72.2778 190.667,72.3333 Z" />
	<path style="fill:#90726f;" d="M 226.667,72.3333 C 226.222,72.7778 227.278,72.7222 227.333,72.6667 227.778,72.2222 226.722,72.2778 226.667,72.3333 M 233.0,72.0 L 233.0,73.0 237.0,73.0 C 235.494,72.317 234.685,72.1741 233.0,72.0 Z" />
	<path style="fill:#974939;" d="M 130.333,73.6667 C 130.278,73.7222 130.222,74.7778 130.667,74.3333 130.722,74.2778 130.778,73.2222 130.333,73.6667 Z" />
	<path style="fill:#df7a06;" d="M 129.0,75.0 L 129.0,78.0 130.0,78.0 C 129.749,76.5484 129.685,76.2483 129.0,75.0 Z" />
	<path style="fill:#974939;" d="M 128.333,79.6667 C 128.278,79.7222 128.222,80.7778 128.667,80.3333 128.722,80.2778 128.778,79.2222 128.333,79.6667 Z" />
	<path style="fill:#df7a06;" d="M 127.333,82.6667 C 127.278,82.7222 127.222,83.7778 127.667,83.3333 127.722,83.2778 127.778,82.2222 127.333,82.6667 Z" />
	<path style="fill:#974939;" d="M 126.0,86.0 L 127.0,87.0 126.0,86.0 M 125.0,88.0 L 125.0,91.0 126.0,91.0 C 125.749,89.5484 125.685,89.2483 125.0,88.0 M 124.333,92.6667 C 124.278,92.7222 124.222,93.7778 124.667,93.3333 124.722,93.2778 124.778,92.2222 124.333,92.6667 Z" />
	<path style="fill:#df7a06;" d="M 123.0,95.0 L 123.0,98.0 124.0,98.0 C 123.749,96.5484 123.685,96.2483 123.0,95.0 Z" />
</g>
</svg>